<?xml version="1.0" encoding="utf-8"?>
<!-- Generator: Adobe Illustrator 24.0.1, SVG Export Plug-In . SVG Version: 6.00 Build 0)  -->
<svg version="1.1" id="Layer_1" xmlns:serif="http://www.serif.com/"
	 xmlns="http://www.w3.org/2000/svg" xmlns:xlink="http://www.w3.org/1999/xlink" x="0px" y="0px" viewBox="0 0 3300 2200"
	 style="enable-background:new 0 0 3300 2200;" xml:space="preserve">
<style type="text/css">
	.st0{fill-rule:evenodd;clip-rule:evenodd;fill:#FFFFFF;}
	.st1{fill:none;stroke:#000000;stroke-width:0.5;}
	.st2{font-family:'SFProDisplay-Regular';}
	.st3{font-size:16px;}
	.st4{fill:none;stroke:#00AEEF;stroke-width:0.5;}
	.st5{fill:#27AAE1;}
	.st6{fill:none;stroke:#27AAE1;stroke-width:0.5;}
	.st7{fill-rule:evenodd;clip-rule:evenodd;fill:#FF0000;}
	.st8{fill:#FFC200;}
	.st9{fill-rule:evenodd;clip-rule:evenodd;fill:#FFC200;}
	.st10{fill-rule:evenodd;clip-rule:evenodd;fill:none;}
	.st11{fill:none;}
</style>
<g id="Notes">
	<g id="artboard" transform="matrix(1,0,0,1,0,1.31276)">
		<rect x="162.1" y="-10.9" class="st0" width="3300" height="2200"/>
	</g>
	<path class="st1" d="M425.1,281.1h2773"/>
	<g transform="matrix(1,0,0,1,263,322)">
		<text transform="matrix(1 0 0 1 162.0697 -10.8627)" class="st2 st3">W</text>
		<text transform="matrix(1 0 0 1 175.9917 -10.8627)" class="st2 st3">e</text>
		<text transform="matrix(1 0 0 1 184.187 -10.8627)" class="st2 st3">ight/Scale V</text>
		<text transform="matrix(1 0 0 1 263.3827 -10.8627)" class="st2 st3">a</text>
		<text transform="matrix(1 0 0 1 271.4139 -10.8627)" class="st2 st3">riations</text>
	</g>
	<g transform="matrix(1,0,0,1,559.711,322)">
		<text transform="matrix(1 0 0 1 131.6597 -10.8627)" class="st2 st3">Ultr</text>
		<text transform="matrix(1 0 0 1 155.6597 -10.8627)" class="st2 st3">a</text>
		<text transform="matrix(1 0 0 1 163.691 -10.8627)" class="st2 st3">light</text>
	</g>
	<g transform="matrix(1,0,0,1,856.422,322)">
		<text transform="matrix(1 0 0 1 147.2458 -10.8627)" class="st2 st3">Thin</text>
	</g>
	<g transform="matrix(1,0,0,1,1153.13,322)">
		<text transform="matrix(1 0 0 1 145.1127 -10.8627)" class="st2 st3">Light</text>
	</g>
	<g transform="matrix(1,0,0,1,1449.84,322)">
		<text transform="matrix(1 0 0 1 136.4607 -10.8627)" class="st2 st3">Regular</text>
	</g>
	<g transform="matrix(1,0,0,1,1746.56,322)">
		<text transform="matrix(1 0 0 1 134.6047 -10.8627)" class="st2 st3">Medium</text>
	</g>
	<g transform="matrix(1,0,0,1,2043.27,322)">
		<text transform="matrix(1 0 0 1 130.4136 -10.8627)" class="st2 st3">Semibold</text>
	</g>
	<g transform="matrix(1,0,0,1,2339.98,322)">
		<text transform="matrix(1 0 0 1 146.9248 -10.8627)" class="st2 st3">Bold</text>
	</g>
	<g transform="matrix(1,0,0,1,2636.69,322)">
		<text transform="matrix(1 0 0 1 140.6089 -10.8627)" class="st2 st3">Heavy</text>
	</g>
	<g transform="matrix(1,0,0,1,2933.4,322)">
		<text transform="matrix(1 0 0 1 143.6948 -10.8627)" class="st2 st3">Black</text>
	</g>
	<path class="st1" d="M425.1,1892.1h2773"/>
	<g transform="matrix(1,0,0,1,263,1933)">
		<path d="M171.3-10.1c4.3,0,7.9-3.6,7.9-7.9s-3.6-7.9-7.9-7.9s-7.9,3.6-7.9,7.9C163.5-13.6,167.1-10.1,171.3-10.1z M171.3-11.6
			c-3.5,0-6.4-2.8-6.4-6.4s2.8-6.4,6.4-6.4s6.4,2.8,6.4,6.4C177.8-14.4,174.9-11.6,171.3-11.6z M168.5-17.2h2.1v2.1
			c0,0.4,0.3,0.7,0.7,0.7s0.7-0.3,0.7-0.7v-2.1h2.1c0.4,0,0.7-0.3,0.7-0.7s-0.3-0.7-0.7-0.7h-2v-2.1c0-0.4-0.3-0.8-0.7-0.8
			s-0.7,0.3-0.7,0.8v2.1h-2.2c-0.5-0.1-0.8,0.2-0.8,0.7C167.7-17.5,168-17.2,168.5-17.2z"/>
	</g>
	<g transform="matrix(1,0,0,1,281.506,1933)">
		<path d="M173.8-8c5.4,0,10-4.5,10-10c0-5.4-4.5-10-10-10c-5.4,0-10,4.5-10,10S168.4-8,173.8-8z M173.8-9.7c-4.6,0-8.3-3.7-8.3-8.3
			s3.7-8.3,8.3-8.3s8.3,3.7,8.3,8.3C182.1-13.3,178.4-9.7,173.8-9.7z M170.1-17.1h2.9v2.9c0,0.5,0.3,0.8,0.8,0.8s0.8-0.3,0.8-0.8
			v-2.9h2.9c0.5,0,0.8-0.3,0.8-0.8s-0.3-0.8-0.8-0.8h-2.9v-2.9c0-0.5-0.3-0.8-0.8-0.8s-0.8,0.3-0.8,0.8v2.9h-2.9
			c-0.5-0.1-0.9,0.3-0.9,0.8C169.2-17.5,169.6-17.1,170.1-17.1z"/>
	</g>
	<g transform="matrix(1,0,0,1,304.924,1933)">
		<path d="M177.1-5.2c7,0,12.7-5.8,12.7-12.7c0-7-5.8-12.7-12.7-12.7c-7-0.1-12.7,5.7-12.7,12.6C164.4-11,170.1-5.2,177.1-5.2z
			 M177.1-7.1c-6.1,0-10.9-4.8-10.9-10.9c0-6,4.8-10.9,10.9-10.9c6,0,10.9,4.9,10.9,10.9C188-11.9,183.1-7.1,177.1-7.1z M172.2-17h4
			v4c0,0.5,0.4,0.9,0.9,0.9s0.9-0.4,0.9-0.9v-4h4c0.5,0,0.9-0.4,0.9-0.9s-0.4-0.9-0.9-0.9h-4v-4c0-0.6-0.4-0.9-0.9-0.9
			s-0.9,0.4-0.9,0.9v4h-4c-0.6,0-1,0.3-1,0.9C171.2-17.4,171.6-17,172.2-17z"/>
	</g>
	<g transform="matrix(1,0,0,1,263,1953)">
		<text transform="matrix(1 0 0 1 162.0697 -10.8627)" class="st2 st3">Design V</text>
		<text transform="matrix(1 0 0 1 221.2806 -10.8627)" class="st2 st3">a</text>
		<text transform="matrix(1 0 0 1 229.3119 -10.8627)" class="st2 st3">riations</text>
	</g>
	<g transform="matrix(1,0,0,1,263,1971)">
		<text transform="matrix(1 0 0 1 162.0697 -10.8627)" class="st2 st3">Symbols ar</text>
		<text transform="matrix(1 0 0 1 236.1087 -10.8627)" class="st2 st3">e</text>
		<text transform="matrix(1 0 0 1 244.304 -10.8627)" class="st2 st3"> support</text>
		<text transform="matrix(1 0 0 1 299.0467 -10.8627)" class="st2 st3">e</text>
		<text transform="matrix(1 0 0 1 307.242 -10.8627)" class="st2 st3">d in up t</text>
		<text transform="matrix(1 0 0 1 359.4757 -10.8627)" class="st2 st3">o</text>
		<text transform="matrix(1 0 0 1 367.9679 -10.8627)" class="st2 st3"> nine weights and thr</text>
		<text transform="matrix(1 0 0 1 505.3587 -10.8627)" class="st2 st3">e</text>
		<text transform="matrix(1 0 0 1 513.554 -10.8627)" class="st2 st3">e scales.</text>
	</g>
	<g transform="matrix(1,0,0,1,263,1989)">
		<text transform="matrix(1 0 0 1 162.0697 -10.8627)" class="st2 st3">F</text>
		<text transform="matrix(1 0 0 1 170.2028 -10.8627)" class="st2 st3">o</text>
		<text transform="matrix(1 0 0 1 178.6949 -10.8627)" class="st2 st3">r optimal lay</text>
		<text transform="matrix(1 0 0 1 258.4997 -10.8627)" class="st2 st3">o</text>
		<text transform="matrix(1 0 0 1 266.9919 -10.8627)" class="st2 st3">ut with t</text>
		<text transform="matrix(1 0 0 1 319.5777 -10.8627)" class="st2 st3">e</text>
		<text transform="matrix(1 0 0 1 327.6167 -10.8627)" class="st2 st3">x</text>
		<text transform="matrix(1 0 0 1 335.1089 -10.8627)" class="st2 st3">t and other symbols,</text>
		<text transform="matrix(1 0 0 1 468.9527 -10.8627)" class="st2 st3"> </text>
		<text transform="matrix(1 0 0 1 472.2337 -10.8627)" class="st2 st3">v</text>
		<text transform="matrix(1 0 0 1 479.6477 -10.8627)" class="st2 st3">e</text>
		<text transform="matrix(1 0 0 1 487.843 -10.8627)" class="st2 st3">rtically align</text>
	</g>
	<g transform="matrix(1,0,0,1,263,2007)">
		<text transform="matrix(1 0 0 1 162.0697 -10.8627)" class="st2 st3">symbols with the adjacent t</text>
		<text transform="matrix(1 0 0 1 343.4137 -10.8627)" class="st2 st3">e</text>
		<text transform="matrix(1 0 0 1 351.4527 -10.8627)" class="st2 st3">x</text>
		<text transform="matrix(1 0 0 1 358.9449 -10.8627)" class="st2 st3">t.</text>
	</g>
	<path class="st4" d="M938.1,1908.1v14"/>
	<g transform="matrix(1,0,0,1,776,1933)">
		<path d="M165.4-10.8c0.5,0,0.8-0.2,1-0.7l1.3-3.5h5.8l1.3,3.5c0.2,0.5,0.4,0.7,0.9,0.7s0.8-0.3,0.8-0.8c0-0.2,0-0.3-0.1-0.5
			l-4.6-12.2c-0.3-0.6-0.7-0.9-1.3-0.9s-1,0.3-1.2,0.9l-4.6,12.2c-0.1,0.2-0.1,0.4-0.1,0.5C164.6-11.1,164.9-10.8,165.4-10.8z
			 M168.1-16.4l2.4-6.6l0,0l2.4,6.6H168.1z"/>
	</g>
	<path class="st4" d="M954.9,1908.1v14"/>
	<g transform="matrix(1,0,0,1,776,1953)">
		<text transform="matrix(1 0 0 1 162.0697 -10.8627)" class="st2 st3">M</text>
		<text transform="matrix(1 0 0 1 175.1327 -10.8627)" class="st2 st3">a</text>
		<text transform="matrix(1 0 0 1 183.1637 -10.8627)" class="st2 st3">r</text>
		<text transform="matrix(1 0 0 1 187.7027 -10.8627)" class="st2 st3">g</text>
		<text transform="matrix(1 0 0 1 196.4839 -10.8627)" class="st2 st3">ins</text>
	</g>
	<g transform="matrix(1,0,0,1,776,1971)">
		<text transform="matrix(1 0 0 1 162.0697 -10.8627)" class="st2 st3">L</text>
		<text transform="matrix(1 0 0 1 170.2257 -10.8627)" class="st2 st3">e</text>
		<text transform="matrix(1 0 0 1 178.4211 -10.8627)" class="st2 st3">ading and tr</text>
		<text transform="matrix(1 0 0 1 257.2966 -10.8627)" class="st2 st3">a</text>
		<text transform="matrix(1 0 0 1 265.3279 -10.8627)" class="st2 st3">iling mar</text>
		<text transform="matrix(1 0 0 1 321.1007 -10.8627)" class="st2 st3">g</text>
		<text transform="matrix(1 0 0 1 329.882 -10.8627)" class="st2 st3">ins on the left and right side of each symbol</text>
	</g>
	<g transform="matrix(1,0,0,1,776,1989)">
		<text transform="matrix(1 0 0 1 162.0697 -10.8627)" class="st2 st3">can be adjust</text>
		<text transform="matrix(1 0 0 1 250.7968 -10.8627)" class="st2 st3">e</text>
		<text transform="matrix(1 0 0 1 258.9919 -10.8627)" class="st2 st3">d b</text>
		<text transform="matrix(1 0 0 1 279.6787 -10.8627)" class="st2 st3">y</text>
		<text transform="matrix(1 0 0 1 287.4601 -10.8627)" class="st2 st3"> modifying the x</text>
		<text transform="matrix(1 0 0 1 392.7727 -10.8627)" class="st2 st3">-</text>
		<text transform="matrix(1 0 0 1 399.6321 -10.8627)" class="st2 st3">location of the mar</text>
		<text transform="matrix(1 0 0 1 522.7339 -10.8627)" class="st2 st3">g</text>
		<text transform="matrix(1 0 0 1 531.515 -10.8627)" class="st2 st3">in guidelines.</text>
	</g>
	<g transform="matrix(1,0,0,1,776,2007)">
		<text transform="matrix(1 0 0 1 162.0697 -10.8627)" class="st2 st3">Modifications ar</text>
		<text transform="matrix(1 0 0 1 268.5537 -10.8627)" class="st2 st3">e</text>
		<text transform="matrix(1 0 0 1 276.7491 -10.8627)" class="st2 st3"> aut</text>
		<text transform="matrix(1 0 0 1 301.0776 -10.8627)" class="st2 st3">o</text>
		<text transform="matrix(1 0 0 1 309.5698 -10.8627)" class="st2 st3">matically applied pr</text>
		<text transform="matrix(1 0 0 1 438.0469 -10.8627)" class="st2 st3">o</text>
		<text transform="matrix(1 0 0 1 446.5391 -10.8627)" class="st2 st3">portionally t</text>
		<text transform="matrix(1 0 0 1 523.9995 -10.8627)" class="st2 st3">o</text>
		<text transform="matrix(1 0 0 1 532.4918 -10.8627)" class="st2 st3"> all</text>
	</g>
	<g transform="matrix(1,0,0,1,776,2025)">
		<text transform="matrix(1 0 0 1 162.0697 -10.8627)" class="st2 st3">scales and weights.</text>
	</g>
	<g transform="matrix(1,0,0,1,1289,1933)">
		<path d="M164.9-9l1.7,1.7c0.9,0.9,1.8,0.8,2.8-0.2l10.2-11.3c0.3,0.1,0.5,0.1,0.9,0l1-0.1l0.7,0.7v0.6c0,0.5,0.1,0.9,0.6,1.4
			l0.8,0.7c0.5,0.5,1.1,0.5,1.6,0l2.9-2.9c0.5-0.5,0.4-1.1,0-1.5l-1-0.9c-0.5-0.5-0.8-0.6-1.3-0.6h-0.6l-0.6-0.6l0.2-1.1
			c0.1-0.6,0-1-0.6-1.6l-2.2-2.2c-3.3-3.3-7.8-3.2-10.7-0.4c-0.4,0.4-0.4,1-0.2,1.4s0.7,0.6,1.3,0.4c1.5-0.3,3-0.4,4.4,0.5l-0.6,1.5
			c-0.2,0.5-0.2,0.9-0.1,1.2l-11,10.5C164.2-10.9,164.1-9.9,164.9-9z M172.9-26.9c2.4-1.8,5.7-1.5,7.9,0.8l2.4,2.4
			c0.2,0.2,0.3,0.4,0.2,0.8l-0.3,1.5l1.5,1.5l1-0.1c0.3,0,0.3,0,0.5,0.2l0.6,0.6l-2.4,2.4l-0.6-0.6c-0.2-0.2-0.2-0.3-0.2-0.5l0.1-1
			l-1.5-1.5l-1.5,0.3c-0.3,0.1-0.5,0-0.7-0.2l-2-2c-0.3-0.2-0.3-0.4-0.1-0.8l0.9-2.1c-1.6-1.5-3.6-2.1-5.6-1.5
			C172.8-26.6,172.7-26.8,172.9-26.9z M167.4-8.6l-1.2-1.2c-0.5-0.4-0.4-0.8,0-1.1l10.9-10.2l1.5,1.5l-10,11
			C168.2-8.2,167.8-8.1,167.4-8.6z"/>
	</g>
	<g transform="matrix(1,0,0,1,1289,1953)">
		<text transform="matrix(1 0 0 1 162.0697 -10.8627)" class="st2 st3">Exporting</text>
	</g>
	<g transform="matrix(1,0,0,1,1289,1971)">
		<text transform="matrix(1 0 0 1 162.0697 -10.8627)" class="st2 st3">Symbols should be outlined when e</text>
		<text transform="matrix(1 0 0 1 397.3588 -10.8627)" class="st2 st3">x</text>
		<text transform="matrix(1 0 0 1 404.8511 -10.8627)" class="st2 st3">porting t</text>
		<text transform="matrix(1 0 0 1 460.2577 -10.8627)" class="st2 st3">o</text>
		<text transform="matrix(1 0 0 1 468.7499 -10.8627)" class="st2 st3"> ensur</text>
		<text transform="matrix(1 0 0 1 509.0697 -10.8627)" class="st2 st3">e</text>
		<text transform="matrix(1 0 0 1 517.265 -10.8627)" class="st2 st3"> the</text>
	</g>
	<g transform="matrix(1,0,0,1,1289,1989)">
		<text transform="matrix(1 0 0 1 162.0697 -10.8627)" class="st2 st3">design is pr</text>
		<text transform="matrix(1 0 0 1 237.7107 -10.8627)" class="st2 st3">e</text>
		<text transform="matrix(1 0 0 1 245.906 -10.8627)" class="st2 st3">serv</text>
		<text transform="matrix(1 0 0 1 273.8896 -10.8627)" class="st2 st3">e</text>
		<text transform="matrix(1 0 0 1 282.085 -10.8627)" class="st2 st3">d when submitting t</text>
		<text transform="matrix(1 0 0 1 413.1007 -10.8627)" class="st2 st3">o</text>
		<text transform="matrix(1 0 0 1 421.5929 -10.8627)" class="st2 st3"> X</text>
		<text transform="matrix(1 0 0 1 434.4838 -10.8627)" class="st2 st3">c</text>
		<text transform="matrix(1 0 0 1 442.4994 -10.8627)" class="st2 st3">ode.</text>
	</g>
	<g id="template-version" transform="matrix(1,0,0,1,3036,1933)">
		<text transform="matrix(1 0 0 1 65.4995 -10.8627)" class="st2 st3">T</text>
		<text transform="matrix(1 0 0 1 72.6865 -10.8627)" class="st2 st3">e</text>
		<text transform="matrix(1 0 0 1 80.8821 -10.8627)" class="st2 st3">mplat</text>
		<text transform="matrix(1 0 0 1 118.4055 -10.8627)" class="st2 st3">e</text>
		<text transform="matrix(1 0 0 1 126.6011 -10.8627)" class="st2 st3"> v</text>
		<text transform="matrix(1 0 0 1 136.4365 -10.8627)" class="st2 st3">.</text>
		<text transform="matrix(1 0 0 1 139.874 -10.8627)" class="st2 st3">2.0</text>
	</g>
	<g transform="matrix(1,0,0,1,3036,1951)">
		<text transform="matrix(1 0 0 1 -29.5244 -10.8627)" class="st2 st3">Requir</text>
		<text transform="matrix(1 0 0 1 13.3037 -10.8627)" class="st2 st3">e</text>
		<text transform="matrix(1 0 0 1 21.4988 -10.8627)" class="st2 st3">s X</text>
		<text transform="matrix(1 0 0 1 41.8357 -10.8627)" class="st2 st3">c</text>
		<text transform="matrix(1 0 0 1 49.8513 -10.8627)" class="st2 st3">ode 12 or gr</text>
		<text transform="matrix(1 0 0 1 128.1316 -10.8627)" class="st2 st3">e</text>
		<text transform="matrix(1 0 0 1 136.3269 -10.8627)" class="st2 st3">at</text>
		<text transform="matrix(1 0 0 1 148.9448 -10.8627)" class="st2 st3">e</text>
		<text transform="matrix(1 0 0 1 157.1399 -10.8627)" class="st2 st3">r</text>
	</g>
	<g transform="matrix(1,0,0,1,3036,1969)">
		<text transform="matrix(1 0 0 1 -25.1721 -10.8627)" class="st2 st3">Gener</text>
		<text transform="matrix(1 0 0 1 15.7256 -10.8627)" class="st2 st3">a</text>
		<text transform="matrix(1 0 0 1 23.7566 -10.8627)" class="st2 st3">t</text>
		<text transform="matrix(1 0 0 1 28.3428 -10.8627)" class="st2 st3">e</text>
		<text transform="matrix(1 0 0 1 36.5381 -10.8627)" class="st2 st3">d fr</text>
		<text transform="matrix(1 0 0 1 58.0779 -10.8627)" class="st2 st3">o</text>
		<text transform="matrix(1 0 0 1 66.5698 -10.8627)" class="st2 st3">m xmark.</text>
		<text transform="matrix(1 0 0 1 126.7417 -10.8627)" class="st2 st3">c</text>
		<text transform="matrix(1 0 0 1 134.7573 -10.8627)" class="st2 st3">ir</text>
		<text transform="matrix(1 0 0 1 142.5928 -10.8627)" class="st2 st3">c</text>
		<text transform="matrix(1 0 0 1 150.6084 -10.8627)" class="st2 st3">le</text>
	</g>
	<g transform="matrix(1,0,0,1,3036,1987)">
		<text transform="matrix(1 0 0 1 18.9529 -10.8627)" class="st2 st3">T</text>
		<text transform="matrix(1 0 0 1 26.3745 -10.8627)" class="st2 st3">y</text>
		<text transform="matrix(1 0 0 1 34.156 -10.8627)" class="st2 st3">peset at 100 points</text>
	</g>
	<g transform="matrix(1,0,0,1,263,726)">
		<text transform="matrix(1 0 0 1 162.0697 -10.8627)" class="st2 st3">Small</text>
	</g>
	<g transform="matrix(1,0,0,1,263,1156)">
		<text transform="matrix(1 0 0 1 162.0697 -10.8627)" class="st2 st3">Medium</text>
	</g>
	<g transform="matrix(1,0,0,1,263,1586)">
		<text transform="matrix(1 0 0 1 162.0697 -10.8627)" class="st2 st3">Lar</text>
		<text transform="matrix(1 0 0 1 183.0306 -10.8627)" class="st2 st3">g</text>
		<text transform="matrix(1 0 0 1 191.8119 -10.8627)" class="st2 st3">e</text>
	</g>
</g>
<g id="Guides">
	<g id="H-reference" transform="matrix(1,0,0,1,339,696)">
		<path class="st5" d="M1,0h2.7L13-24.5h32.8L55.1,0h2.6L30.6-70.5h-2.5L1,0z M29.3-67.1L29.3-67.1l15.5,40.4h-31L29.3-67.1z"/>
	</g>
	<path id="Baseline-S" class="st6" d="M263,696h2773"/>
	<path id="Capline-S" class="st6" d="M263,625.5h2773"/>
	<g id="H-reference1" transform="matrix(1,0,0,1,339,1126)" serif:id="H-reference">
		<path class="st5" d="M1,0h2.7L13-24.5h32.8L55.1,0h2.6L30.6-70.5h-2.5L1,0z M29.3-67.1L29.3-67.1l15.5,40.4h-31L29.3-67.1z"/>
	</g>
	<path id="Baseline-M" class="st6" d="M263,1126h2773"/>
	<path id="Capline-M" class="st6" d="M263,1055.5h2773"/>
	<g id="H-reference2" transform="matrix(1,0,0,1,339,1556)" serif:id="H-reference">
		<path class="st5" d="M1,0h2.7L13-24.5h32.8L55.1,0h2.6L30.6-70.5h-2.5L1,0z M29.3-67.1L29.3-67.1l15.5,40.4h-31L29.3-67.1z"/>
	</g>
	<path id="Baseline-L" class="st6" d="M263,1556h2773"/>
	<path id="Capline-L" class="st6" d="M263,1485.5h2773"/>
	<path id="left-margin" class="st4" d="M1391.3,1030.8v119.3"/>
	<path id="right-margin" class="st4" d="M1508.4,1030.8v119.3"/>
</g>
<g id="Symbols">
	<g id="Black-L">
		<path class="st7" d="M2938.3,1486.6c-23.7,0-43,19.1-43,42.9c0,23.6,19.3,42.9,43,42.9s43-19.3,43-42.9
			C2981.3,1505.7,2962,1486.6,2938.3,1486.6z M2938.3,1507.5c12.1,0,22,9.9,22,21.9c0,12.1-9.9,21.8-22,21.8s-22-9.7-22-21.8
			C2916.3,1517.4,2926.1,1507.5,2938.3,1507.5z"/>
	</g>
	<g id="Heavy-L">
		<path class="st7" d="M2641.6,1487c-23.5,0-42.5,19-42.5,42.4c0,23.3,19,42.3,42.5,42.3s42.5-19,42.5-42.3
			C2684.1,1506,2665,1487,2641.6,1487z M2641.6,1507c12.4,0,22.5,10,22.5,22.4s-10.1,22.2-22.5,22.2s-22.5-9.9-22.5-22.2
			C2619.1,1517.1,2629.2,1507,2641.6,1507z"/>
	</g>
	<g id="Bold-L">
		<path class="st7" d="M2344.9,1487.5c-23.2,0-42,18.8-42,42c0,23.1,18.8,41.8,42,41.8s42-18.7,42-41.8
			C2386.9,1506.3,2368.1,1487.5,2344.9,1487.5z M2344.9,1506.5c12.7,0,23,10.3,23,23c0,12.5-10.3,22.8-23,22.8s-23-10.3-23-22.8
			C2321.9,1516.8,2332.2,1506.5,2344.9,1506.5z"/>
	</g>
	<g id="Semibold-L">
		<path class="st7" d="M2048.1,1488c-22.9,0-41.5,18.6-41.5,41.4s18.6,41.4,41.5,41.4c22.9,0,41.5-18.6,41.5-41.4
			C2089.7,1506.6,2071.1,1488,2048.1,1488z M2048.1,1506c13,0,23.5,10.5,23.5,23.4c0,12.8-10.5,23.3-23.5,23.3s-23.5-10.5-23.5-23.3
			C2024.7,1516.5,2035.2,1506,2048.1,1506z"/>
	</g>
	<g id="Medium-L">
		<path class="st7" d="M1751.5,1488.5c-22.6,0-41,18.4-41,40.9s18.4,40.8,41,40.8s41-18.3,41-40.8S1774.1,1488.5,1751.5,1488.5z
			 M1751.5,1505.6c13.2,0,24,10.6,24,23.9c0,13.1-10.8,23.9-24,23.9s-24-10.7-24-23.9C1727.5,1516.2,1738.2,1505.6,1751.5,1505.6z"
			/>
	</g>
	<g id="Regular-L">
		<path class="st7" d="M1454.8,1489.1c-22.4,0-40.5,18-40.5,40.3c0,22.2,18.1,40.3,40.5,40.3s40.5-18.1,40.5-40.3
			C1495.3,1507,1477.1,1489.1,1454.8,1489.1z M1454.8,1505c13.5,0,24.5,10.9,24.5,24.4c0,13.4-11,24.3-24.5,24.3
			s-24.5-10.9-24.5-24.3C1430.3,1515.9,1441.2,1505,1454.8,1505z"/>
	</g>
	<g id="Light-L">
		<path class="st7" d="M1158,1489.5c-22.1,0-40,17.8-40,39.9c0,21.9,17.9,39.8,40,39.8s40-17.8,40-39.8
			C1198,1507.3,1180.1,1489.5,1158,1489.5z M1158,1504.5c13.8,0,25,11,25,24.9c0,13.7-11.2,24.9-25,24.9s-25-11.2-25-24.9
			C1133,1515.6,1144.2,1504.5,1158,1504.5z"/>
	</g>
	<g id="Thin-L">
		<path class="st7" d="M861.3,1490c-21.8,0-39.5,17.7-39.5,39.5c0,21.6,17.7,39.3,39.5,39.3s39.5-17.7,39.5-39.3
			C900.8,1507.6,883.1,1490,861.3,1490z M861.3,1503.9c14.1,0,25.5,11.5,25.5,25.5s-11.4,25.3-25.5,25.3s-25.5-11.3-25.5-25.3
			S847.2,1503.9,861.3,1503.9z"/>
	</g>
	<g id="Ultralight-L">
		<path class="st7" d="M564.6,1490.6c-21.5,0-39,17.4-39,38.9c0,21.4,17.5,38.9,39,38.9s39-17.5,39-38.9
			C603.6,1507.9,586.1,1490.6,564.6,1490.6z M564.6,1503.5c14.3,0,26,11.6,26,25.9s-11.7,25.8-26,25.8s-26-11.5-26-25.8
			S550.3,1503.5,564.6,1503.5z"/>
	</g>
	<g id="Black-M">
		<path class="st7" d="M2938.3,1066.7c-18,0-32.7,14.7-32.7,32.6s14.6,32.5,32.7,32.5c18,0,32.7-14.7,32.7-32.5
			C2970.9,1081.4,2956.3,1066.7,2938.3,1066.7z M2938.3,1087.7c6.4,0,11.7,5.2,11.7,11.6c0,6.3-5.2,11.5-11.7,11.5
			c-6.4,0-11.7-5.2-11.7-11.5C2926.6,1092.9,2931.9,1087.7,2938.3,1087.7z"/>
	</g>
	<g id="Heavy-M">
		<path class="st7" d="M2641.6,1067.2c-17.8,0-32.2,14.5-32.2,32.1s14.4,32,32.2,32s32.2-14.4,32.2-32S2659.4,1067.2,2641.6,1067.2z
			 M2641.6,1087.2c6.7,0,12.2,5.4,12.2,12.1c0,6.6-5.5,12-12.2,12s-12.2-5.4-12.2-12C2629.4,1092.6,2634.9,1087.2,2641.6,1087.2z"/>
	</g>
	<g id="Bold-M">
		<path class="st7" d="M2344.9,1067.7c-17.5,0-31.7,14.2-31.7,31.6s14.2,31.5,31.7,31.5s31.7-14.2,31.7-31.5
			C2376.6,1081.9,2362.4,1067.7,2344.9,1067.7z M2344.9,1086.7c7,0,12.7,5.6,12.7,12.7c0,6.9-5.7,12.5-12.7,12.5
			s-12.7-5.6-12.7-12.5C2332.2,1092.3,2337.9,1086.7,2344.9,1086.7z"/>
	</g>
	<g id="Semibold-M">
		<path class="st7" d="M2048.2,1068.2c-17.2,0-31.2,14-31.2,31.1s13.9,31,31.2,31c17.2,0,31.2-14,31.2-31
			C2079.3,1082.2,2065.4,1068.2,2048.2,1068.2z M2048.2,1086.3c7.3,0,13.2,5.8,13.2,13s-5.9,13.1-13.2,13.1
			c-7.2,0-13.2-5.8-13.2-13.1C2035,1092.1,2040.9,1086.3,2048.2,1086.3z"/>
	</g>
	<g id="Medium-M">
		<path class="st7" d="M1751.5,1068.7c-16.9,0-30.7,13.8-30.7,30.6c0,16.9,13.7,30.5,30.7,30.5c16.9,0,30.7-13.7,30.7-30.5
			C1782.1,1082.5,1768.4,1068.7,1751.5,1068.7z M1751.5,1085.8c7.5,0,13.7,6,13.7,13.6c0,7.4-6.1,13.6-13.7,13.6
			c-7.5,0-13.7-6.1-13.7-13.6C1737.8,1091.8,1743.9,1085.8,1751.5,1085.8z"/>
	</g>
	<g id="Regular-M">
		<g>
			<g>
				<path class="st8" d="M1458.2,1108.2h-30.7v9.3c4.7,0,30.7,0,30.7,0V1108.2z"/>
				<rect x="1441.4" y="1072" class="st8" width="15.4" height="9.3"/>
				<path class="st9" d="M1409.8,1122.3c4.8,7.7,13.2,13,22.9,13.3v-9.4c-5.3-0.2-10.1-2.8-13.3-6.6
					C1416.4,1120.9,1413.2,1121.8,1409.8,1122.3z"/>
				<path class="st9" d="M1404.7,1104.5c-10.3,0-18.7-8.4-18.7-18.7c0-10.3,8.4-18.7,18.7-18.7s18.7,8.4,18.7,18.7
					C1423.4,1096.2,1415,1104.5,1404.7,1104.5z M1404.8,1057.8c-15.4,0-28,12.5-28,28c0,15.4,12.5,28,28,28c15.4,0,28-12.5,28-28
					C1432.8,1070.4,1420.2,1057.8,1404.8,1057.8z"/>
				<path class="st8" d="M1441.4,1099.3h29v-9.3c-4.5,0-29,0-29,0V1099.3z"/>
				<rect x="1442.9" y="1126.3" class="st8" width="15.4" height="9.3"/>
				<path class="st9" d="M1489.9,1085.3c-4.8-7.7-13.2-13-22.9-13.3v9.3c5.3,0.2,10.1,2.8,13.3,6.6
					C1483.3,1086.6,1486.5,1085.7,1489.9,1085.3z"/>
				<path class="st9" d="M1495,1103c10.3,0,18.7,8.4,18.7,18.7c0,10.3-8.4,18.7-18.7,18.7s-18.7-8.4-18.7-18.7
					C1476.3,1111.4,1484.7,1103,1495,1103z M1494.9,1149.7c15.4,0,28-12.5,28-28c0-15.4-12.5-28-28-28c-15.4,0-28,12.5-28,28
					C1466.9,1137.1,1479.5,1149.7,1494.9,1149.7z"/>
			</g>
			<g>
				<path class="st10" d="M1489.6,1097.5c5.5,0,10,4.5,10,10s-4.5,10-10,10c-5.5,0-10-4.5-10-10S1484.1,1097.5,1489.6,1097.5z
					 M1489.6,1088c-10.8,0-19.5,8.8-19.5,19.5c0,10.8,8.8,19.5,19.5,19.5c10.8,0,19.5-8.8,19.5-19.5
					C1509.1,1096.7,1500.4,1088,1489.6,1088z"/>
				<path class="st11" d="M1438.5,1083.9c0,0,25.7,0,30.4,0v9.2h-30.4V1083.9z"/>
				<g>
					<path class="st10" d="M1477,1081.5c-3.2-3.8-7.9-6.3-13.2-6.6v-9.3c9.6,0.3,17.9,5.5,22.7,13.1
						C1483.1,1079.3,1479.9,1080.2,1477,1081.5z"/>
				</g>
				<rect x="1438.4" y="1065.7" class="st11" width="15.2" height="9.2"/>
				<path class="st10" d="M1412.5,1097.6c-5.5,0-10-4.5-10-10s4.5-10,10-10c5.5,0,10,4.5,10,10S1418.1,1097.6,1412.5,1097.6z
					 M1412.5,1107.1c10.8,0,19.5-8.8,19.5-19.5c0-10.8-8.8-19.5-19.5-19.5c-10.8,0-19.5,8.8-19.5,19.5
					C1393,1098.4,1401.8,1107.1,1412.5,1107.1z"/>
				<path class="st11" d="M1463.7,1111.3c0,0-25.7,0-30.4,0v-9.2h30.4V1111.3z"/>
				<path class="st10" d="M1425.2,1113.6c3.2,3.8,7.9,6.3,13.2,6.6v9.3c-9.6-0.3-17.9-5.5-22.7-13.1
					C1419,1115.8,1422.2,1114.9,1425.2,1113.6z"/>
				<rect x="1448.5" y="1120.2" class="st11" width="15.3" height="9.2"/>
			</g>
			<rect x="1391.3" y="1045.9" class="st11" width="117.1" height="13.2"/>
		</g>
	</g>
	<g id="Light-M">
		<path class="st7" d="M1158,1069.7c-16.4,0-29.7,13.3-29.7,29.6c0,16.3,13.3,29.5,29.7,29.5c16.4,0,29.7-13.3,29.7-29.5
			C1187.7,1083,1174.4,1069.7,1158,1069.7z M1158,1084.8c8.1,0,14.7,6.5,14.7,14.6c0,8-6.6,14.6-14.7,14.6s-14.7-6.5-14.7-14.6
			C1143.4,1091.3,1150,1084.8,1158,1084.8z"/>
	</g>
	<g id="Thin-M">
		<path class="st7" d="M861.3,1070.2c-16.1,0-29.2,13.1-29.2,29.1s13.1,29,29.2,29c16.1,0,29.2-13.1,29.2-29
			C890.5,1083.3,877.4,1070.2,861.3,1070.2z M861.3,1084.3c8.4,0,15.2,6.7,15.2,15.1c0,8.2-6.8,15.1-15.2,15.1s-15.2-6.8-15.2-15.1
			C846.2,1091,853,1084.3,861.3,1084.3z"/>
	</g>
	<g id="Ultralight-M">
		<path class="st7" d="M564.6,1070.7c-15.8,0-28.7,12.9-28.7,28.6c0,15.8,12.8,28.5,28.7,28.5c15.8,0,28.7-12.8,28.7-28.5
			S580.4,1070.7,564.6,1070.7z M564.6,1083.8c8.6,0,15.7,6.9,15.7,15.6c0,8.5-7,15.6-15.7,15.6c-8.6,0-15.7-7-15.7-15.6
			C549,1090.7,556,1083.8,564.6,1083.8z"/>
	</g>
	<g id="Black-S">
		<path class="st7" d="M2938.3,641.2c-15.5,0-28,12.5-28,28c0,15.4,12.5,27.9,28,27.9s28-12.5,28-27.9
			C2966.3,653.7,2953.7,641.2,2938.3,641.2z M2938.3,662.2c3.9,0,7,3.1,7,7c0,3.8-3.2,6.9-7,6.9s-7-3.1-7-6.9
			C2931.3,665.3,2934.4,662.2,2938.3,662.2z"/>
	</g>
	<g id="Heavy-S">
		<path class="st7" d="M2641.6,641.7c-15.2,0-27.5,12.3-27.5,27.4c0,15.1,12.3,27.4,27.5,27.4s27.5-12.4,27.5-27.4
			C2669.1,654,2656.8,641.7,2641.6,641.7z M2641.6,661.7c4.1,0,7.5,3.3,7.5,7.5c0,4-3.4,7.4-7.5,7.4s-7.5-3.3-7.5-7.4
			S2637.5,661.7,2641.6,661.7z"/>
	</g>
	<g id="Bold-S">
		<path class="st7" d="M2344.9,642.2c-14.9,0-27,12.1-27,27c0,14.8,12.1,26.9,27,26.9s27-12.1,27-26.9
			C2371.9,654.3,2359.8,642.2,2344.9,642.2z M2344.9,661.3c4.4,0,8,3.5,8,7.9s-3.6,7.9-8,7.9s-8-3.6-8-7.9
			C2336.9,664.7,2340.5,661.3,2344.9,661.3z"/>
	</g>
	<g id="Semibold-S">
		<path class="st7" d="M2048.2,642.7c-14.6,0-26.5,11.9-26.5,26.5s11.9,26.4,26.5,26.4c14.6,0,26.5-11.8,26.5-26.4
			S2062.8,642.7,2048.2,642.7z M2048.2,660.7c4.7,0,8.5,3.8,8.5,8.5c0,4.6-3.8,8.4-8.5,8.4s-8.5-3.8-8.5-8.4
			C2039.7,664.5,2043.5,660.7,2048.2,660.7z"/>
	</g>
	<g id="Medium-S">
		<path class="st7" d="M1751.5,643.3c-14.4,0-26,11.6-26,25.9c0,14.3,11.6,25.9,26,25.9s26-11.7,26-25.9
			C1777.5,654.8,1765.8,643.3,1751.5,643.3z M1751.5,660.2c5,0,9,4,9,9c0,4.9-4,8.9-9,8.9s-9-4-9-8.9
			C1742.5,664.2,1746.5,660.2,1751.5,660.2z"/>
	</g>
	<g id="Regular-S">
		<path class="st7" d="M1454.8,643.7c-14.1,0-25.5,11.4-25.5,25.5c0,14,11.4,25.4,25.5,25.4s25.5-11.4,25.5-25.4
			C1480.3,655.1,1468.8,643.7,1454.8,643.7z M1454.8,659.7c5.2,0,9.5,4.2,9.5,9.4s-4.3,9.4-9.5,9.4s-9.5-4.3-9.5-9.4
			C1445.3,663.9,1449.5,659.7,1454.8,659.7z"/>
	</g>
	<g id="Light-S">
		<path class="st7" d="M1158,644.2c-13.8,0-25,11.2-25,25c0,13.7,11.2,24.9,25,24.9s25-11.2,25-24.9
			C1183,655.4,1171.8,644.2,1158,644.2z M1158,659.2c5.5,0,10,4.4,10,10c0,5.5-4.5,9.9-10,9.9s-10-4.4-10-9.9
			C1148,663.6,1152.5,659.2,1158,659.2z"/>
	</g>
	<g id="Thin-S">
		<path class="st7" d="M861.3,644.8c-13.5,0-24.5,10.9-24.5,24.4s11,24.4,24.5,24.4s24.5-10.9,24.5-24.4S874.9,644.8,861.3,644.8z
			 M861.3,658.7c5.8,0,10.5,4.7,10.5,10.5c0,5.7-4.7,10.4-10.5,10.4s-10.5-4.7-10.5-10.4C850.8,663.4,855.5,658.7,861.3,658.7z"/>
	</g>
	<g id="Ultralight-S">
		<path class="st7" d="M564.6,645.2c-13.2,0-24,10.7-24,23.9s10.7,23.9,24,23.9s24-10.7,24-23.9S577.9,645.2,564.6,645.2z
			 M564.6,658.2c6.1,0,11,4.9,11,10.9s-4.9,10.9-11,10.9s-11-4.9-11-10.9S558.6,658.2,564.6,658.2z"/>
	</g>
</g>
</svg>
