<?xml version="1.0" encoding="UTF-8" standalone="no"?>
<!DOCTYPE svg PUBLIC "-//W3C//DTD SVG 1.1//EN" "http://www.w3.org/Graphics/SVG/1.1/DTD/svg11.dtd">
<svg width="100%" height="100%" viewBox="0 0 3300 2200" version="1.1" xmlns="http://www.w3.org/2000/svg" xmlns:xlink="http://www.w3.org/1999/xlink" xml:space="preserve" xmlns:serif="http://www.serif.com/" style="fill-rule:evenodd;clip-rule:evenodd;">
    <g id="Notes">
        <g id="artboard" transform="matrix(1,0,0,1,0,1.31276)">
            <rect x="0" y="0" width="3300" height="2200" style="fill:white;"/>
        </g>
        <path d="M263,292L3036,292" style="fill:none;fill-rule:nonzero;stroke:black;stroke-width:0.5px;"/>
        <g transform="matrix(1,0,0,1,263,322)">
            <text x="0px" y="0px" style="font-family:'SFProDisplay-Regular', 'SF Pro Display';font-size:16px;">W<tspan x="13.922px " y="0px ">e</tspan>ight/Scale V<tspan x="101.313px " y="0px ">a</tspan>riations</text>
        </g>
        <g transform="matrix(1,0,0,1,559.711,322)">
            <text x="-30.41px" y="0px" style="font-family:'SFProDisplay-Regular', 'SF Pro Display';font-size:16px;">Ultr<tspan x="-6.41px " y="0px ">a</tspan>light</text>
        </g>
        <g transform="matrix(1,0,0,1,856.422,322)">
            <text x="-14.824px" y="0px" style="font-family:'SFProDisplay-Regular', 'SF Pro Display';font-size:16px;">Thin</text>
        </g>
        <g transform="matrix(1,0,0,1,1153.13,322)">
            <text x="-16.957px" y="0px" style="font-family:'SFProDisplay-Regular', 'SF Pro Display';font-size:16px;">Light</text>
        </g>
        <g transform="matrix(1,0,0,1,1449.84,322)">
            <text x="-25.609px" y="0px" style="font-family:'SFProDisplay-Regular', 'SF Pro Display';font-size:16px;">Regular</text>
        </g>
        <g transform="matrix(1,0,0,1,1746.56,322)">
            <text x="-27.465px" y="0px" style="font-family:'SFProDisplay-Regular', 'SF Pro Display';font-size:16px;">Medium</text>
        </g>
        <g transform="matrix(1,0,0,1,2043.27,322)">
            <text x="-31.656px" y="0px" style="font-family:'SFProDisplay-Regular', 'SF Pro Display';font-size:16px;">Semibold</text>
        </g>
        <g transform="matrix(1,0,0,1,2339.98,322)">
            <text x="-15.145px" y="0px" style="font-family:'SFProDisplay-Regular', 'SF Pro Display';font-size:16px;">Bold</text>
        </g>
        <g transform="matrix(1,0,0,1,2636.69,322)">
            <text x="-21.461px" y="0px" style="font-family:'SFProDisplay-Regular', 'SF Pro Display';font-size:16px;">Heavy</text>
        </g>
        <g transform="matrix(1,0,0,1,2933.4,322)">
            <text x="-18.375px" y="0px" style="font-family:'SFProDisplay-Regular', 'SF Pro Display';font-size:16px;">Black</text>
        </g>
        <path d="M263,1903L3036,1903" style="fill:none;fill-rule:nonzero;stroke:black;stroke-width:0.5px;"/>
        <g transform="matrix(1,0,0,1,263,1933)">
            <path d="M9.248,0.83C13.555,0.83 17.139,-2.744 17.139,-7.051C17.139,-11.357 13.545,-14.932 9.238,-14.932C4.941,-14.932 1.367,-11.357 1.367,-7.051C1.367,-2.744 4.951,0.83 9.248,0.83ZM9.248,-0.654C5.703,-0.654 2.871,-3.496 2.871,-7.051C2.871,-10.605 5.693,-13.447 9.238,-13.447C12.793,-13.447 15.635,-10.605 15.645,-7.051C15.654,-3.496 12.803,-0.654 9.248,-0.654ZM6.396,-6.318L8.506,-6.318L8.506,-4.199C8.506,-3.76 8.799,-3.457 9.229,-3.457C9.678,-3.457 9.971,-3.76 9.971,-4.199L9.971,-6.318L12.1,-6.318C12.539,-6.318 12.842,-6.611 12.842,-7.041C12.842,-7.48 12.539,-7.783 12.1,-7.783L9.971,-7.783L9.971,-9.893C9.971,-10.342 9.678,-10.645 9.229,-10.645C8.799,-10.645 8.506,-10.342 8.506,-9.893L8.506,-7.783L6.396,-7.783C5.947,-7.783 5.645,-7.48 5.645,-7.041C5.645,-6.611 5.947,-6.318 6.396,-6.318Z" style="fill-rule:nonzero;"/>
        </g>
        <g transform="matrix(1,0,0,1,281.506,1933)">
            <path d="M11.709,2.91C17.158,2.91 21.67,-1.611 21.67,-7.051C21.67,-12.5 17.148,-17.012 11.699,-17.012C6.26,-17.012 1.748,-12.5 1.748,-7.051C1.748,-1.611 6.27,2.91 11.709,2.91ZM11.709,1.25C7.1,1.25 3.418,-2.441 3.418,-7.051C3.418,-11.66 7.09,-15.352 11.699,-15.352C16.309,-15.352 20,-11.66 20.01,-7.051C20.02,-2.441 16.318,1.25 11.709,1.25ZM7.988,-6.23L10.879,-6.23L10.879,-3.32C10.879,-2.832 11.211,-2.5 11.69,-2.5C12.178,-2.5 12.52,-2.832 12.52,-3.32L12.52,-6.23L15.43,-6.23C15.918,-6.23 16.25,-6.563 16.25,-7.041C16.25,-7.529 15.918,-7.871 15.43,-7.871L12.52,-7.871L12.52,-10.762C12.52,-11.27 12.178,-11.602 11.69,-11.602C11.211,-11.602 10.879,-11.26 10.879,-10.762L10.879,-7.871L7.988,-7.871C7.48,-7.871 7.148,-7.529 7.148,-7.041C7.148,-6.563 7.49,-6.23 7.988,-6.23Z" style="fill-rule:nonzero;"/>
        </g>
        <g transform="matrix(1,0,0,1,304.924,1933)">
            <path d="M14.971,5.664C21.934,5.664 27.695,-0.098 27.695,-7.051C27.695,-14.014 21.924,-19.775 14.961,-19.775C8.008,-19.775 2.256,-14.014 2.256,-7.051C2.256,-0.098 8.018,5.664 14.971,5.664ZM14.971,3.848C8.936,3.848 4.082,-1.016 4.082,-7.051C4.082,-13.096 8.926,-17.949 14.961,-17.949C21.006,-17.949 25.859,-13.096 25.869,-7.051C25.879,-1.016 21.016,3.848 14.971,3.848ZM10.059,-6.143L14.063,-6.143L14.063,-2.129C14.063,-1.592 14.434,-1.221 14.951,-1.221C15.488,-1.221 15.859,-1.592 15.859,-2.129L15.859,-6.143L19.883,-6.143C20.41,-6.143 20.791,-6.514 20.791,-7.031C20.791,-7.568 20.42,-7.949 19.883,-7.949L15.859,-7.949L15.859,-11.953C15.859,-12.51 15.488,-12.881 14.951,-12.881C14.434,-12.881 14.063,-12.5 14.063,-11.953L14.063,-7.949L10.059,-7.949C9.502,-7.949 9.131,-7.568 9.131,-7.031C9.131,-6.514 9.512,-6.143 10.059,-6.143Z" style="fill-rule:nonzero;"/>
        </g>
        <g transform="matrix(1,0,0,1,263,1953)">
            <text x="0px" y="0px" style="font-family:'SFProDisplay-Regular', 'SF Pro Display';font-size:16px;">Design V<tspan x="59.211px " y="0px ">a</tspan>riations</text>
        </g>
        <g transform="matrix(1,0,0,1,263,1971)">
            <text x="0px" y="0px" style="font-family:'SFProDisplay-Regular', 'SF Pro Display';font-size:16px;">Symbols ar<tspan x="74.039px " y="0px ">e</tspan> support<tspan x="136.977px " y="0px ">e</tspan>d in up t<tspan x="197.406px " y="0px ">o</tspan> nine weights and thr<tspan x="343.289px " y="0px ">e</tspan>e scales.</text>
        </g>
        <g transform="matrix(1,0,0,1,263,1989)">
            <text x="0px" y="0px" style="font-family:'SFProDisplay-Regular', 'SF Pro Display';font-size:16px;">F<tspan x="8.133px " y="0px ">o</tspan>r optimal lay<tspan x="96.43px " y="0px ">o</tspan>ut with t<tspan x="157.508px 165.547px " y="0px 0px ">ex</tspan>t and other symbols,<tspan x="306.883px 310.164px 317.578px " y="0px 0px 0px "> ve</tspan>rtically align</text>
        </g>
        <g transform="matrix(1,0,0,1,263,2007)">
            <text x="0px" y="0px" style="font-family:'SFProDisplay-Regular', 'SF Pro Display';font-size:16px;">symbols with the adjacent t<tspan x="181.344px 189.383px " y="0px 0px ">ex</tspan>t.</text>
        </g>
        <path d="M776,1919L776,1933" style="fill:none;fill-rule:nonzero;stroke:rgb(0,174,239);stroke-width:0.5px;"/>
        <g transform="matrix(1,0,0,1,776,1933)">
            <path d="M3.311,0.127C3.828,0.127 4.082,-0.068 4.268,-0.605L5.527,-4.063L11.289,-4.063L12.549,-0.605C12.734,-0.068 12.988,0.127 13.496,0.127C14.014,0.127 14.346,-0.186 14.346,-0.674C14.346,-0.84 14.316,-0.986 14.238,-1.201L9.658,-13.389C9.434,-13.994 9.033,-14.287 8.408,-14.287C7.803,-14.287 7.393,-13.994 7.178,-13.398L2.598,-1.191C2.52,-0.977 2.49,-0.83 2.49,-0.664C2.49,-0.176 2.803,0.127 3.311,0.127ZM6.006,-5.537L8.379,-12.109L8.428,-12.109L10.801,-5.537L6.006,-5.537Z" style="fill-rule:nonzero;"/>
        </g>
        <path d="M792.836,1919L792.836,1933" style="fill:none;fill-rule:nonzero;stroke:rgb(0,174,239);stroke-width:0.5px;"/>
        <g transform="matrix(1,0,0,1,776,1953)">
            <text x="0px" y="0px" style="font-family:'SFProDisplay-Regular', 'SF Pro Display';font-size:16px;">M<tspan x="13.063px 21.094px 25.633px " y="0px 0px 0px ">arg</tspan>ins</text>
        </g>
        <g transform="matrix(1,0,0,1,776,1971)">
            <text x="0px" y="0px" style="font-family:'SFProDisplay-Regular', 'SF Pro Display';font-size:16px;">L<tspan x="8.156px " y="0px ">e</tspan>ading and tr<tspan x="95.227px " y="0px ">a</tspan>iling mar<tspan x="159.031px " y="0px ">g</tspan>ins on the left and right side of each symbol</text>
        </g>
        <g transform="matrix(1,0,0,1,776,1989)">
            <text x="0px" y="0px" style="font-family:'SFProDisplay-Regular', 'SF Pro Display';font-size:16px;">can be adjust<tspan x="88.727px " y="0px ">e</tspan>d b<tspan x="117.609px " y="0px ">y</tspan> modifying the x<tspan x="230.703px " y="0px ">-</tspan>location of the mar<tspan x="360.664px " y="0px ">g</tspan>in guidelines.</text>
        </g>
        <g transform="matrix(1,0,0,1,776,2007)">
            <text x="0px" y="0px" style="font-family:'SFProDisplay-Regular', 'SF Pro Display';font-size:16px;">Modifications ar<tspan x="106.484px " y="0px ">e</tspan> aut<tspan x="139.008px " y="0px ">o</tspan>matically applied pr<tspan x="275.977px " y="0px ">o</tspan>portionally t<tspan x="361.93px " y="0px ">o</tspan> all</text>
        </g>
        <g transform="matrix(1,0,0,1,776,2025)">
            <text x="0px" y="0px" style="font-family:'SFProDisplay-Regular', 'SF Pro Display';font-size:16px;">scales and weights.</text>
        </g>
        <g transform="matrix(1,0,0,1,1289,1933)">
            <path d="M2.842,1.865L4.541,3.574C5.4,4.443 6.387,4.385 7.314,3.359L17.49,-7.852C17.754,-7.764 18.027,-7.783 18.34,-7.842L19.404,-8.037L20.068,-7.363L20.029,-6.807C19.99,-6.309 20.117,-5.928 20.606,-5.449L21.367,-4.707C21.846,-4.229 22.461,-4.199 22.93,-4.668L25.84,-7.588C26.309,-8.057 26.289,-8.652 25.811,-9.131L25.039,-9.893C24.561,-10.371 24.19,-10.527 23.711,-10.488L23.135,-10.44L22.49,-11.074L22.734,-12.197C22.861,-12.764 22.705,-13.203 22.119,-13.789L19.922,-15.977C16.582,-19.297 12.148,-19.219 9.258,-16.328C8.838,-15.918 8.809,-15.342 9.043,-14.951C9.277,-14.59 9.736,-14.355 10.381,-14.522C11.846,-14.863 13.369,-14.922 14.795,-13.984L14.209,-12.529C14.014,-12.051 13.984,-11.65 14.111,-11.289L3.047,-0.898C2.061,0.02 1.982,0.996 2.842,1.865ZM10.752,-15.957C13.184,-17.734 16.475,-17.432 18.701,-15.205L21.133,-12.793C21.367,-12.559 21.406,-12.373 21.338,-12.031L21.016,-10.547L22.52,-9.063L23.506,-9.121C23.76,-9.131 23.838,-9.111 24.033,-8.916L24.609,-8.34L22.168,-5.898L21.592,-6.475C21.397,-6.67 21.367,-6.748 21.377,-7.012L21.445,-7.988L19.951,-9.473L18.428,-9.219C18.106,-9.15 17.959,-9.18 17.715,-9.414L15.713,-11.416C15.459,-11.65 15.43,-11.816 15.586,-12.188L16.465,-14.277C14.902,-15.732 12.871,-16.357 10.84,-15.762C10.684,-15.723 10.625,-15.85 10.752,-15.957ZM5.273,2.305L4.102,1.143C3.633,0.684 3.74,0.342 4.141,-0.02L14.951,-10.195L16.416,-8.711L6.426,2.275C6.074,2.676 5.742,2.773 5.273,2.305Z" style="fill-rule:nonzero;"/>
        </g>
        <g transform="matrix(1,0,0,1,1289,1953)">
            <text x="0px" y="0px" style="font-family:'SFProDisplay-Regular', 'SF Pro Display';font-size:16px;">Exporting</text>
        </g>
        <g transform="matrix(1,0,0,1,1289,1971)">
            <text x="0px" y="0px" style="font-family:'SFProDisplay-Regular', 'SF Pro Display';font-size:16px;">Symbols should be outlined when e<tspan x="235.289px " y="0px ">x</tspan>porting t<tspan x="298.188px " y="0px ">o</tspan> ensur<tspan x="347px " y="0px ">e</tspan> the</text>
        </g>
        <g transform="matrix(1,0,0,1,1289,1989)">
            <text x="0px" y="0px" style="font-family:'SFProDisplay-Regular', 'SF Pro Display';font-size:16px;">design is pr<tspan x="75.641px " y="0px ">e</tspan>serv<tspan x="111.82px " y="0px ">e</tspan>d when submitting t<tspan x="251.031px " y="0px ">o</tspan> X<tspan x="272.414px " y="0px ">c</tspan>ode.</text>
        </g>
        <g id="template-version" transform="matrix(1,0,0,1,3036,1933)">
            <text x="-96.57px" y="0px" style="font-family:'SFProDisplay-Regular', 'SF Pro Display';font-size:16px;">T<tspan x="-89.383px " y="0px ">e</tspan>mplat<tspan x="-43.664px " y="0px ">e</tspan> v<tspan x="-25.633px " y="0px ">.</tspan>2.0</text>
        </g>
        <g transform="matrix(1,0,0,1,3036,1951)">
            <text x="-191.594px" y="0px" style="font-family:'SFProDisplay-Regular', 'SF Pro Display';font-size:16px;">Requir<tspan x="-148.766px " y="0px ">e</tspan>s X<tspan x="-120.234px " y="0px ">c</tspan>ode 12 or gr<tspan x="-33.938px " y="0px ">e</tspan>at<tspan x="-13.125px " y="0px ">e</tspan>r</text>
        </g>
        <g transform="matrix(1,0,0,1,3036,1969)">
            <text x="-187.242px" y="0px" style="font-family:'SFProDisplay-Regular', 'SF Pro Display';font-size:16px;">Gener<tspan x="-146.344px -138.313px -133.727px " y="0px 0px 0px ">ate</tspan>d fr<tspan x="-103.992px " y="0px ">o</tspan>m xmark.<tspan x="-35.328px " y="0px ">c</tspan>ir<tspan x="-19.477px " y="0px ">c</tspan>le</text>
        </g>
        <g transform="matrix(1,0,0,1,3036,1987)">
            <text x="-143.117px" y="0px" style="font-family:'SFProDisplay-Regular', 'SF Pro Display';font-size:16px;">T<tspan x="-135.695px " y="0px ">y</tspan>peset at 100 points</text>
        </g>
        <g transform="matrix(1,0,0,1,263,726)">
            <text x="0px" y="0px" style="font-family:'SFProDisplay-Regular', 'SF Pro Display';font-size:16px;">Small</text>
        </g>
        <g transform="matrix(1,0,0,1,263,1156)">
            <text x="0px" y="0px" style="font-family:'SFProDisplay-Regular', 'SF Pro Display';font-size:16px;">Medium</text>
        </g>
        <g transform="matrix(1,0,0,1,263,1586)">
            <text x="0px" y="0px" style="font-family:'SFProDisplay-Regular', 'SF Pro Display';font-size:16px;">Lar<tspan x="20.961px " y="0px ">g</tspan>e</text>
        </g>
    </g>
    <g id="Guides">
        <g id="H-reference" transform="matrix(1,0,0,1,339,696)">
            <path d="M0.977,0L3.662,0L12.988,-24.463L45.752,-24.463L55.127,0L57.764,0L30.615,-70.459L28.125,-70.459L0.977,0ZM29.346,-67.139L29.443,-67.139L44.873,-26.709L13.867,-26.709L29.346,-67.139Z" style="fill:rgb(39,170,225);fill-rule:nonzero;"/>
        </g>
        <path id="Baseline-S" d="M263,696L3036,696" style="fill:none;fill-rule:nonzero;stroke:rgb(39,170,225);stroke-width:0.5px;"/>
        <path id="Capline-S" d="M263,625.541L3036,625.541" style="fill:none;fill-rule:nonzero;stroke:rgb(39,170,225);stroke-width:0.5px;"/>
        <g id="H-reference1" serif:id="H-reference" transform="matrix(1,0,0,1,339,1126)">
            <path d="M0.977,0L3.662,0L12.988,-24.463L45.752,-24.463L55.127,0L57.764,0L30.615,-70.459L28.125,-70.459L0.977,0ZM29.346,-67.139L29.443,-67.139L44.873,-26.709L13.867,-26.709L29.346,-67.139Z" style="fill:rgb(39,170,225);fill-rule:nonzero;"/>
        </g>
        <path id="Baseline-M" d="M263,1126L3036,1126" style="fill:none;fill-rule:nonzero;stroke:rgb(39,170,225);stroke-width:0.5px;"/>
        <path id="Capline-M" d="M263,1055.54L3036,1055.54" style="fill:none;fill-rule:nonzero;stroke:rgb(39,170,225);stroke-width:0.5px;"/>
        <g id="H-reference2" serif:id="H-reference" transform="matrix(1,0,0,1,339,1556)">
            <path d="M0.977,0L3.662,0L12.988,-24.463L45.752,-24.463L55.127,0L57.764,0L30.615,-70.459L28.125,-70.459L0.977,0ZM29.346,-67.139L29.443,-67.139L44.873,-26.709L13.867,-26.709L29.346,-67.139Z" style="fill:rgb(39,170,225);fill-rule:nonzero;"/>
        </g>
        <path id="Baseline-L" d="M263,1556L3036,1556" style="fill:none;fill-rule:nonzero;stroke:rgb(39,170,225);stroke-width:0.5px;"/>
        <path id="Capline-L" d="M263,1485.54L3036,1485.54" style="fill:none;fill-rule:nonzero;stroke:rgb(39,170,225);stroke-width:0.5px;"/>
        <path id="left-margin" d="M1391.3,1030.79L1391.3,1150.12" style="fill:none;fill-rule:nonzero;stroke:rgb(0,174,239);stroke-width:0.5px;"/>
        <path id="right-margin" d="M1508.39,1030.79L1508.39,1150.12" style="fill:none;fill-rule:nonzero;stroke:rgb(0,174,239);stroke-width:0.5px;"/>
    </g>
    <g id="Symbols">
        <g id="Black-L" transform="matrix(1,0,0,1,2854.05,1556)">
            <path d="M53.822,0.138L72.443,0.138C78.239,0.138 82.943,-4.567 82.943,-10.362C82.943,-16.157 78.239,-20.862 72.443,-20.862L53.822,-20.862C48.027,-20.862 43.322,-16.157 43.322,-10.362C43.322,-4.567 48.027,0.138 53.822,0.138ZM53.822,-49.695L104.822,-49.695C110.617,-49.695 115.322,-54.4 115.322,-60.195C115.322,-65.99 110.617,-70.695 104.822,-70.695L53.822,-70.695C48.027,-70.695 43.322,-65.99 43.322,-60.195C43.322,-54.4 48.027,-49.695 53.822,-49.695Z" style="fill:rgb(207,196,138);"/>
        </g>
        <g id="Heavy-L" transform="matrix(1,0,0,1,2558.39,1556)">
            <path d="M52.799,-0.362L71.42,-0.362C76.939,-0.362 81.42,-4.843 81.42,-10.362C81.42,-15.881 76.939,-20.362 71.42,-20.362L52.799,-20.362C47.28,-20.362 42.799,-15.881 42.799,-10.362C42.799,-4.843 47.28,-0.362 52.799,-0.362ZM52.799,-50.195L103.799,-50.195C109.318,-50.195 113.799,-54.676 113.799,-60.195C113.799,-65.714 109.318,-70.195 103.799,-70.195L52.799,-70.195C47.28,-70.195 42.799,-65.714 42.799,-60.195C42.799,-54.676 47.28,-50.195 52.799,-50.195Z" style="fill:rgb(207,196,138);"/>
        </g>
        <g id="Bold-L" transform="matrix(1,0,0,1,2262.88,1556)">
            <path d="M51.594,-0.862L70.215,-0.862C75.458,-0.862 79.715,-5.119 79.715,-10.362C79.715,-15.605 75.458,-19.862 70.215,-19.862L51.594,-19.862C46.35,-19.862 42.094,-15.605 42.094,-10.362C42.094,-5.119 46.35,-0.862 51.594,-0.862ZM51.594,-50.695L102.594,-50.695C107.837,-50.695 112.094,-54.952 112.094,-60.195C112.094,-65.438 107.837,-69.695 102.594,-69.695L51.594,-69.695C46.35,-69.695 42.094,-65.438 42.094,-60.195C42.094,-54.952 46.35,-50.695 51.594,-50.695Z" style="fill:rgb(207,196,138);"/>
        </g>
        <g id="Semibold-L" transform="matrix(1,0,0,1,1966.97,1556)">
            <path d="M50.844,-1.362L69.466,-1.362C74.433,-1.362 78.466,-5.394 78.466,-10.362C78.466,-15.329 74.433,-19.362 69.466,-19.362L50.844,-19.362C45.877,-19.362 41.844,-15.329 41.844,-10.362C41.844,-5.394 45.877,-1.362 50.844,-1.362ZM50.844,-51.195L101.844,-51.195C106.812,-51.195 110.844,-55.228 110.844,-60.195C110.844,-65.162 106.812,-69.195 101.844,-69.195L50.844,-69.195C45.877,-69.195 41.844,-65.162 41.844,-60.195C41.844,-55.228 45.877,-51.195 50.844,-51.195Z" style="fill:rgb(207,196,138);"/>
        </g>
        <g id="Medium-L" transform="matrix(1,0,0,1,1670.87,1556)">
            <path d="M50.223,-1.862L68.845,-1.862C73.536,-1.862 77.345,-5.67 77.345,-10.362C77.345,-15.053 73.536,-18.862 68.845,-18.862L50.223,-18.862C45.532,-18.862 41.723,-15.053 41.723,-10.362C41.723,-5.67 45.532,-1.862 50.223,-1.862ZM50.223,-51.695L101.223,-51.695C105.915,-51.695 109.723,-55.504 109.723,-60.195C109.723,-64.886 105.915,-68.695 101.223,-68.695L50.223,-68.695C45.532,-68.695 41.723,-64.886 41.723,-60.195C41.723,-55.504 45.532,-51.695 50.223,-51.695Z" style="fill:rgb(207,196,138);"/>
        </g>
        <g id="Regular-L" transform="matrix(1,0,0,1,1374.97,1556)">
            <path d="M49.375,-2.362L67.996,-2.362C72.412,-2.362 75.996,-5.946 75.996,-10.362C75.996,-14.777 72.412,-18.362 67.996,-18.362L49.375,-18.362C44.96,-18.362 41.375,-14.777 41.375,-10.362C41.375,-5.946 44.96,-2.362 49.375,-2.362ZM49.375,-52.195L100.375,-52.195C104.79,-52.195 108.375,-55.78 108.375,-60.195C108.375,-64.61 104.79,-68.195 100.375,-68.195L49.375,-68.195C44.96,-68.195 41.375,-64.61 41.375,-60.195C41.375,-55.78 44.96,-52.195 49.375,-52.195Z" style="fill:rgb(207,196,138);"/>
        </g>
        <g id="Light-L" transform="matrix(1,0,0,1,1079.18,1556)">
            <path d="M48.455,-2.862L67.076,-2.862C71.215,-2.862 74.576,-6.222 74.576,-10.362C74.576,-14.501 71.215,-17.862 67.076,-17.862L48.455,-17.862C44.315,-17.862 40.955,-14.501 40.955,-10.362C40.955,-6.222 44.315,-2.862 48.455,-2.862ZM48.455,-52.695L99.455,-52.695C103.594,-52.695 106.955,-56.056 106.955,-60.195C106.955,-64.334 103.594,-67.695 99.455,-67.695L48.455,-67.695C44.315,-67.695 40.955,-64.334 40.955,-60.195C40.955,-56.056 44.315,-52.695 48.455,-52.695Z" style="fill:rgb(207,196,138);"/>
        </g>
        <g id="Thin-L" transform="matrix(1,0,0,1,783.693,1556)">
            <path d="M47.229,-3.362L65.85,-3.362C69.714,-3.362 72.85,-6.498 72.85,-10.362C72.85,-14.225 69.714,-17.362 65.85,-17.362L47.229,-17.362C43.366,-17.362 40.229,-14.225 40.229,-10.362C40.229,-6.498 43.366,-3.362 47.229,-3.362ZM47.229,-53.195L98.229,-53.195C102.093,-53.195 105.229,-56.332 105.229,-60.195C105.229,-64.058 102.093,-67.195 98.229,-67.195L47.229,-67.195C43.366,-67.195 40.229,-64.058 40.229,-60.195C40.229,-56.332 43.366,-53.195 47.229,-53.195Z" style="fill:rgb(207,196,138);"/>
        </g>
        <g id="Ultralight-L" transform="matrix(1,0,0,1,487.616,1556)">
            <path d="M46.595,-3.862L65.216,-3.862C68.803,-3.862 71.716,-6.774 71.716,-10.362C71.716,-13.949 68.803,-16.862 65.216,-16.862L46.595,-16.862C43.007,-16.862 40.095,-13.949 40.095,-10.362C40.095,-6.774 43.007,-3.862 46.595,-3.862ZM46.595,-53.695L97.595,-53.695C101.182,-53.695 104.095,-56.608 104.095,-60.195C104.095,-63.782 101.182,-66.695 97.595,-66.695L46.595,-66.695C43.007,-66.695 40.095,-63.782 40.095,-60.195C40.095,-56.608 43.007,-53.695 46.595,-53.695Z" style="fill:rgb(207,196,138);"/>
        </g>
        <g id="Black-M" transform="matrix(1,0,0,1,2870.97,1126)">
            <path d="M41.878,-4.602L56.866,-4.602C62.661,-4.602 67.366,-9.307 67.366,-15.102C67.366,-20.897 62.661,-25.602 56.866,-25.602L41.878,-25.602C36.083,-25.602 31.378,-20.897 31.378,-15.102C31.378,-9.307 36.083,-4.602 41.878,-4.602ZM41.878,-44.711L82.926,-44.711C88.721,-44.711 93.426,-49.416 93.426,-55.211C93.426,-61.006 88.721,-65.711 82.926,-65.711L41.878,-65.711C36.083,-65.711 31.378,-61.006 31.378,-55.211C31.378,-49.416 36.083,-44.711 41.878,-44.711Z" style="fill:rgb(207,196,138);"/>
        </g>
        <g id="Heavy-M" transform="matrix(1,0,0,1,2575.19,1126)">
            <path d="M40.975,-5.102L55.962,-5.102C61.482,-5.102 65.962,-9.583 65.962,-15.102C65.962,-20.621 61.482,-25.102 55.962,-25.102L40.975,-25.102C35.456,-25.102 30.975,-20.621 30.975,-15.102C30.975,-9.583 35.456,-5.102 40.975,-5.102ZM40.975,-45.211L82.023,-45.211C87.542,-45.211 92.023,-49.691 92.023,-55.211C92.023,-60.73 87.542,-65.211 82.023,-65.211L40.975,-65.211C35.456,-65.211 30.975,-60.73 30.975,-55.211C30.975,-49.691 35.456,-45.211 40.975,-45.211Z" style="fill:rgb(207,196,138);"/>
        </g>
        <g id="Bold-M" transform="matrix(1,0,0,1,2279.5,1126)">
            <path d="M39.95,-5.602L54.937,-5.602C60.18,-5.602 64.437,-9.859 64.437,-15.102C64.437,-20.345 60.18,-24.602 54.937,-24.602L39.95,-24.602C34.707,-24.602 30.45,-20.345 30.45,-15.102C30.45,-9.859 34.707,-5.602 39.95,-5.602ZM39.95,-45.711L80.998,-45.711C86.241,-45.711 90.498,-49.967 90.498,-55.211C90.498,-60.454 86.241,-64.711 80.998,-64.711L39.95,-64.711C34.707,-64.711 30.45,-60.454 30.45,-55.211C30.45,-49.967 34.707,-45.711 39.95,-45.711Z" style="fill:rgb(207,196,138);"/>
        </g>
        <g id="Semibold-M" transform="matrix(1,0,0,1,1983.5,1126)">
            <path d="M39.291,-6.102L54.278,-6.102C59.245,-6.102 63.278,-10.135 63.278,-15.102C63.278,-20.069 59.245,-24.102 54.278,-24.102L39.291,-24.102C34.323,-24.102 30.291,-20.069 30.291,-15.102C30.291,-10.135 34.323,-6.102 39.291,-6.102ZM39.291,-46.211L80.338,-46.211C85.306,-46.211 89.338,-50.243 89.338,-55.211C89.338,-60.178 85.306,-64.211 80.338,-64.211L39.291,-64.211C34.323,-64.211 30.291,-60.178 30.291,-55.211C30.291,-50.243 34.323,-46.211 39.291,-46.211Z" style="fill:rgb(207,196,138);"/>
        </g>
        <g id="Medium-M" transform="matrix(1,0,0,1,1687.3,1126)">
            <path d="M38.77,-6.602L53.757,-6.602C58.448,-6.602 62.257,-10.411 62.257,-15.102C62.257,-19.793 58.448,-23.602 53.757,-23.602L38.769,-23.602C34.078,-23.602 30.269,-19.793 30.27,-15.102C30.27,-10.411 34.078,-6.602 38.77,-6.602ZM38.769,-46.711L79.817,-46.711C84.509,-46.711 88.317,-50.519 88.317,-55.211C88.317,-59.902 84.509,-63.711 79.817,-63.711L38.769,-63.711C34.078,-63.711 30.27,-59.902 30.269,-55.211C30.269,-50.519 34.078,-46.711 38.769,-46.711Z" style="fill:rgb(207,196,138);"/>
        </g>
        <g id="Regular-M" transform="matrix(1,0,0,1,1391.3,1126)">
            <path d="M38.021,-7.102L53.009,-7.102C57.424,-7.102 61.009,-10.687 61.009,-15.102C61.009,-19.517 57.424,-23.102 53.009,-23.102L38.021,-23.102C33.606,-23.102 30.021,-19.517 30.021,-15.102C30.021,-10.687 33.606,-7.102 38.021,-7.102ZM38.021,-47.211L79.069,-47.211C83.484,-47.211 87.069,-50.795 87.069,-55.211C87.069,-59.626 83.484,-63.211 79.069,-63.211L38.021,-63.211C33.606,-63.211 30.021,-59.626 30.021,-55.211C30.021,-50.795 33.606,-47.211 38.021,-47.211Z" style="fill:rgb(207,196,138);"/>
        </g>
        <g id="Light-M" transform="matrix(1,0,0,1,1095.42,1126)">
            <path d="M37.191,-7.602L52.178,-7.602C56.317,-7.602 59.678,-10.963 59.678,-15.102C59.678,-19.241 56.317,-22.602 52.178,-22.602L37.191,-22.602C33.051,-22.602 29.691,-19.241 29.691,-15.102C29.691,-10.963 33.051,-7.602 37.191,-7.602ZM37.191,-47.711L78.239,-47.711C82.378,-47.711 85.739,-51.071 85.739,-55.211C85.739,-59.35 82.378,-62.711 78.239,-62.711L37.191,-62.711C33.051,-62.711 29.691,-59.35 29.691,-55.211C29.691,-51.071 33.051,-47.711 37.191,-47.711Z" style="fill:rgb(207,196,138);"/>
        </g>
        <g id="Thin-M" transform="matrix(1,0,0,1,799.806,1126)">
            <path d="M36.092,-8.102L51.08,-8.102C54.943,-8.102 58.08,-11.238 58.08,-15.102C58.08,-18.965 54.943,-22.102 51.08,-22.102L36.092,-22.102C32.229,-22.102 29.092,-18.965 29.092,-15.102C29.092,-11.238 32.229,-8.102 36.092,-8.102ZM36.092,-48.211L77.14,-48.211C81.003,-48.211 84.14,-51.347 84.14,-55.211C84.14,-59.074 81.003,-62.211 77.14,-62.211L36.092,-62.211C32.229,-62.211 29.092,-59.074 29.092,-55.211C29.092,-51.347 32.229,-48.211 36.092,-48.211Z" style="fill:rgb(207,196,138);"/>
        </g>
        <g id="Ultralight-M" transform="matrix(1,0,0,1,503.656,1126)">
            <path d="M35.531,-8.602L50.518,-8.602C54.106,-8.602 57.018,-11.514 57.018,-15.102C57.018,-18.689 54.106,-21.602 50.518,-21.602L35.531,-21.602C31.943,-21.602 29.031,-18.689 29.031,-15.102C29.031,-11.514 31.943,-8.602 35.531,-8.602ZM35.531,-48.711L76.579,-48.711C80.166,-48.711 83.079,-51.623 83.079,-55.211C83.079,-58.798 80.166,-61.711 76.579,-61.711L35.531,-61.711C31.943,-61.711 29.031,-58.798 29.031,-55.211C29.031,-51.623 31.943,-48.711 35.531,-48.711Z" style="fill:rgb(207,196,138);"/>
        </g>
        <g id="Black-S" transform="matrix(1,0,0,1,2884.57,696)">
            <path d="M33.802,-10.097L44.756,-10.097C50.551,-10.097 55.256,-14.802 55.256,-20.597C55.256,-26.392 50.551,-31.097 44.756,-31.097L33.802,-31.097C28.007,-31.097 23.302,-26.392 23.302,-20.597C23.302,-14.802 28.007,-10.097 33.802,-10.097ZM33.802,-39.411L63.802,-39.411C69.597,-39.411 74.302,-44.116 74.302,-49.911C74.302,-55.706 69.597,-60.411 63.802,-60.411L33.802,-60.411C28.007,-60.411 23.302,-55.706 23.302,-49.911C23.302,-44.116 28.007,-39.411 33.802,-39.411Z" style="fill:rgb(207,196,138);"/>
        </g>
        <g id="Heavy-S" transform="matrix(1,0,0,1,2588.47,696)">
            <path d="M33.219,-10.597L44.173,-10.597C49.692,-10.597 54.173,-15.078 54.173,-20.597C54.173,-26.116 49.692,-30.597 44.173,-30.597L33.219,-30.597C27.7,-30.597 23.219,-26.116 23.219,-20.597C23.219,-15.078 27.7,-10.597 33.219,-10.597ZM33.219,-39.911L63.219,-39.911C68.738,-39.911 73.219,-44.392 73.219,-49.911C73.219,-55.43 68.738,-59.911 63.219,-59.911L33.219,-59.911C27.7,-59.911 23.219,-55.43 23.219,-49.911C23.219,-44.392 27.7,-39.911 33.219,-39.911Z" style="fill:rgb(207,196,138);"/>
        </g>
        <g id="Bold-S" transform="matrix(1,0,0,1,2292.44,696)">
            <path d="M32.534,-11.097L43.487,-11.097C48.73,-11.097 52.987,-15.354 52.987,-20.597C52.987,-25.84 48.73,-30.097 43.487,-30.097L32.534,-30.097C27.29,-30.097 23.034,-25.84 23.034,-20.597C23.034,-15.354 27.29,-11.097 32.534,-11.097ZM32.534,-40.411L62.534,-40.411C67.777,-40.411 72.034,-44.668 72.034,-49.911C72.034,-55.154 67.777,-59.411 62.534,-59.411L32.534,-59.411C27.29,-59.411 23.034,-55.154 23.034,-49.911C23.034,-44.668 27.29,-40.411 32.534,-40.411Z" style="fill:rgb(207,196,138);"/>
        </g>
        <g id="Semibold-S" transform="matrix(1,0,0,1,1996.2,696)">
            <path d="M32.114,-11.597L43.068,-11.597C48.035,-11.597 52.068,-15.63 52.068,-20.597C52.068,-25.564 48.035,-29.597 43.068,-29.597L32.114,-29.597C27.147,-29.597 23.114,-25.564 23.114,-20.597C23.114,-15.63 27.147,-11.597 32.114,-11.597ZM32.114,-40.911L62.114,-40.911C67.082,-40.911 71.114,-44.944 71.114,-49.911C71.114,-54.878 67.082,-58.911 62.114,-58.911L32.114,-58.911C27.147,-58.911 23.114,-54.878 23.114,-49.911C23.114,-44.944 27.147,-40.911 32.114,-40.911Z" style="fill:rgb(207,196,138);"/>
        </g>
        <g id="Medium-S" transform="matrix(1,0,0,1,1699.83,696)">
            <path d="M31.763,-12.097L42.717,-12.097C47.408,-12.097 51.217,-15.906 51.217,-20.597C51.217,-25.288 47.408,-29.097 42.717,-29.097L31.763,-29.097C27.072,-29.097 23.263,-25.288 23.263,-20.597C23.263,-15.906 27.072,-12.097 31.763,-12.097ZM31.763,-41.411L61.763,-41.411C66.455,-41.411 70.263,-45.219 70.263,-49.911C70.263,-54.602 66.455,-58.411 61.763,-58.411L31.763,-58.411C27.072,-58.411 23.263,-54.602 23.263,-49.911C23.263,-45.219 27.072,-41.411 31.763,-41.411Z" style="fill:rgb(207,196,138);"/>
        </g>
        <g id="Regular-S" transform="matrix(1,0,0,1,1403.58,696)">
            <path d="M31.265,-12.597L42.219,-12.597C46.634,-12.597 50.219,-16.182 50.219,-20.597C50.219,-25.012 46.634,-28.597 42.219,-28.597L31.265,-28.597C26.85,-28.597 23.265,-25.012 23.265,-20.597C23.265,-16.182 26.85,-12.597 31.265,-12.597ZM31.265,-41.911L61.265,-41.911C65.68,-41.911 69.265,-45.495 69.265,-49.911C69.265,-54.326 65.68,-57.911 61.265,-57.911L31.265,-57.911C26.85,-57.911 23.265,-54.326 23.265,-49.911C23.265,-45.495 26.85,-41.911 31.265,-41.911Z" style="fill:rgb(207,196,138);"/>
        </g>
        <g id="Light-S" transform="matrix(1,0,0,1,1107.6,696)">
            <path d="M30.535,-13.097L41.488,-13.097C45.628,-13.097 48.988,-16.458 48.988,-20.597C48.988,-24.736 45.628,-28.097 41.488,-28.097L30.535,-28.097C26.395,-28.097 23.035,-24.736 23.035,-20.597C23.035,-16.458 26.395,-13.097 30.535,-13.097ZM30.535,-42.411L60.535,-42.411C64.674,-42.411 68.035,-45.771 68.035,-49.911C68.035,-54.05 64.674,-57.411 60.535,-57.411L30.535,-57.411C26.395,-57.411 23.035,-54.05 23.035,-49.911C23.035,-45.771 26.395,-42.411 30.535,-42.411Z" style="fill:rgb(207,196,138);"/>
        </g>
        <g id="Thin-S" transform="matrix(1,0,0,1,811.867,696)">
            <path d="M29.555,-13.597L40.509,-13.597C44.372,-13.597 47.509,-16.734 47.509,-20.597C47.509,-24.46 44.372,-27.597 40.509,-27.597L29.555,-27.597C25.692,-27.597 22.555,-24.46 22.555,-20.597C22.555,-16.734 25.692,-13.597 29.555,-13.597ZM29.555,-42.911L59.555,-42.911C63.419,-42.911 66.555,-46.047 66.555,-49.911C66.555,-53.774 63.419,-56.911 59.555,-56.911L29.555,-56.911C25.692,-56.911 22.555,-53.774 22.555,-49.911C22.555,-46.047 25.692,-42.911 29.555,-42.911Z" style="fill:rgb(207,196,138);"/>
        </g>
        <g id="Ultralight-S" transform="matrix(1,0,0,1,515.644,696)">
            <path d="M29.067,-14.097L40.02,-14.097C43.608,-14.097 46.52,-17.01 46.52,-20.597C46.52,-24.185 43.608,-27.097 40.02,-27.097L29.067,-27.097C25.479,-27.097 22.567,-24.185 22.567,-20.597C22.567,-17.01 25.479,-14.097 29.067,-14.097ZM29.067,-43.411L59.067,-43.411C62.654,-43.411 65.567,-46.323 65.567,-49.911C65.567,-53.498 62.654,-56.411 59.067,-56.411L29.067,-56.411C25.479,-56.411 22.567,-53.498 22.567,-49.911C22.567,-46.323 25.479,-43.411 29.067,-43.411Z" style="fill:rgb(207,196,138);"/>
        </g>
    </g>
</svg>
