<?xml version="1.0" encoding="utf-8"?>
<!-- Generator: Adobe Illustrator 24.0.1, SVG Export Plug-In . SVG Version: 6.00 Build 0)  -->
<svg version="1.1" id="Layer_1" xmlns:serif="http://www.serif.com/"
	 xmlns="http://www.w3.org/2000/svg" xmlns:xlink="http://www.w3.org/1999/xlink" x="0px" y="0px" viewBox="0 0 595.3 841.9"
	 style="enable-background:new 0 0 595.3 841.9;" xml:space="preserve">
<style type="text/css">
	.st0{fill-rule:evenodd;clip-rule:evenodd;fill:#FFFFFF;}
	.st1{fill:none;stroke:#000000;stroke-width:9.019327e-02;stroke-miterlimit:10;}
	.st2{font-family:'SFProDisplay-Regular';}
	.st3{font-size:2.8862px;}
	.st4{fill:none;stroke:#00AEEF;stroke-width:9.019327e-02;stroke-miterlimit:10;}
	.st5{fill:#27AAE1;}
	.st6{fill:none;stroke:#27AAE1;stroke-width:9.019327e-02;stroke-miterlimit:10;}
	.st7{fill-rule:evenodd;clip-rule:evenodd;}
</style>
<g id="Notes">
	<g id="artboard" transform="matrix(1,0,0,1,0,1.31276)">
		<rect y="221.4" class="st0" width="595.3" height="396.9"/>
	</g>
	<path class="st1" d="M47.4,275.2h500.2"/>
	<g transform="matrix(1,0,0,1,263,322)">
		<text transform="matrix(1 0 0 1 -215.5586 -41.3959)" class="st2 st3">W</text>
		<text transform="matrix(1 0 0 1 -213.0474 -41.3959)" class="st2 st3">e</text>
		<text transform="matrix(1 0 0 1 -211.5688 -41.3959)" class="st2 st3">ight/Scale V</text>
		<text transform="matrix(1 0 0 1 -197.2832 -41.3959)" class="st2 st3">a</text>
		<text transform="matrix(1 0 0 1 -195.8345 -41.3959)" class="st2 st3">riations</text>
	</g>
	<g transform="matrix(1,0,0,1,559.711,322)">
		<text transform="matrix(1 0 0 1 -464.2325 -41.3959)" class="st2 st3">Ultr</text>
		<text transform="matrix(1 0 0 1 -459.9029 -41.3959)" class="st2 st3">a</text>
		<text transform="matrix(1 0 0 1 -458.4542 -41.3959)" class="st2 st3">light</text>
	</g>
	<g transform="matrix(1,0,0,1,856.422,322)">
		<text transform="matrix(1 0 0 1 -704.609 -41.3959)" class="st2 st3">Thin</text>
	</g>
	<g transform="matrix(1,0,0,1,1153.13,322)">
		<text transform="matrix(1 0 0 1 -948.1798 -41.3959)" class="st2 st3">Light</text>
	</g>
	<g transform="matrix(1,0,0,1,1449.84,322)">
		<text transform="matrix(1 0 0 1 -1192.9279 -41.3959)" class="st2 st3">Regular</text>
	</g>
	<g transform="matrix(1,0,0,1,1746.56,322)">
		<text transform="matrix(1 0 0 1 -1436.4585 -41.3959)" class="st2 st3">Medium</text>
	</g>
	<g transform="matrix(1,0,0,1,2043.27,322)">
		<text transform="matrix(1 0 0 1 -1680.4019 -41.3959)" class="st2 st3">Semibold</text>
	</g>
	<g transform="matrix(1,0,0,1,2339.98,322)">
		<text transform="matrix(1 0 0 1 -1920.6108 -41.3959)" class="st2 st3">Bold</text>
	</g>
	<g transform="matrix(1,0,0,1,2636.69,322)">
		<text transform="matrix(1 0 0 1 -2164.938 -41.3959)" class="st2 st3">Heavy</text>
	</g>
	<g transform="matrix(1,0,0,1,2933.4,322)">
		<text transform="matrix(1 0 0 1 -2407.5688 -41.3959)" class="st2 st3">Black</text>
	</g>
	<path class="st1" d="M47.4,565.8h500.2"/>
	<g transform="matrix(1,0,0,1,263,1933)">
		<path d="M-213.9-1361.6c0.8,0,1.4-0.6,1.4-1.4c0-0.8-0.6-1.4-1.4-1.4c-0.8,0-1.4,0.6-1.4,1.4
			C-215.3-1362.3-214.7-1361.6-213.9-1361.6z M-213.9-1361.9c-0.6,0-1.2-0.5-1.2-1.2c0-0.6,0.5-1.2,1.1-1.2c0.6,0,1.2,0.5,1.2,1.2
			C-212.7-1362.4-213.2-1361.9-213.9-1361.9z M-214.4-1362.9h0.4v0.4c0,0.1,0.1,0.1,0.1,0.1c0.1,0,0.1-0.1,0.1-0.1v-0.4h0.4
			c0.1,0,0.1-0.1,0.1-0.1c0-0.1-0.1-0.1-0.1-0.1h-0.4v-0.4c0-0.1-0.1-0.1-0.1-0.1c-0.1,0-0.1,0.1-0.1,0.1v0.4h-0.4
			c-0.1,0-0.1,0.1-0.1,0.1C-214.5-1363-214.5-1362.9-214.4-1362.9z"/>
	</g>
	<g transform="matrix(1,0,0,1,281.506,1933)">
		<path d="M-228.6-1361.3c1,0,1.8-0.8,1.8-1.8c0-1-0.8-1.8-1.8-1.8c-1,0-1.8,0.8-1.8,1.8C-230.4-1362.1-229.6-1361.3-228.6-1361.3z
			 M-228.6-1361.6c-0.8,0-1.5-0.7-1.5-1.5c0-0.8,0.7-1.5,1.5-1.5c0.8,0,1.5,0.7,1.5,1.5C-227.1-1362.2-227.8-1361.6-228.6-1361.6z
			 M-229.3-1362.9h0.5v0.5c0,0.1,0.1,0.1,0.1,0.1c0.1,0,0.1-0.1,0.1-0.1v-0.5h0.5c0.1,0,0.1-0.1,0.1-0.1c0-0.1-0.1-0.1-0.1-0.1h-0.5
			v-0.5c0-0.1-0.1-0.2-0.1-0.2c-0.1,0-0.1,0.1-0.1,0.2v0.5h-0.5c-0.1,0-0.2,0.1-0.2,0.1C-229.4-1363-229.4-1362.9-229.3-1362.9z"/>
	</g>
	<g transform="matrix(1,0,0,1,304.924,1933)">
		<path d="M-247.2-1360.8c1.3,0,2.3-1,2.3-2.3c0-1.3-1-2.3-2.3-2.3c-1.3,0-2.3,1-2.3,2.3C-249.5-1361.8-248.5-1360.8-247.2-1360.8z
			 M-247.2-1361.1c-1.1,0-2-0.9-2-2c0-1.1,0.9-2,2-2c1.1,0,2,0.9,2,2C-245.3-1362-246.1-1361.1-247.2-1361.1z M-248.1-1362.9h0.7
			v0.7c0,0.1,0.1,0.2,0.2,0.2c0.1,0,0.2-0.1,0.2-0.2v-0.7h0.7c0.1,0,0.2-0.1,0.2-0.2c0-0.1-0.1-0.2-0.2-0.2h-0.7v-0.7
			c0-0.1-0.1-0.2-0.2-0.2c-0.1,0-0.2,0.1-0.2,0.2v0.7h-0.7c-0.1,0-0.2,0.1-0.2,0.2C-248.3-1363-248.2-1362.9-248.1-1362.9z"/>
	</g>
	<g transform="matrix(1,0,0,1,263,1953)">
		<text transform="matrix(1 0 0 1 -215.5586 -1378.1854)" class="st2 st3">Design V</text>
		<text transform="matrix(1 0 0 1 -204.8774 -1378.1854)" class="st2 st3">a</text>
		<text transform="matrix(1 0 0 1 -203.4287 -1378.1854)" class="st2 st3">riations</text>
	</g>
	<g transform="matrix(1,0,0,1,263,1971)">
		<text transform="matrix(1 0 0 1 -215.5586 -1392.9384)" class="st2 st3">Symbols ar</text>
		<text transform="matrix(1 0 0 1 -202.2026 -1392.9384)" class="st2 st3">e</text>
		<text transform="matrix(1 0 0 1 -200.7246 -1392.9384)" class="st2 st3"> support</text>
		<text transform="matrix(1 0 0 1 -190.8496 -1392.9384)" class="st2 st3">e</text>
		<text transform="matrix(1 0 0 1 -189.3716 -1392.9384)" class="st2 st3">d in up t</text>
		<text transform="matrix(1 0 0 1 -179.9492 -1392.9384)" class="st2 st3">o</text>
		<text transform="matrix(1 0 0 1 -178.4175 -1392.9384)" class="st2 st3"> nine weights and thr</text>
		<text transform="matrix(1 0 0 1 -153.6338 -1392.9384)" class="st2 st3">e</text>
		<text transform="matrix(1 0 0 1 -152.1553 -1392.9384)" class="st2 st3">e scales.</text>
	</g>
	<g transform="matrix(1,0,0,1,263,1989)">
		<text transform="matrix(1 0 0 1 -215.5586 -1407.6913)" class="st2 st3">F</text>
		<text transform="matrix(1 0 0 1 -214.0913 -1407.6913)" class="st2 st3">o</text>
		<text transform="matrix(1 0 0 1 -212.5596 -1407.6913)" class="st2 st3">r optimal lay</text>
		<text transform="matrix(1 0 0 1 -198.1641 -1407.6913)" class="st2 st3">o</text>
		<text transform="matrix(1 0 0 1 -196.6318 -1407.6913)" class="st2 st3">ut with t</text>
		<text transform="matrix(1 0 0 1 -187.146 -1407.6913)" class="st2 st3">e</text>
		<text transform="matrix(1 0 0 1 -185.6963 -1407.6913)" class="st2 st3">x</text>
		<text transform="matrix(1 0 0 1 -184.3447 -1407.6913)" class="st2 st3">t and other symbols,</text>
		<text transform="matrix(1 0 0 1 -160.2012 -1407.6913)" class="st2 st3"> </text>
		<text transform="matrix(1 0 0 1 -159.6089 -1407.6913)" class="st2 st3">v</text>
		<text transform="matrix(1 0 0 1 -158.2715 -1407.6913)" class="st2 st3">e</text>
		<text transform="matrix(1 0 0 1 -156.7935 -1407.6913)" class="st2 st3">rtically align</text>
	</g>
	<g transform="matrix(1,0,0,1,263,2007)">
		<text transform="matrix(1 0 0 1 -215.5586 -1422.4442)" class="st2 st3">symbols with the adjacent t</text>
		<text transform="matrix(1 0 0 1 -182.8467 -1422.4442)" class="st2 st3">e</text>
		<text transform="matrix(1 0 0 1 -181.3965 -1422.4442)" class="st2 st3">x</text>
		<text transform="matrix(1 0 0 1 -180.0449 -1422.4442)" class="st2 st3">t.</text>
	</g>
	<path class="st4" d="M140,568.7v2.5"/>
	<g transform="matrix(1,0,0,1,776,1933)">
		<path d="M-635.4-1361.8c0.1,0,0.1,0,0.2-0.1l0.2-0.6h1l0.2,0.6c0,0.1,0.1,0.1,0.2,0.1c0.1,0,0.2-0.1,0.2-0.1c0,0,0-0.1,0-0.1
			l-0.8-2.2c0-0.1-0.1-0.2-0.2-0.2c-0.1,0-0.2,0.1-0.2,0.2l-0.8,2.2c0,0,0,0.1,0,0.1C-635.6-1361.8-635.5-1361.8-635.4-1361.8z
			 M-634.9-1362.8l0.4-1.2h0l0.4,1.2H-634.9z"/>
	</g>
	<path class="st4" d="M143,568.7v2.5"/>
	<g transform="matrix(1,0,0,1,776,1953)">
		<text transform="matrix(1 0 0 1 -636.02 -1378.1854)" class="st2 st3">M</text>
		<text transform="matrix(1 0 0 1 -633.6641 -1378.1854)" class="st2 st3">a</text>
		<text transform="matrix(1 0 0 1 -632.2153 -1378.1854)" class="st2 st3">r</text>
		<text transform="matrix(1 0 0 1 -631.3965 -1378.1854)" class="st2 st3">g</text>
		<text transform="matrix(1 0 0 1 -629.8125 -1378.1854)" class="st2 st3">ins</text>
	</g>
	<g transform="matrix(1,0,0,1,776,1971)">
		<text transform="matrix(1 0 0 1 -636.02 -1392.9384)" class="st2 st3">L</text>
		<text transform="matrix(1 0 0 1 -634.5488 -1392.9384)" class="st2 st3">e</text>
		<text transform="matrix(1 0 0 1 -633.0708 -1392.9384)" class="st2 st3">ading and tr</text>
		<text transform="matrix(1 0 0 1 -618.8428 -1392.9384)" class="st2 st3">a</text>
		<text transform="matrix(1 0 0 1 -617.394 -1392.9384)" class="st2 st3">iling mar</text>
		<text transform="matrix(1 0 0 1 -607.333 -1392.9384)" class="st2 st3">g</text>
		<text transform="matrix(1 0 0 1 -605.749 -1392.9384)" class="st2 st3">ins on the left and right side of each symbol</text>
	</g>
	<g transform="matrix(1,0,0,1,776,1989)">
		<text transform="matrix(1 0 0 1 -636.02 -1407.6913)" class="st2 st3">can be adjust</text>
		<text transform="matrix(1 0 0 1 -620.0151 -1407.6913)" class="st2 st3">e</text>
		<text transform="matrix(1 0 0 1 -618.5366 -1407.6913)" class="st2 st3">d b</text>
		<text transform="matrix(1 0 0 1 -614.8052 -1407.6913)" class="st2 st3">y</text>
		<text transform="matrix(1 0 0 1 -613.4014 -1407.6913)" class="st2 st3"> modifying the x</text>
		<text transform="matrix(1 0 0 1 -594.4043 -1407.6913)" class="st2 st3">-</text>
		<text transform="matrix(1 0 0 1 -593.167 -1407.6913)" class="st2 st3">location of the mar</text>
		<text transform="matrix(1 0 0 1 -570.9614 -1407.6913)" class="st2 st3">g</text>
		<text transform="matrix(1 0 0 1 -569.3774 -1407.6913)" class="st2 st3">in guidelines.</text>
	</g>
	<g transform="matrix(1,0,0,1,776,2007)">
		<text transform="matrix(1 0 0 1 -636.02 -1422.4442)" class="st2 st3">Modifications ar</text>
		<text transform="matrix(1 0 0 1 -616.812 -1422.4442)" class="st2 st3">e</text>
		<text transform="matrix(1 0 0 1 -615.3335 -1422.4442)" class="st2 st3"> aut</text>
		<text transform="matrix(1 0 0 1 -610.9448 -1422.4442)" class="st2 st3">o</text>
		<text transform="matrix(1 0 0 1 -609.4131 -1422.4442)" class="st2 st3">matically applied pr</text>
		<text transform="matrix(1 0 0 1 -586.2378 -1422.4442)" class="st2 st3">o</text>
		<text transform="matrix(1 0 0 1 -584.7061 -1422.4442)" class="st2 st3">portionally t</text>
		<text transform="matrix(1 0 0 1 -570.7329 -1422.4442)" class="st2 st3">o</text>
		<text transform="matrix(1 0 0 1 -569.2012 -1422.4442)" class="st2 st3"> all</text>
	</g>
	<g transform="matrix(1,0,0,1,776,2025)">
		<text transform="matrix(1 0 0 1 -636.02 -1437.1971)" class="st2 st3">scales and weights.</text>
	</g>
	<g transform="matrix(1,0,0,1,1289,1933)">
		<path d="M-1056-1361.5l0.3,0.3c0.2,0.2,0.3,0.1,0.5,0l1.8-2c0,0,0.1,0,0.2,0l0.2,0l0.1,0.1l0,0.1c0,0.1,0,0.2,0.1,0.2l0.1,0.1
			c0.1,0.1,0.2,0.1,0.3,0l0.5-0.5c0.1-0.1,0.1-0.2,0-0.3l-0.1-0.1c-0.1-0.1-0.2-0.1-0.2-0.1l-0.1,0l-0.1-0.1l0-0.2
			c0-0.1,0-0.2-0.1-0.3l-0.4-0.4c-0.6-0.6-1.4-0.6-1.9-0.1c-0.1,0.1-0.1,0.2,0,0.2c0,0.1,0.1,0.1,0.2,0.1c0.3-0.1,0.5-0.1,0.8,0.1
			l-0.1,0.3c0,0.1,0,0.2,0,0.2l-2,1.9C-1056.1-1361.8-1056.1-1361.6-1056-1361.5z M-1054.5-1364.7c0.4-0.3,1-0.3,1.4,0.1l0.4,0.4
			c0,0,0,0.1,0,0.1l-0.1,0.3l0.3,0.3l0.2,0c0,0,0.1,0,0.1,0l0.1,0.1l-0.4,0.4l-0.1-0.1c0,0,0,0,0-0.1l0-0.2l-0.3-0.3l-0.3,0
			c-0.1,0-0.1,0-0.1,0l-0.4-0.4c0,0-0.1-0.1,0-0.1l0.2-0.4C-1053.8-1364.6-1054.2-1364.7-1054.5-1364.7
			C-1054.6-1364.6-1054.6-1364.7-1054.5-1364.7z M-1055.5-1361.4l-0.2-0.2c-0.1-0.1-0.1-0.1,0-0.2l1.9-1.8l0.3,0.3l-1.8,2
			C-1055.4-1361.3-1055.4-1361.3-1055.5-1361.4z"/>
	</g>
	<g transform="matrix(1,0,0,1,1289,1953)">
		<text transform="matrix(1 0 0 1 -1056.4819 -1378.1854)" class="st2 st3">Exporting</text>
	</g>
	<g transform="matrix(1,0,0,1,1289,1971)">
		<text transform="matrix(1 0 0 1 -1056.4819 -1392.9384)" class="st2 st3">Symbols should be outlined when e</text>
		<text transform="matrix(1 0 0 1 -1014.0391 -1392.9384)" class="st2 st3">x</text>
		<text transform="matrix(1 0 0 1 -1012.6875 -1392.9384)" class="st2 st3">porting t</text>
		<text transform="matrix(1 0 0 1 -1002.6929 -1392.9384)" class="st2 st3">o</text>
		<text transform="matrix(1 0 0 1 -1001.1611 -1392.9384)" class="st2 st3"> ensur</text>
		<text transform="matrix(1 0 0 1 -993.8877 -1392.9384)" class="st2 st3">e</text>
		<text transform="matrix(1 0 0 1 -992.4097 -1392.9384)" class="st2 st3"> the</text>
	</g>
	<g transform="matrix(1,0,0,1,1289,1989)">
		<text transform="matrix(1 0 0 1 -1056.4819 -1407.6913)" class="st2 st3">design is pr</text>
		<text transform="matrix(1 0 0 1 -1042.8374 -1407.6913)" class="st2 st3">e</text>
		<text transform="matrix(1 0 0 1 -1041.3589 -1407.6913)" class="st2 st3">serv</text>
		<text transform="matrix(1 0 0 1 -1036.311 -1407.6913)" class="st2 st3">e</text>
		<text transform="matrix(1 0 0 1 -1034.833 -1407.6913)" class="st2 st3">d when submitting t</text>
		<text transform="matrix(1 0 0 1 -1011.1992 -1407.6913)" class="st2 st3">o</text>
		<text transform="matrix(1 0 0 1 -1009.6675 -1407.6913)" class="st2 st3"> X</text>
		<text transform="matrix(1 0 0 1 -1007.3423 -1407.6913)" class="st2 st3">c</text>
		<text transform="matrix(1 0 0 1 -1005.896 -1407.6913)" class="st2 st3">ode.</text>
	</g>
	<g id="template-version" transform="matrix(1,0,0,1,3036,1933)">
		<text transform="matrix(1 0 0 1 -2505.7666 -1361.7928)" class="st2 st3">T</text>
		<text transform="matrix(1 0 0 1 -2504.4697 -1361.7928)" class="st2 st3">e</text>
		<text transform="matrix(1 0 0 1 -2502.9912 -1361.7928)" class="st2 st3">mplat</text>
		<text transform="matrix(1 0 0 1 -2496.2227 -1361.7928)" class="st2 st3">e</text>
		<text transform="matrix(1 0 0 1 -2494.7441 -1361.7928)" class="st2 st3"> v</text>
		<text transform="matrix(1 0 0 1 -2492.9707 -1361.7928)" class="st2 st3">.</text>
		<text transform="matrix(1 0 0 1 -2492.3506 -1361.7928)" class="st2 st3">2.0</text>
	</g>
	<g transform="matrix(1,0,0,1,3036,1951)">
		<text transform="matrix(1 0 0 1 -2522.9072 -1376.5458)" class="st2 st3">Requir</text>
		<text transform="matrix(1 0 0 1 -2515.1816 -1376.5458)" class="st2 st3">e</text>
		<text transform="matrix(1 0 0 1 -2513.7031 -1376.5458)" class="st2 st3">s X</text>
		<text transform="matrix(1 0 0 1 -2510.0352 -1376.5458)" class="st2 st3">c</text>
		<text transform="matrix(1 0 0 1 -2508.5889 -1376.5458)" class="st2 st3">ode 12 or gr</text>
		<text transform="matrix(1 0 0 1 -2494.4688 -1376.5458)" class="st2 st3">e</text>
		<text transform="matrix(1 0 0 1 -2492.9902 -1376.5458)" class="st2 st3">at</text>
		<text transform="matrix(1 0 0 1 -2490.7139 -1376.5458)" class="st2 st3">e</text>
		<text transform="matrix(1 0 0 1 -2489.2354 -1376.5458)" class="st2 st3">r</text>
	</g>
	<g transform="matrix(1,0,0,1,3036,1969)">
		<text transform="matrix(1 0 0 1 -2522.1221 -1391.2987)" class="st2 st3">Gener</text>
		<text transform="matrix(1 0 0 1 -2514.7451 -1391.2987)" class="st2 st3">a</text>
		<text transform="matrix(1 0 0 1 -2513.2959 -1391.2987)" class="st2 st3">t</text>
		<text transform="matrix(1 0 0 1 -2512.4688 -1391.2987)" class="st2 st3">e</text>
		<text transform="matrix(1 0 0 1 -2510.9902 -1391.2987)" class="st2 st3">d fr</text>
		<text transform="matrix(1 0 0 1 -2507.1055 -1391.2987)" class="st2 st3">o</text>
		<text transform="matrix(1 0 0 1 -2505.5732 -1391.2987)" class="st2 st3">m xmark.</text>
		<text transform="matrix(1 0 0 1 -2494.7188 -1391.2987)" class="st2 st3">c</text>
		<text transform="matrix(1 0 0 1 -2493.2734 -1391.2987)" class="st2 st3">ir</text>
		<text transform="matrix(1 0 0 1 -2491.8594 -1391.2987)" class="st2 st3">c</text>
		<text transform="matrix(1 0 0 1 -2490.4141 -1391.2987)" class="st2 st3">le</text>
	</g>
	<g transform="matrix(1,0,0,1,3036,1987)">
		<text transform="matrix(1 0 0 1 -2514.1631 -1406.0526)" class="st2 st3">T</text>
		<text transform="matrix(1 0 0 1 -2512.8242 -1406.0526)" class="st2 st3">y</text>
		<text transform="matrix(1 0 0 1 -2511.4199 -1406.0526)" class="st2 st3">peset at 100 points</text>
	</g>
	<g transform="matrix(1,0,0,1,263,726)">
		<text transform="matrix(1 0 0 1 -215.5586 -372.5199)" class="st2 st3">Small</text>
	</g>
	<g transform="matrix(1,0,0,1,263,1156)">
		<text transform="matrix(1 0 0 1 -215.5586 -724.953)" class="st2 st3">Medium</text>
	</g>
	<g transform="matrix(1,0,0,1,263,1586)">
		<text transform="matrix(1 0 0 1 -215.5586 -1077.3876)" class="st2 st3">Lar</text>
		<text transform="matrix(1 0 0 1 -211.7773 -1077.3876)" class="st2 st3">g</text>
		<text transform="matrix(1 0 0 1 -210.1934 -1077.3876)" class="st2 st3">e</text>
	</g>
</g>
<g id="Guides">
	<g id="H-reference" transform="matrix(1,0,0,1,339,696)">
		<path class="st5" d="M-277.7-347.9h0.5l1.7-4.4h5.9l1.7,4.4h0.5l-4.9-12.7h-0.4L-277.7-347.9z M-272.6-360L-272.6-360l2.8,7.3
			h-5.6L-272.6-360z"/>
	</g>
	<path id="Baseline-S" class="st6" d="M47.4,348.1h500.2"/>
	<path id="Capline-S" class="st6" d="M47.4,335.4h500.2"/>
	<g id="H-reference1" transform="matrix(1,0,0,1,339,1126)" serif:id="H-reference">
		<path class="st5" d="M-277.7-700.4h0.5l1.7-4.4h5.9l1.7,4.4h0.5l-4.9-12.7h-0.4L-277.7-700.4z M-272.6-712.5L-272.6-712.5l2.8,7.3
			h-5.6L-272.6-712.5z"/>
	</g>
	<path id="Baseline-M" class="st6" d="M47.4,425.6h500.2"/>
	<path id="Capline-M" class="st6" d="M47.4,412.9h500.2"/>
	<g id="H-reference2" transform="matrix(1,0,0,1,339,1556)" serif:id="H-reference">
		<path class="st5" d="M-277.7-1052.8h0.5l1.7-4.4h5.9l1.7,4.4h0.5l-4.9-12.7h-0.4L-277.7-1052.8z M-272.6-1064.9L-272.6-1064.9
			l2.8,7.3h-5.6L-272.6-1064.9z"/>
	</g>
	<path id="Baseline-L" class="st6" d="M47.4,503.2h500.2"/>
	<path id="Capline-L" class="st6" d="M47.4,490.5h500.2"/>
	<path id="left-margin" class="st4" d="M251,408.5V430"/>
	<path id="right-margin" class="st4" d="M272.1,408.5V430"/>
</g>
<g id="Symbols">
	<g id="Black-L">
		<path class="st7" d="M523.3,498.1c0.2-0.9,1.1-1.9,2.1-1.9c0.7,0,1.4,0.5,2.1,1.6c1.6,2.7,3.6,3.5,5.4,3.5
			c2.8-0.1,5.2-2.4,5.7-4.9c0.2-1-0.5-2-1.5-2.2c-1-0.2-2,0.5-2.2,1.5c-0.2,0.9-1.1,1.9-2.1,1.9c-0.7,0-1.4-0.5-2.1-1.6
			c-1.6-2.7-3.6-3.5-5.4-3.5c-2.8,0.1-5.2,2.4-5.7,4.9c-0.2,1,0.5,2,1.5,2.2C522.1,499.8,523.1,499.1,523.3,498.1z"/>
	</g>
	<g id="Heavy-L">
		<path class="st7" d="M469.7,498c0.2-1,1.1-2,2.2-2c0.8,0,1.5,0.6,2.2,1.7c1.6,2.6,3.6,3.5,5.3,3.4c2.7-0.1,5.1-2.4,5.6-4.9
			c0.2-1-0.4-1.9-1.4-2.1c-1-0.2-1.9,0.4-2.1,1.4c-0.2,1-1.1,2-2.2,2c-0.8,0-1.5-0.6-2.2-1.7c-1.6-2.6-3.6-3.5-5.3-3.4
			c-2.7,0.1-5.1,2.4-5.6,4.9c-0.2,1,0.4,1.9,1.4,2.1C468.6,499.7,469.5,499,469.7,498z"/>
	</g>
	<g id="Bold-L">
		<path class="st7" d="M416.1,498c0.2-1,1.1-2,2.3-2c0.8,0,1.5,0.6,2.3,1.7c1.6,2.6,3.5,3.4,5.3,3.4c2.7-0.1,5.1-2.4,5.6-4.8
			c0.2-0.9-0.4-1.8-1.3-2c-0.9-0.2-1.8,0.4-2,1.3c-0.2,1-1.1,2-2.3,2.1c-0.8,0-1.5-0.6-2.3-1.7c-1.6-2.6-3.5-3.4-5.3-3.4
			c-2.7,0.1-5.1,2.4-5.6,4.8c-0.2,0.9,0.4,1.8,1.3,2S415.9,499,416.1,498z"/>
	</g>
	<g id="Semibold-L">
		<path class="st7" d="M362.5,498c0.2-1.1,1.2-2.1,2.3-2.1c0.8,0,1.6,0.6,2.3,1.8c1.5,2.6,3.5,3.4,5.2,3.4c2.6-0.1,5-2.3,5.5-4.7
			c0.2-0.9-0.4-1.7-1.3-1.9c-0.9-0.2-1.7,0.4-1.9,1.3c-0.2,1-1.2,2.1-2.3,2.1c-0.8,0-1.6-0.6-2.3-1.8c-1.5-2.6-3.5-3.4-5.2-3.4
			c-2.6,0-5,2.3-5.5,4.7c-0.2,0.9,0.4,1.7,1.3,1.9C361.5,499.5,362.3,498.9,362.5,498z"/>
	</g>
	<g id="Medium-L">
		<path class="st7" d="M308.9,498c0.2-1.1,1.2-2.2,2.4-2.2c0.8,0,1.7,0.6,2.4,1.8c1.5,2.5,3.4,3.3,5.1,3.3c2.6-0.1,4.9-2.3,5.4-4.7
			c0.2-0.8-0.4-1.6-1.2-1.8c-0.8-0.2-1.6,0.4-1.8,1.2c-0.2,1.1-1.2,2.2-2.4,2.2c-0.8,0-1.7-0.6-2.4-1.8c-1.5-2.5-3.4-3.3-5.1-3.3
			c-2.6,0.1-4.9,2.3-5.4,4.7c-0.2,0.8,0.4,1.6,1.2,1.8C307.9,499.4,308.7,498.8,308.9,498z"/>
	</g>
	<g id="Regular-L">
		<path class="st7" d="M255.3,498c0.2-1.1,1.3-2.2,2.5-2.3c0.9,0,1.7,0.6,2.5,1.9c1.5,2.5,3.4,3.3,5,3.3c2.5,0,4.8-2.3,5.3-4.6
			c0.2-0.8-0.3-1.5-1.1-1.7c-0.8-0.2-1.5,0.3-1.7,1.1c-0.2,1.1-1.3,2.2-2.5,2.3c-0.9,0-1.7-0.6-2.5-1.9c-1.5-2.5-3.4-3.3-5-3.3
			c-2.5,0.1-4.8,2.3-5.3,4.6c-0.2,0.8,0.3,1.5,1.1,1.7C254.4,499.3,255.1,498.8,255.3,498z"/>
	</g>
	<g id="Light-L">
		<path class="st7" d="M201.7,498c0.2-1.2,1.3-2.3,2.6-2.3c0.9,0,1.8,0.6,2.6,1.9c1.5,2.4,3.3,3.3,4.9,3.2c2.5-0.1,4.7-2.2,5.2-4.5
			c0.1-0.7-0.3-1.4-1.1-1.6c-0.7-0.2-1.4,0.3-1.6,1.1c-0.2,1.2-1.3,2.3-2.6,2.3c-0.9,0-1.8-0.6-2.6-1.9c-1.5-2.5-3.3-3.3-4.9-3.2
			c-2.5,0-4.7,2.2-5.2,4.5c-0.1,0.7,0.3,1.4,1.1,1.6C200.8,499.2,201.5,498.7,201.7,498z"/>
	</g>
	<g id="Thin-L">
		<path class="st7" d="M148.1,497.9c0.2-1.2,1.4-2.4,2.7-2.4c0.9,0,1.8,0.6,2.7,2c1.5,2.4,3.3,3.2,4.9,3.2c2.5,0,4.7-2.2,5.1-4.4
			c0.1-0.7-0.3-1.4-1-1.5c-0.7-0.1-1.3,0.3-1.5,1c-0.2,1.2-1.4,2.4-2.7,2.4c-0.9,0-1.8-0.6-2.7-2c-1.5-2.4-3.3-3.2-4.9-3.2
			c-2.5,0.1-4.7,2.2-5.1,4.4c-0.1,0.7,0.3,1.4,1,1.5C147.3,499.1,147.9,498.6,148.1,497.9z"/>
	</g>
	<g id="Ultralight-L">
		<path class="st7" d="M94.4,497.9c0.3-1.2,1.4-2.5,2.8-2.5c0.9,0,1.9,0.6,2.7,2c1.4,2.4,3.2,3.2,4.8,3.1c2.4,0,4.6-2.2,5-4.4
			c0.1-0.6-0.3-1.2-0.9-1.4c-0.6-0.1-1.3,0.3-1.4,0.9c-0.3,1.2-1.4,2.5-2.8,2.5c-0.9,0-1.9-0.6-2.7-2c-1.4-2.4-3.2-3.2-4.8-3.1
			c-2.4,0-4.6,2.2-5,4.4c-0.1,0.6,0.3,1.3,0.9,1.4C93.7,499,94.3,498.6,94.4,497.9z"/>
	</g>
	<g id="Black-M">
		<path class="st7" d="M524.3,420.1c0.1-0.7,0.8-1.5,1.6-1.5c0.6,0,1.1,0.5,1.6,1.3c1.5,2.4,3.3,3.2,4.9,3.2c2.5,0,4.8-2.2,5.2-4.5
			c0.2-1-0.5-2-1.5-2.2c-1-0.2-2,0.5-2.2,1.5c-0.1,0.7-0.8,1.5-1.6,1.5c-0.6,0-1.1-0.5-1.6-1.3c-1.5-2.4-3.3-3.2-4.9-3.2
			c-2.5,0-4.8,2.2-5.2,4.5c-0.2,1,0.5,2,1.5,2.2C523.1,421.7,524.1,421.1,524.3,420.1z"/>
	</g>
	<g id="Heavy-M">
		<path class="st7" d="M470.7,420c0.2-0.8,0.8-1.5,1.7-1.5c0.6,0,1.2,0.5,1.7,1.4c1.4,2.4,3.3,3.2,4.9,3.1c2.5,0,4.7-2.2,5.1-4.4
			c0.2-1-0.4-1.9-1.4-2.1s-1.9,0.4-2.1,1.4c-0.2,0.8-0.8,1.5-1.7,1.5c-0.6,0-1.2-0.5-1.7-1.4c-1.4-2.4-3.3-3.2-4.9-3.1
			c-2.5,0-4.7,2.2-5.1,4.4c-0.2,1,0.4,1.9,1.4,2.1C469.5,421.6,470.5,421,470.7,420z"/>
	</g>
	<g id="Bold-M">
		<path class="st7" d="M417.1,420c0.2-0.8,0.9-1.6,1.8-1.6c0.6,0,1.2,0.5,1.8,1.4c1.4,2.4,3.2,3.1,4.8,3.1c2.4,0,4.6-2.2,5.1-4.4
			c0.2-0.9-0.4-1.8-1.3-2c-0.9-0.2-1.8,0.4-2,1.3c-0.2,0.8-0.9,1.6-1.8,1.6c-0.6,0-1.2-0.5-1.8-1.4c-1.4-2.4-3.2-3.1-4.8-3.1
			c-2.4,0-4.6,2.2-5.1,4.4c-0.2,0.9,0.4,1.8,1.3,2C416,421.6,416.9,420.9,417.1,420z"/>
	</g>
	<g id="Semibold-M">
		<path class="st7" d="M363.5,420c0.2-0.8,0.9-1.7,1.9-1.7c0.7,0,1.3,0.5,1.9,1.5c1.4,2.3,3.2,3.1,4.7,3c2.4,0,4.5-2.1,5-4.3
			c0.2-0.9-0.4-1.7-1.3-1.9c-0.9-0.2-1.7,0.4-1.9,1.3c-0.2,0.8-0.9,1.7-1.9,1.7c-0.7,0-1.3-0.5-1.9-1.5c-1.4-2.3-3.2-3.1-4.7-3
			c-2.4,0-4.5,2.1-5,4.3c-0.2,0.9,0.4,1.7,1.3,1.9C362.4,421.4,363.3,420.9,363.5,420z"/>
	</g>
	<g id="Medium-M">
		<path class="st7" d="M309.9,420c0.2-0.9,1-1.8,1.9-1.8c0.7,0,1.3,0.5,1.9,1.5c1.4,2.3,3.1,3,4.6,3c2.4,0,4.5-2.1,4.9-4.2
			c0.2-0.8-0.4-1.6-1.2-1.8c-0.8-0.2-1.6,0.4-1.8,1.2c-0.2,0.9-1,1.7-1.9,1.8c-0.7,0-1.3-0.5-1.9-1.5c-1.4-2.3-3.1-3-4.6-3
			c-2.4,0-4.5,2.1-4.9,4.2c-0.2,0.8,0.4,1.6,1.2,1.8C308.9,421.4,309.7,420.8,309.9,420z"/>
	</g>
	<g id="Regular-M">
		<path class="st7" d="M256.2,420c0.2-0.9,1-1.8,2-1.8c0.7,0,1.4,0.5,2,1.5c1.4,2.3,3,3,4.5,2.9c2.3,0,4.4-2,4.8-4.2
			c0.2-0.8-0.3-1.5-1.1-1.7c-0.8-0.2-1.5,0.3-1.7,1.1c-0.2,0.9-1,1.8-2,1.8c-0.7,0-1.4-0.5-2-1.5c-1.4-2.3-3-3-4.5-2.9
			c-2.3,0-4.4,2-4.8,4.1c-0.2,0.8,0.3,1.5,1.1,1.7C255.3,421.3,256.1,420.8,256.2,420z"/>
	</g>
	<g id="Light-M">
		<path class="st7" d="M202.6,420c0.2-0.9,1.1-1.9,2.1-1.9c0.7,0,1.4,0.5,2.1,1.6c1.3,2.2,3,2.9,4.5,2.9c2.3,0,4.3-2,4.7-4.1
			c0.1-0.7-0.3-1.4-1.1-1.6c-0.7-0.1-1.4,0.3-1.6,1.1c-0.2,0.9-1.1,1.9-2.1,1.9c-0.7,0-1.4-0.5-2.1-1.6c-1.3-2.2-3-2.9-4.5-2.9
			c-2.3,0-4.3,2-4.7,4.1c-0.1,0.7,0.3,1.4,1.1,1.6C201.8,421.2,202.5,420.7,202.6,420z"/>
	</g>
	<g id="Thin-M">
		<path class="st7" d="M149,419.9c0.2-1,1.1-2,2.2-2c0.8,0,1.5,0.5,2.2,1.6c1.3,2.2,2.9,2.9,4.4,2.9c2.2,0,4.2-2,4.6-4
			c0.1-0.7-0.3-1.4-1-1.5c-0.7-0.1-1.4,0.3-1.5,1c-0.2,1-1.1,2-2.2,2c-0.8,0-1.5-0.5-2.2-1.6c-1.3-2.2-2.9-2.9-4.4-2.9
			c-2.2,0-4.2,2-4.6,4c-0.1,0.7,0.3,1.4,1,1.5C148.2,421.1,148.9,420.6,149,419.9z"/>
	</g>
	<g id="Ultralight-M">
		<path class="st7" d="M95.4,419.9c0.2-1,1.2-2,2.3-2.1c0.8,0,1.6,0.5,2.3,1.7c1.3,2.1,2.9,2.8,4.3,2.8c2.2,0,4.1-1.9,4.5-3.9
			c0.1-0.6-0.3-1.3-0.9-1.4c-0.6-0.1-1.3,0.3-1.4,0.9c-0.2,1-1.2,2-2.3,2.1c-0.8,0-1.6-0.5-2.3-1.7c-1.3-2.1-2.9-2.8-4.3-2.8
			c-2.2,0-4.1,1.9-4.5,3.9c-0.1,0.6,0.3,1.3,0.9,1.4C94.7,421,95.3,420.5,95.4,419.9z"/>
	</g>
	<g id="Black-S">
		<path class="st7" d="M526.5,342.6c0-0.2,0.2-0.5,0.5-0.5c0.2,0,0.4,0.3,0.6,0.6c1.1,1.9,2.6,2.5,3.9,2.4c2,0,3.8-1.7,4.1-3.5
			c0.2-1-0.5-2-1.5-2.2c-1-0.2-2,0.5-2.2,1.5c0,0.2-0.2,0.5-0.5,0.5c-0.2,0-0.4-0.3-0.6-0.6c-1.1-1.9-2.6-2.5-3.9-2.4
			c-2,0-3.8,1.7-4.1,3.5c-0.2,1,0.5,2,1.5,2.2C525.3,344.3,526.3,343.6,526.5,342.6z"/>
	</g>
	<g id="Heavy-S">
		<path class="st7" d="M472.9,342.6c0.1-0.3,0.3-0.6,0.6-0.6c0.2,0,0.4,0.3,0.6,0.6c1.1,1.9,2.6,2.4,3.8,2.4c1.9,0,3.7-1.7,4-3.5
			c0.2-1-0.4-1.9-1.4-2.1c-1-0.2-1.9,0.4-2.1,1.4c-0.1,0.3-0.3,0.6-0.6,0.6c-0.2,0-0.4-0.3-0.6-0.6c-1.1-1.9-2.6-2.4-3.8-2.4
			c-1.9,0-3.7,1.7-4,3.5c-0.2,1,0.4,1.9,1.4,2.1S472.7,343.5,472.9,342.6z"/>
	</g>
	<g id="Bold-S">
		<path class="st7" d="M419.3,342.5c0.1-0.3,0.3-0.6,0.7-0.6c0.3,0,0.5,0.3,0.7,0.7c1.1,1.8,2.5,2.4,3.7,2.3c1.9,0,3.6-1.7,3.9-3.4
			c0.2-0.9-0.4-1.8-1.3-2c-0.9-0.2-1.8,0.4-2,1.3c-0.1,0.3-0.3,0.6-0.7,0.6c-0.3,0-0.5-0.3-0.7-0.7c-1.1-1.8-2.5-2.4-3.7-2.3
			c-1.9,0-3.6,1.7-3.9,3.4c-0.2,0.9,0.4,1.8,1.3,2C418.2,344.1,419.1,343.5,419.3,342.5z"/>
	</g>
	<g id="Semibold-S">
		<path class="st7" d="M365.7,342.5c0.1-0.3,0.4-0.7,0.7-0.7c0.3,0,0.5,0.3,0.8,0.7c1.1,1.8,2.4,2.3,3.6,2.3c1.9,0,3.5-1.6,3.9-3.3
			c0.2-0.9-0.4-1.7-1.3-1.9c-0.9-0.2-1.7,0.4-1.9,1.3c-0.1,0.3-0.4,0.7-0.7,0.7c-0.3,0-0.5-0.3-0.8-0.7c-1.1-1.8-2.4-2.3-3.6-2.3
			c-1.9,0-3.5,1.6-3.9,3.3c-0.2,0.9,0.4,1.7,1.3,1.9C364.6,344,365.5,343.4,365.7,342.5z"/>
	</g>
	<g id="Medium-S">
		<path class="st7" d="M312.1,342.5c0.1-0.4,0.4-0.8,0.8-0.8c0.3,0,0.6,0.3,0.9,0.8c1.1,1.7,2.4,2.3,3.6,2.3c1.8,0,3.4-1.6,3.8-3.2
			c0.2-0.8-0.4-1.6-1.2-1.8c-0.8-0.2-1.6,0.4-1.8,1.2c-0.1,0.4-0.4,0.8-0.8,0.8c-0.3,0-0.6-0.3-0.9-0.8c-1.1-1.7-2.4-2.3-3.6-2.3
			c-1.8,0-3.4,1.6-3.8,3.2c-0.2,0.8,0.4,1.6,1.2,1.8C311.1,343.9,311.9,343.3,312.1,342.5z"/>
	</g>
	<g id="Regular-S">
		<path class="st7" d="M258.4,342.5c0.1-0.4,0.5-0.9,0.9-0.9c0.3,0,0.6,0.3,0.9,0.8c1,1.7,2.3,2.2,3.5,2.2c1.8,0,3.4-1.6,3.7-3.2
			c0.2-0.8-0.3-1.5-1.1-1.7c-0.8-0.2-1.5,0.4-1.7,1.1c-0.1,0.4-0.5,0.9-0.9,0.9c-0.3,0-0.6-0.3-0.9-0.8c-1-1.7-2.3-2.2-3.5-2.2
			c-1.8,0-3.4,1.6-3.7,3.2c-0.2,0.8,0.3,1.5,1.1,1.7C257.5,343.8,258.3,343.3,258.4,342.5z"/>
	</g>
	<g id="Light-S">
		<path class="st7" d="M204.8,342.5c0.1-0.4,0.5-0.9,1-0.9c0.4,0,0.7,0.3,1,0.9c1,1.7,2.3,2.2,3.4,2.2c1.7,0,3.3-1.5,3.6-3.1
			c0.1-0.7-0.3-1.4-1.1-1.6c-0.7-0.1-1.4,0.3-1.6,1.1c-0.1,0.5-0.5,0.9-1,0.9c-0.4,0-0.7-0.3-1-0.9c-1-1.7-2.3-2.2-3.4-2.2
			c-1.7,0-3.3,1.5-3.6,3.1c-0.1,0.7,0.3,1.4,1.1,1.6C204,343.7,204.7,343.2,204.8,342.5z"/>
	</g>
	<g id="Thin-S">
		<path class="st7" d="M151.2,342.5c0.1-0.5,0.5-1,1.1-1c0.4,0,0.7,0.3,1.1,0.9c1,1.6,2.2,2.1,3.3,2.1c1.7,0,3.2-1.5,3.5-3
			c0.1-0.7-0.3-1.4-1-1.5c-0.7-0.1-1.4,0.3-1.5,1c-0.1,0.5-0.5,1-1.1,1c-0.4,0-0.7-0.3-1.1-0.9c-1-1.6-2.2-2.1-3.3-2.1
			c-1.7,0-3.2,1.5-3.5,3c-0.1,0.7,0.3,1.4,1,1.5C150.4,343.6,151.1,343.1,151.2,342.5z"/>
	</g>
	<g id="Ultralight-S">
		<path class="st7" d="M97.6,342.4c0.1-0.5,0.6-1.1,1.2-1.1c0.4,0,0.8,0.3,1.2,0.9c1,1.6,2.2,2.1,3.2,2.1c1.6,0,3.1-1.5,3.4-3
			c0.1-0.6-0.3-1.3-0.9-1.4c-0.6-0.1-1.3,0.3-1.4,0.9c-0.1,0.5-0.6,1.1-1.2,1.1c-0.4,0-0.8-0.3-1.2-0.9c-1-1.6-2.2-2.1-3.2-2.1
			c-1.6,0-3.1,1.5-3.4,3c-0.1,0.6,0.3,1.3,0.9,1.4C96.9,343.5,97.5,343.1,97.6,342.4z"/>
	</g>
</g>
</svg>
