<?xml version="1.0" encoding="utf-8"?>
<!-- Generator: Adobe Illustrator 24.0.1, SVG Export Plug-In . SVG Version: 6.00 Build 0)  -->
<svg version="1.1" id="Layer_1" xmlns:serif="http://www.serif.com/"
	 xmlns="http://www.w3.org/2000/svg" xmlns:xlink="http://www.w3.org/1999/xlink" x="0px" y="0px" viewBox="0 0 595.3 841.9"
	 style="enable-background:new 0 0 595.3 841.9;" xml:space="preserve">
<style type="text/css">
	.st0{fill-rule:evenodd;clip-rule:evenodd;fill:#FFFFFF;}
	.st1{fill:none;stroke:#000000;stroke-width:9.019327e-02;stroke-miterlimit:10;}
	.st2{font-family:'SFProDisplay-Regular';}
	.st3{font-size:2.8862px;}
	.st4{fill:none;stroke:#00AEEF;stroke-width:9.019327e-02;stroke-miterlimit:10;}
	.st5{fill:#27AAE1;}
	.st6{fill:none;stroke:#27AAE1;stroke-width:9.019327e-02;stroke-miterlimit:10;}
	.st7{fill-rule:evenodd;clip-rule:evenodd;fill:#CFC48A;}
	.st8{fill-rule:evenodd;clip-rule:evenodd;fill:#AE9848;}
</style>
<g id="Notes">
	<g id="artboard" transform="matrix(1,0,0,1,0,1.31276)">
		<rect y="221.4" class="st0" width="595.3" height="396.9"/>
	</g>
	<path class="st1" d="M47.4,275.2h500.2"/>
	<g transform="matrix(1,0,0,1,263,322)">
		<text transform="matrix(1 0 0 1 -215.5586 -41.3959)" class="st2 st3">W</text>
		<text transform="matrix(1 0 0 1 -213.0474 -41.3959)" class="st2 st3">e</text>
		<text transform="matrix(1 0 0 1 -211.5688 -41.3959)" class="st2 st3">ight/Scale V</text>
		<text transform="matrix(1 0 0 1 -197.2832 -41.3959)" class="st2 st3">a</text>
		<text transform="matrix(1 0 0 1 -195.8345 -41.3959)" class="st2 st3">riations</text>
	</g>
	<g transform="matrix(1,0,0,1,559.711,322)">
		<text transform="matrix(1 0 0 1 -464.2325 -41.3959)" class="st2 st3">Ultr</text>
		<text transform="matrix(1 0 0 1 -459.9029 -41.3959)" class="st2 st3">a</text>
		<text transform="matrix(1 0 0 1 -458.4542 -41.3959)" class="st2 st3">light</text>
	</g>
	<g transform="matrix(1,0,0,1,856.422,322)">
		<text transform="matrix(1 0 0 1 -704.609 -41.3959)" class="st2 st3">Thin</text>
	</g>
	<g transform="matrix(1,0,0,1,1153.13,322)">
		<text transform="matrix(1 0 0 1 -948.1798 -41.3959)" class="st2 st3">Light</text>
	</g>
	<g transform="matrix(1,0,0,1,1449.84,322)">
		<text transform="matrix(1 0 0 1 -1192.9279 -41.3959)" class="st2 st3">Regular</text>
	</g>
	<g transform="matrix(1,0,0,1,1746.56,322)">
		<text transform="matrix(1 0 0 1 -1436.4585 -41.3959)" class="st2 st3">Medium</text>
	</g>
	<g transform="matrix(1,0,0,1,2043.27,322)">
		<text transform="matrix(1 0 0 1 -1680.4019 -41.3959)" class="st2 st3">Semibold</text>
	</g>
	<g transform="matrix(1,0,0,1,2339.98,322)">
		<text transform="matrix(1 0 0 1 -1920.6108 -41.3959)" class="st2 st3">Bold</text>
	</g>
	<g transform="matrix(1,0,0,1,2636.69,322)">
		<text transform="matrix(1 0 0 1 -2164.938 -41.3959)" class="st2 st3">Heavy</text>
	</g>
	<g transform="matrix(1,0,0,1,2933.4,322)">
		<text transform="matrix(1 0 0 1 -2407.5688 -41.3959)" class="st2 st3">Black</text>
	</g>
	<path class="st1" d="M47.4,565.8h500.2"/>
	<g transform="matrix(1,0,0,1,263,1933)">
		<path d="M-213.9-1361.6c0.8,0,1.4-0.6,1.4-1.4s-0.6-1.4-1.4-1.4c-0.8,0-1.4,0.6-1.4,1.4C-215.3-1362.3-214.7-1361.6-213.9-1361.6z
			 M-213.9-1361.9c-0.6,0-1.2-0.5-1.2-1.2c0-0.6,0.5-1.2,1.1-1.2s1.2,0.5,1.2,1.2C-212.7-1362.4-213.2-1361.9-213.9-1361.9z
			 M-214.4-1362.9h0.4v0.4c0,0.1,0.1,0.1,0.1,0.1c0.1,0,0.1-0.1,0.1-0.1v-0.4h0.4c0.1,0,0.1-0.1,0.1-0.1c0-0.1-0.1-0.1-0.1-0.1h-0.4
			v-0.4c0-0.1-0.1-0.1-0.1-0.1c-0.1,0-0.1,0.1-0.1,0.1v0.4h-0.4c-0.1,0-0.1,0.1-0.1,0.1S-214.5-1362.9-214.4-1362.9z"/>
	</g>
	<g transform="matrix(1,0,0,1,281.506,1933)">
		<path d="M-228.6-1361.3c1,0,1.8-0.8,1.8-1.8s-0.8-1.8-1.8-1.8s-1.8,0.8-1.8,1.8C-230.4-1362.1-229.6-1361.3-228.6-1361.3z
			 M-228.6-1361.6c-0.8,0-1.5-0.7-1.5-1.5s0.7-1.5,1.5-1.5s1.5,0.7,1.5,1.5C-227.1-1362.2-227.8-1361.6-228.6-1361.6z
			 M-229.3-1362.9h0.5v0.5c0,0.1,0.1,0.1,0.1,0.1c0.1,0,0.1-0.1,0.1-0.1v-0.5h0.5c0.1,0,0.1-0.1,0.1-0.1c0-0.1-0.1-0.1-0.1-0.1h-0.5
			v-0.5c0-0.1-0.1-0.2-0.1-0.2c-0.1,0-0.1,0.1-0.1,0.2v0.5h-0.5c-0.1,0-0.2,0.1-0.2,0.1C-229.4-1363-229.4-1362.9-229.3-1362.9z"/>
	</g>
	<g transform="matrix(1,0,0,1,304.924,1933)">
		<path d="M-247.2-1360.8c1.3,0,2.3-1,2.3-2.3s-1-2.3-2.3-2.3s-2.3,1-2.3,2.3S-248.5-1360.8-247.2-1360.8z M-247.2-1361.1
			c-1.1,0-2-0.9-2-2s0.9-2,2-2s2,0.9,2,2C-245.3-1362-246.1-1361.1-247.2-1361.1z M-248.1-1362.9h0.7v0.7c0,0.1,0.1,0.2,0.2,0.2
			c0.1,0,0.2-0.1,0.2-0.2v-0.7h0.7c0.1,0,0.2-0.1,0.2-0.2s-0.1-0.2-0.2-0.2h-0.7v-0.7c0-0.1-0.1-0.2-0.2-0.2c-0.1,0-0.2,0.1-0.2,0.2
			v0.7h-0.7c-0.1,0-0.2,0.1-0.2,0.2S-248.2-1362.9-248.1-1362.9z"/>
	</g>
	<g transform="matrix(1,0,0,1,263,1953)">
		<text transform="matrix(1 0 0 1 -215.5586 -1378.1854)" class="st2 st3">Design V</text>
		<text transform="matrix(1 0 0 1 -204.8774 -1378.1854)" class="st2 st3">a</text>
		<text transform="matrix(1 0 0 1 -203.4287 -1378.1854)" class="st2 st3">riations</text>
	</g>
	<g transform="matrix(1,0,0,1,263,1971)">
		<text transform="matrix(1 0 0 1 -215.5586 -1392.9384)" class="st2 st3">Symbols ar</text>
		<text transform="matrix(1 0 0 1 -202.2026 -1392.9384)" class="st2 st3">e</text>
		<text transform="matrix(1 0 0 1 -200.7246 -1392.9384)" class="st2 st3"> support</text>
		<text transform="matrix(1 0 0 1 -190.8496 -1392.9384)" class="st2 st3">e</text>
		<text transform="matrix(1 0 0 1 -189.3716 -1392.9384)" class="st2 st3">d in up t</text>
		<text transform="matrix(1 0 0 1 -179.9492 -1392.9384)" class="st2 st3">o</text>
		<text transform="matrix(1 0 0 1 -178.4175 -1392.9384)" class="st2 st3"> nine weights and thr</text>
		<text transform="matrix(1 0 0 1 -153.6338 -1392.9384)" class="st2 st3">e</text>
		<text transform="matrix(1 0 0 1 -152.1553 -1392.9384)" class="st2 st3">e scales.</text>
	</g>
	<g transform="matrix(1,0,0,1,263,1989)">
		<text transform="matrix(1 0 0 1 -215.5586 -1407.6913)" class="st2 st3">F</text>
		<text transform="matrix(1 0 0 1 -214.0913 -1407.6913)" class="st2 st3">o</text>
		<text transform="matrix(1 0 0 1 -212.5596 -1407.6913)" class="st2 st3">r optimal lay</text>
		<text transform="matrix(1 0 0 1 -198.1641 -1407.6913)" class="st2 st3">o</text>
		<text transform="matrix(1 0 0 1 -196.6318 -1407.6913)" class="st2 st3">ut with t</text>
		<text transform="matrix(1 0 0 1 -187.146 -1407.6913)" class="st2 st3">e</text>
		<text transform="matrix(1 0 0 1 -185.6963 -1407.6913)" class="st2 st3">x</text>
		<text transform="matrix(1 0 0 1 -184.3447 -1407.6913)" class="st2 st3">t and other symbols,</text>
		<text transform="matrix(1 0 0 1 -160.2012 -1407.6913)" class="st2 st3"> </text>
		<text transform="matrix(1 0 0 1 -159.6089 -1407.6913)" class="st2 st3">v</text>
		<text transform="matrix(1 0 0 1 -158.2715 -1407.6913)" class="st2 st3">e</text>
		<text transform="matrix(1 0 0 1 -156.7935 -1407.6913)" class="st2 st3">rtically align</text>
	</g>
	<g transform="matrix(1,0,0,1,263,2007)">
		<text transform="matrix(1 0 0 1 -215.5586 -1422.4442)" class="st2 st3">symbols with the adjacent t</text>
		<text transform="matrix(1 0 0 1 -182.8467 -1422.4442)" class="st2 st3">e</text>
		<text transform="matrix(1 0 0 1 -181.3965 -1422.4442)" class="st2 st3">x</text>
		<text transform="matrix(1 0 0 1 -180.0449 -1422.4442)" class="st2 st3">t.</text>
	</g>
	<path class="st4" d="M140,568.7v2.5"/>
	<g transform="matrix(1,0,0,1,776,1933)">
		<path d="M-635.4-1361.8c0.1,0,0.1,0,0.2-0.1l0.2-0.6h1l0.2,0.6c0,0.1,0.1,0.1,0.2,0.1c0.1,0,0.2-0.1,0.2-0.1v-0.1l-0.8-2.2
			c0-0.1-0.1-0.2-0.2-0.2c-0.1,0-0.2,0.1-0.2,0.2l-0.8,2.2L-635.4-1361.8C-635.6-1361.8-635.5-1361.8-635.4-1361.8z M-634.9-1362.8
			l0.4-1.2l0,0l0.4,1.2H-634.9z"/>
	</g>
	<path class="st4" d="M143,568.7v2.5"/>
	<g transform="matrix(1,0,0,1,776,1953)">
		<text transform="matrix(1 0 0 1 -636.02 -1378.1854)" class="st2 st3">M</text>
		<text transform="matrix(1 0 0 1 -633.6641 -1378.1854)" class="st2 st3">a</text>
		<text transform="matrix(1 0 0 1 -632.2153 -1378.1854)" class="st2 st3">r</text>
		<text transform="matrix(1 0 0 1 -631.3965 -1378.1854)" class="st2 st3">g</text>
		<text transform="matrix(1 0 0 1 -629.8125 -1378.1854)" class="st2 st3">ins</text>
	</g>
	<g transform="matrix(1,0,0,1,776,1971)">
		<text transform="matrix(1 0 0 1 -636.02 -1392.9384)" class="st2 st3">L</text>
		<text transform="matrix(1 0 0 1 -634.5488 -1392.9384)" class="st2 st3">e</text>
		<text transform="matrix(1 0 0 1 -633.0708 -1392.9384)" class="st2 st3">ading and tr</text>
		<text transform="matrix(1 0 0 1 -618.8428 -1392.9384)" class="st2 st3">a</text>
		<text transform="matrix(1 0 0 1 -617.394 -1392.9384)" class="st2 st3">iling mar</text>
		<text transform="matrix(1 0 0 1 -607.333 -1392.9384)" class="st2 st3">g</text>
		<text transform="matrix(1 0 0 1 -605.749 -1392.9384)" class="st2 st3">ins on the left and right side of each symbol</text>
	</g>
	<g transform="matrix(1,0,0,1,776,1989)">
		<text transform="matrix(1 0 0 1 -636.02 -1407.6913)" class="st2 st3">can be adjust</text>
		<text transform="matrix(1 0 0 1 -620.0151 -1407.6913)" class="st2 st3">e</text>
		<text transform="matrix(1 0 0 1 -618.5366 -1407.6913)" class="st2 st3">d b</text>
		<text transform="matrix(1 0 0 1 -614.8052 -1407.6913)" class="st2 st3">y</text>
		<text transform="matrix(1 0 0 1 -613.4014 -1407.6913)" class="st2 st3"> modifying the x</text>
		<text transform="matrix(1 0 0 1 -594.4043 -1407.6913)" class="st2 st3">-</text>
		<text transform="matrix(1 0 0 1 -593.167 -1407.6913)" class="st2 st3">location of the mar</text>
		<text transform="matrix(1 0 0 1 -570.9614 -1407.6913)" class="st2 st3">g</text>
		<text transform="matrix(1 0 0 1 -569.3774 -1407.6913)" class="st2 st3">in guidelines.</text>
	</g>
	<g transform="matrix(1,0,0,1,776,2007)">
		<text transform="matrix(1 0 0 1 -636.02 -1422.4442)" class="st2 st3">Modifications ar</text>
		<text transform="matrix(1 0 0 1 -616.812 -1422.4442)" class="st2 st3">e</text>
		<text transform="matrix(1 0 0 1 -615.3335 -1422.4442)" class="st2 st3"> aut</text>
		<text transform="matrix(1 0 0 1 -610.9448 -1422.4442)" class="st2 st3">o</text>
		<text transform="matrix(1 0 0 1 -609.4131 -1422.4442)" class="st2 st3">matically applied pr</text>
		<text transform="matrix(1 0 0 1 -586.2378 -1422.4442)" class="st2 st3">o</text>
		<text transform="matrix(1 0 0 1 -584.7061 -1422.4442)" class="st2 st3">portionally t</text>
		<text transform="matrix(1 0 0 1 -570.7329 -1422.4442)" class="st2 st3">o</text>
		<text transform="matrix(1 0 0 1 -569.2012 -1422.4442)" class="st2 st3"> all</text>
	</g>
	<g transform="matrix(1,0,0,1,776,2025)">
		<text transform="matrix(1 0 0 1 -636.02 -1437.1971)" class="st2 st3">scales and weights.</text>
	</g>
	<g transform="matrix(1,0,0,1,1289,1933)">
		<path d="M-1056-1361.5l0.3,0.3c0.2,0.2,0.3,0.1,0.5,0l1.8-2c0,0,0.1,0,0.2,0h0.2l0.1,0.1v0.1c0,0.1,0,0.2,0.1,0.2l0.1,0.1
			c0.1,0.1,0.2,0.1,0.3,0l0.5-0.5c0.1-0.1,0.1-0.2,0-0.3l-0.1-0.1c-0.1-0.1-0.2-0.1-0.2-0.1h-0.1l-0.1-0.1v-0.2c0-0.1,0-0.2-0.1-0.3
			l-0.4-0.4c-0.6-0.6-1.4-0.6-1.9-0.1c-0.1,0.1-0.1,0.2,0,0.2c0,0.1,0.1,0.1,0.2,0.1c0.3-0.1,0.5-0.1,0.8,0.1l-0.1,0.3
			c0,0.1,0,0.2,0,0.2l-2,1.9C-1056.1-1361.8-1056.1-1361.6-1056-1361.5z M-1054.5-1364.7c0.4-0.3,1-0.3,1.4,0.1l0.4,0.4v0.1
			l-0.1,0.3l0.3,0.3h0.2h0.1l0.1,0.1l-0.4,0.4l-0.1-0.1c0,0,0,0,0-0.1v-0.2l-0.3-0.3h-0.3c-0.1,0-0.1,0-0.1,0l-0.4-0.4
			c0,0-0.1-0.1,0-0.1l0.2-0.4C-1053.8-1364.6-1054.2-1364.7-1054.5-1364.7C-1054.6-1364.6-1054.6-1364.7-1054.5-1364.7z
			 M-1055.5-1361.4l-0.2-0.2c-0.1-0.1-0.1-0.1,0-0.2l1.9-1.8l0.3,0.3l-1.8,2C-1055.4-1361.3-1055.4-1361.3-1055.5-1361.4z"/>
	</g>
	<g transform="matrix(1,0,0,1,1289,1953)">
		<text transform="matrix(1 0 0 1 -1056.4819 -1378.1854)" class="st2 st3">Exporting</text>
	</g>
	<g transform="matrix(1,0,0,1,1289,1971)">
		<text transform="matrix(1 0 0 1 -1056.4819 -1392.9384)" class="st2 st3">Symbols should be outlined when e</text>
		<text transform="matrix(1 0 0 1 -1014.0391 -1392.9384)" class="st2 st3">x</text>
		<text transform="matrix(1 0 0 1 -1012.6875 -1392.9384)" class="st2 st3">porting t</text>
		<text transform="matrix(1 0 0 1 -1002.6929 -1392.9384)" class="st2 st3">o</text>
		<text transform="matrix(1 0 0 1 -1001.1611 -1392.9384)" class="st2 st3"> ensur</text>
		<text transform="matrix(1 0 0 1 -993.8877 -1392.9384)" class="st2 st3">e</text>
		<text transform="matrix(1 0 0 1 -992.4097 -1392.9384)" class="st2 st3"> the</text>
	</g>
	<g transform="matrix(1,0,0,1,1289,1989)">
		<text transform="matrix(1 0 0 1 -1056.4819 -1407.6913)" class="st2 st3">design is pr</text>
		<text transform="matrix(1 0 0 1 -1042.8374 -1407.6913)" class="st2 st3">e</text>
		<text transform="matrix(1 0 0 1 -1041.3589 -1407.6913)" class="st2 st3">serv</text>
		<text transform="matrix(1 0 0 1 -1036.311 -1407.6913)" class="st2 st3">e</text>
		<text transform="matrix(1 0 0 1 -1034.833 -1407.6913)" class="st2 st3">d when submitting t</text>
		<text transform="matrix(1 0 0 1 -1011.1992 -1407.6913)" class="st2 st3">o</text>
		<text transform="matrix(1 0 0 1 -1009.6675 -1407.6913)" class="st2 st3"> X</text>
		<text transform="matrix(1 0 0 1 -1007.3423 -1407.6913)" class="st2 st3">c</text>
		<text transform="matrix(1 0 0 1 -1005.896 -1407.6913)" class="st2 st3">ode.</text>
	</g>
	<g id="template-version" transform="matrix(1,0,0,1,3036,1933)">
		<text transform="matrix(1 0 0 1 -2505.7666 -1361.7928)" class="st2 st3">T</text>
		<text transform="matrix(1 0 0 1 -2504.4697 -1361.7928)" class="st2 st3">e</text>
		<text transform="matrix(1 0 0 1 -2502.9912 -1361.7928)" class="st2 st3">mplat</text>
		<text transform="matrix(1 0 0 1 -2496.2227 -1361.7928)" class="st2 st3">e</text>
		<text transform="matrix(1 0 0 1 -2494.7441 -1361.7928)" class="st2 st3"> v</text>
		<text transform="matrix(1 0 0 1 -2492.9707 -1361.7928)" class="st2 st3">.</text>
		<text transform="matrix(1 0 0 1 -2492.3506 -1361.7928)" class="st2 st3">2.0</text>
	</g>
	<g transform="matrix(1,0,0,1,3036,1951)">
		<text transform="matrix(1 0 0 1 -2522.9072 -1376.5458)" class="st2 st3">Requir</text>
		<text transform="matrix(1 0 0 1 -2515.1816 -1376.5458)" class="st2 st3">e</text>
		<text transform="matrix(1 0 0 1 -2513.7031 -1376.5458)" class="st2 st3">s X</text>
		<text transform="matrix(1 0 0 1 -2510.0352 -1376.5458)" class="st2 st3">c</text>
		<text transform="matrix(1 0 0 1 -2508.5889 -1376.5458)" class="st2 st3">ode 12 or gr</text>
		<text transform="matrix(1 0 0 1 -2494.4688 -1376.5458)" class="st2 st3">e</text>
		<text transform="matrix(1 0 0 1 -2492.9902 -1376.5458)" class="st2 st3">at</text>
		<text transform="matrix(1 0 0 1 -2490.7139 -1376.5458)" class="st2 st3">e</text>
		<text transform="matrix(1 0 0 1 -2489.2354 -1376.5458)" class="st2 st3">r</text>
	</g>
	<g transform="matrix(1,0,0,1,3036,1969)">
		<text transform="matrix(1 0 0 1 -2522.1221 -1391.2987)" class="st2 st3">Gener</text>
		<text transform="matrix(1 0 0 1 -2514.7451 -1391.2987)" class="st2 st3">a</text>
		<text transform="matrix(1 0 0 1 -2513.2959 -1391.2987)" class="st2 st3">t</text>
		<text transform="matrix(1 0 0 1 -2512.4688 -1391.2987)" class="st2 st3">e</text>
		<text transform="matrix(1 0 0 1 -2510.9902 -1391.2987)" class="st2 st3">d fr</text>
		<text transform="matrix(1 0 0 1 -2507.1055 -1391.2987)" class="st2 st3">o</text>
		<text transform="matrix(1 0 0 1 -2505.5732 -1391.2987)" class="st2 st3">m xmark.</text>
		<text transform="matrix(1 0 0 1 -2494.7188 -1391.2987)" class="st2 st3">c</text>
		<text transform="matrix(1 0 0 1 -2493.2734 -1391.2987)" class="st2 st3">ir</text>
		<text transform="matrix(1 0 0 1 -2491.8594 -1391.2987)" class="st2 st3">c</text>
		<text transform="matrix(1 0 0 1 -2490.4141 -1391.2987)" class="st2 st3">le</text>
	</g>
	<g transform="matrix(1,0,0,1,3036,1987)">
		<text transform="matrix(1 0 0 1 -2514.1631 -1406.0526)" class="st2 st3">T</text>
		<text transform="matrix(1 0 0 1 -2512.8242 -1406.0526)" class="st2 st3">y</text>
		<text transform="matrix(1 0 0 1 -2511.4199 -1406.0526)" class="st2 st3">peset at 100 points</text>
	</g>
	<g transform="matrix(1,0,0,1,263,726)">
		<text transform="matrix(1 0 0 1 -215.5586 -372.5199)" class="st2 st3">Small</text>
	</g>
	<g transform="matrix(1,0,0,1,263,1156)">
		<text transform="matrix(1 0 0 1 -215.5586 -724.953)" class="st2 st3">Medium</text>
	</g>
	<g transform="matrix(1,0,0,1,263,1586)">
		<text transform="matrix(1 0 0 1 -215.5586 -1077.3876)" class="st2 st3">Lar</text>
		<text transform="matrix(1 0 0 1 -211.7773 -1077.3876)" class="st2 st3">g</text>
		<text transform="matrix(1 0 0 1 -210.1934 -1077.3876)" class="st2 st3">e</text>
	</g>
</g>
<g id="Guides">
	<g id="H-reference" transform="matrix(1,0,0,1,339,696)">
		<path class="st5" d="M-277.7-347.9h0.5l1.7-4.4h5.9l1.7,4.4h0.5l-4.9-12.7h-0.4L-277.7-347.9z M-272.6-360L-272.6-360l2.8,7.3
			h-5.6L-272.6-360z"/>
	</g>
	<path id="Baseline-S" class="st6" d="M47.4,348.1h500.2"/>
	<path id="Capline-S" class="st6" d="M47.4,335.4h500.2"/>
	<g id="H-reference1" transform="matrix(1,0,0,1,339,1126)" serif:id="H-reference">
		<path class="st5" d="M-277.7-700.4h0.5l1.7-4.4h5.9l1.7,4.4h0.5l-4.9-12.7h-0.4L-277.7-700.4z M-272.6-712.5L-272.6-712.5l2.8,7.3
			h-5.6L-272.6-712.5z"/>
	</g>
	<path id="Baseline-M" class="st6" d="M47.4,425.6h500.2"/>
	<path id="Capline-M" class="st6" d="M47.4,412.9h500.2"/>
	<g id="H-reference2" transform="matrix(1,0,0,1,339,1556)" serif:id="H-reference">
		<path class="st5" d="M-277.7-1052.8h0.5l1.7-4.4h5.9l1.7,4.4h0.5l-4.9-12.7h-0.4L-277.7-1052.8z M-272.6-1064.9L-272.6-1064.9
			l2.8,7.3h-5.6L-272.6-1064.9z"/>
	</g>
	<path id="Baseline-L" class="st6" d="M47.4,503.2h500.2"/>
	<path id="Capline-L" class="st6" d="M47.4,490.5h500.2"/>
	<path id="left-margin" class="st4" d="M251,408.5V430"/>
	<path id="right-margin" class="st4" d="M272.1,408.5V430"/>
</g>
<g id="Symbols">
	<g id="Black-L" transform="matrix(1,0,0,1,2854.05,1556)">
		<path class="st7" d="M-2329.5-1052.8h3.4c1,0,1.9-0.8,1.9-1.9c0-1-0.8-1.9-1.9-1.9h-3.4c-1,0-1.9,0.8-1.9,1.9
			C-2331.4-1053.6-2330.6-1052.8-2329.5-1052.8z M-2329.5-1061.8h9.2c1,0,1.9-0.8,1.9-1.9s-0.8-1.9-1.9-1.9h-9.2
			c-1,0-1.9,0.8-1.9,1.9S-2330.6-1061.8-2329.5-1061.8z"/>
	</g>
	<g id="Heavy-L" transform="matrix(1,0,0,1,2558.39,1556)">
		<path class="st7" d="M-2087.4-1052.9h3.4c1,0,1.8-0.8,1.8-1.8s-0.8-1.8-1.8-1.8h-3.4c-1,0-1.8,0.8-1.8,1.8
			C-2089.2-1053.7-2088.4-1052.9-2087.4-1052.9z M-2087.4-1061.9h9.2c1,0,1.8-0.8,1.8-1.8s-0.8-1.8-1.8-1.8h-9.2
			c-1,0-1.8,0.8-1.8,1.8S-2088.4-1061.9-2087.4-1061.9z"/>
	</g>
	<g id="Bold-L" transform="matrix(1,0,0,1,2262.88,1556)">
		<path class="st7" d="M-1845.4-1053h3.4c0.9,0,1.7-0.8,1.7-1.7c0-0.9-0.8-1.7-1.7-1.7h-3.4c-0.9,0-1.7,0.8-1.7,1.7
			C-1847.1-1053.7-1846.3-1053-1845.4-1053z M-1845.4-1061.9h9.2c0.9,0,1.7-0.8,1.7-1.7s-0.8-1.7-1.7-1.7h-9.2
			c-0.9,0-1.7,0.8-1.7,1.7S-1846.3-1061.9-1845.4-1061.9z"/>
	</g>
	<g id="Semibold-L" transform="matrix(1,0,0,1,1966.97,1556)">
		<path class="st7" d="M-1603-1053h3.4c0.9,0,1.6-0.7,1.6-1.6s-0.7-1.6-1.6-1.6h-3.4c-0.9,0-1.6,0.7-1.6,1.6
			C-1604.6-1053.8-1603.9-1053-1603-1053z M-1603-1062h9.2c0.9,0,1.6-0.7,1.6-1.6s-0.7-1.6-1.6-1.6h-9.2c-0.9,0-1.6,0.7-1.6,1.6
			S-1603.9-1062-1603-1062z"/>
	</g>
	<g id="Medium-L" transform="matrix(1,0,0,1,1670.87,1556)">
		<path class="st7" d="M-1360.4-1053.1h3.4c0.8,0,1.5-0.7,1.5-1.5s-0.7-1.5-1.5-1.5h-3.4c-0.8,0-1.5,0.7-1.5,1.5
			C-1361.9-1053.8-1361.3-1053.1-1360.4-1053.1z M-1360.4-1062.1h9.2c0.8,0,1.5-0.7,1.5-1.5s-0.7-1.5-1.5-1.5h-9.2
			c-0.8,0-1.5,0.7-1.5,1.5S-1361.3-1062.1-1360.4-1062.1z"/>
	</g>
	<g id="Regular-L" transform="matrix(1,0,0,1,1374.97,1556)">
		<path class="st7" d="M-1118-1053.2h3.4c0.8,0,1.4-0.6,1.4-1.4s-0.6-1.4-1.4-1.4h-3.4c-0.8,0-1.4,0.6-1.4,1.4
			S-1118.8-1053.2-1118-1053.2z M-1118-1062.2h9.2c0.8,0,1.4-0.6,1.4-1.4s-0.6-1.4-1.4-1.4h-9.2c-0.8,0-1.4,0.6-1.4,1.4
			S-1118.8-1062.2-1118-1062.2z"/>
	</g>
	<g id="Light-L" transform="matrix(1,0,0,1,1079.18,1556)">
		<path class="st7" d="M-875.8-1053.3h3.4c0.7,0,1.4-0.6,1.4-1.4s-0.6-1.4-1.4-1.4h-3.4c-0.7,0-1.4,0.6-1.4,1.4
			S-876.5-1053.3-875.8-1053.3z M-875.8-1062.3h9.2c0.7,0,1.4-0.6,1.4-1.4s-0.6-1.4-1.4-1.4h-9.2c-0.7,0-1.4,0.6-1.4,1.4
			S-876.5-1062.3-875.8-1062.3z"/>
	</g>
	<g id="Thin-L" transform="matrix(1,0,0,1,783.693,1556)">
		<path class="st7" d="M-633.8-1053.4h3.4c0.7,0,1.3-0.6,1.3-1.3s-0.6-1.3-1.3-1.3h-3.4c-0.7,0-1.3,0.6-1.3,1.3
			S-634.5-1053.4-633.8-1053.4z M-633.8-1062.4h9.2c0.7,0,1.3-0.6,1.3-1.3s-0.6-1.3-1.3-1.3h-9.2c-0.7,0-1.3,0.6-1.3,1.3
			S-634.5-1062.4-633.8-1062.4z"/>
	</g>
	<g id="Ultralight-L" transform="matrix(1,0,0,1,487.616,1556)">
		<path class="st7" d="M-391.3-1053.5h3.4c0.6,0,1.2-0.5,1.2-1.2c0-0.6-0.5-1.2-1.2-1.2h-3.4c-0.6,0-1.2,0.5-1.2,1.2
			C-392.4-1054-391.9-1053.5-391.3-1053.5z M-391.3-1062.5h9.2c0.6,0,1.2-0.5,1.2-1.2s-0.5-1.2-1.2-1.2h-9.2c-0.6,0-1.2,0.5-1.2,1.2
			S-391.9-1062.5-391.3-1062.5z"/>
	</g>
	<g id="Black-M" transform="matrix(1,0,0,1,2870.97,1126)">
		<path class="st7" d="M-2345.5-701.2h2.7c1,0,1.9-0.8,1.9-1.9c0-1-0.8-1.9-1.9-1.9h-2.7c-1,0-1.9,0.8-1.9,1.9
			S-2346.6-701.2-2345.5-701.2z M-2345.5-708.4h7.4c1,0,1.9-0.8,1.9-1.9s-0.8-1.9-1.9-1.9h-7.4c-1,0-1.9,0.8-1.9,1.9
			S-2346.6-708.4-2345.5-708.4z"/>
	</g>
	<g id="Heavy-M" transform="matrix(1,0,0,1,2575.19,1126)">
		<path class="st7" d="M-2103.3-701.3h2.7c1,0,1.8-0.8,1.8-1.8s-0.8-1.8-1.8-1.8h-2.7c-1,0-1.8,0.8-1.8,1.8
			S-2104.3-701.3-2103.3-701.3z M-2103.3-708.5h7.4c1,0,1.8-0.8,1.8-1.8s-0.8-1.8-1.8-1.8h-7.4c-1,0-1.8,0.8-1.8,1.8
			S-2104.3-708.5-2103.3-708.5z"/>
	</g>
	<g id="Bold-M" transform="matrix(1,0,0,1,2279.5,1126)">
		<path class="st7" d="M-1861.1-701.4h2.7c0.9,0,1.7-0.8,1.7-1.7s-0.8-1.7-1.7-1.7h-2.7c-0.9,0-1.7,0.8-1.7,1.7
			C-1862.8-702.1-1862-701.4-1861.1-701.4z M-1861.1-708.6h7.4c0.9,0,1.7-0.8,1.7-1.7s-0.8-1.7-1.7-1.7h-7.4c-0.9,0-1.7,0.8-1.7,1.7
			C-1862.8-709.4-1862-708.6-1861.1-708.6z"/>
	</g>
	<g id="Semibold-M" transform="matrix(1,0,0,1,1983.5,1126)">
		<path class="st7" d="M-1618.6-701.5h2.7c0.9,0,1.6-0.7,1.6-1.6c0-0.9-0.7-1.6-1.6-1.6h-2.7c-0.9,0-1.6,0.7-1.6,1.6
			S-1619.5-701.5-1618.6-701.5z M-1618.6-708.7h7.4c0.9,0,1.6-0.7,1.6-1.6c0-0.9-0.7-1.6-1.6-1.6h-7.4c-0.9,0-1.6,0.7-1.6,1.6
			S-1619.5-708.7-1618.6-708.7z"/>
	</g>
	<g id="Medium-M" transform="matrix(1,0,0,1,1687.3,1126)">
		<path class="st8" d="M-1367.7-708.6l2.4,0.4c-0.1,0.4-0.4,1.4-1,2.2s-1.6,1.5-2.9,1.6c-1.2,0.1-2.4-0.2-3.8-1.5
			c-0.8-0.7-1.4-0.9-2.1-0.9s-1.1,0.5-1.4,1c-0.2,0.3-0.3,0.7-0.4,0.9l-2.4-0.4c0.1-0.4,0.4-1.4,1-2.2s1.6-1.5,2.9-1.6
			c1.2-0.1,2.4,0.2,3.8,1.5c0.8,0.7,1.4,0.9,2.1,0.9s1.1-0.5,1.4-1C-1367.8-708.1-1367.7-708.4-1367.7-708.6z"/>
	</g>
	<g id="Regular-M" transform="matrix(1,0,0,1,1391.3,1126)">
		<path class="st8" d="M-1125.2-708.6l2.4,0.4c-0.1,0.4-0.4,1.4-1,2.2s-1.6,1.5-2.9,1.6c-1.2,0.1-2.4-0.2-3.8-1.5
			c-0.8-0.7-1.4-0.9-2.1-0.9s-1.1,0.5-1.4,1c-0.2,0.3-0.3,0.7-0.4,0.9l-2.4-0.4c0.1-0.4,0.4-1.4,1-2.2s1.6-1.5,2.9-1.6
			c1.2-0.1,2.4,0.2,3.8,1.5c0.8,0.7,1.4,0.9,2.1,0.9s1.1-0.5,1.4-1C-1125.3-708.1-1125.2-708.4-1125.2-708.6z"/>
	</g>
	<g id="Light-M" transform="matrix(1,0,0,1,1095.42,1126)">
		<path class="st7" d="M-891.1-701.7h2.7c0.7,0,1.4-0.6,1.4-1.4c0-0.7-0.6-1.4-1.4-1.4h-2.7c-0.7,0-1.4,0.6-1.4,1.4
			S-891.9-701.7-891.1-701.7z M-891.1-709h7.4c0.7,0,1.4-0.6,1.4-1.4c0-0.7-0.6-1.4-1.4-1.4h-7.4c-0.7,0-1.4,0.6-1.4,1.4
			S-891.9-709-891.1-709z"/>
	</g>
	<g id="Thin-M" transform="matrix(1,0,0,1,799.806,1126)">
		<path class="st7" d="M-649-701.8h2.7c0.7,0,1.3-0.6,1.3-1.3s-0.6-1.3-1.3-1.3h-2.7c-0.7,0-1.3,0.6-1.3,1.3
			C-650.3-702.4-649.7-701.8-649-701.8z M-649-709.1h7.4c0.7,0,1.3-0.6,1.3-1.3s-0.6-1.3-1.3-1.3h-7.4c-0.7,0-1.3,0.6-1.3,1.3
			C-650.3-709.6-649.7-709.1-649-709.1z"/>
	</g>
	<g id="Ultralight-M" transform="matrix(1,0,0,1,503.656,1126)">
		<path class="st7" d="M-406.4-701.9h2.7c0.6,0,1.2-0.5,1.2-1.2c0-0.6-0.5-1.2-1.2-1.2h-2.7c-0.6,0-1.2,0.5-1.2,1.2
			S-407-701.9-406.4-701.9z M-406.4-709.2h7.4c0.6,0,1.2-0.5,1.2-1.2c0-0.6-0.5-1.2-1.2-1.2h-7.4c-0.6,0-1.2,0.5-1.2,1.2
			S-407-709.2-406.4-709.2z"/>
	</g>
	<g id="Black-S" transform="matrix(1,0,0,1,2884.57,696)">
		<path class="st7" d="M-2358.1-349.8h2c1,0,1.9-0.8,1.9-1.9c0-1-0.8-1.9-1.9-1.9h-2c-1,0-1.9,0.8-1.9,1.9
			C-2360-350.6-2359.2-349.8-2358.1-349.8z M-2358.1-355h5.4c1,0,1.9-0.8,1.9-1.9c0-1-0.8-1.9-1.9-1.9h-5.4c-1,0-1.9,0.8-1.9,1.9
			C-2360-355.9-2359.2-355-2358.1-355z"/>
	</g>
	<g id="Heavy-S" transform="matrix(1,0,0,1,2588.47,696)">
		<path class="st7" d="M-2115.6-349.8h2c1,0,1.8-0.8,1.8-1.8s-0.8-1.8-1.8-1.8h-2c-1,0-1.8,0.8-1.8,1.8
			C-2117.4-350.7-2116.5-349.8-2115.6-349.8z M-2115.6-355.1h5.4c1,0,1.8-0.8,1.8-1.8s-0.8-1.8-1.8-1.8h-5.4c-1,0-1.8,0.8-1.8,1.8
			C-2117.4-355.9-2116.5-355.1-2115.6-355.1z"/>
	</g>
	<g id="Bold-S" transform="matrix(1,0,0,1,2292.44,696)">
		<path class="st7" d="M-1873-349.9h2c0.9,0,1.7-0.8,1.7-1.7c0-0.9-0.8-1.7-1.7-1.7h-2c-0.9,0-1.7,0.8-1.7,1.7
			C-1874.8-350.7-1874-349.9-1873-349.9z M-1873-355.2h5.4c0.9,0,1.7-0.8,1.7-1.7s-0.8-1.7-1.7-1.7h-5.4c-0.9,0-1.7,0.8-1.7,1.7
			S-1874-355.2-1873-355.2z"/>
	</g>
	<g id="Semibold-S" transform="matrix(1,0,0,1,1996.2,696)">
		<path class="st7" d="M-1630.3-350h2c0.9,0,1.6-0.7,1.6-1.6s-0.7-1.6-1.6-1.6h-2c-0.9,0-1.6,0.7-1.6,1.6
			C-1631.9-350.8-1631.2-350-1630.3-350z M-1630.3-355.3h5.4c0.9,0,1.6-0.7,1.6-1.6s-0.7-1.6-1.6-1.6h-5.4c-0.9,0-1.6,0.7-1.6,1.6
			S-1631.2-355.3-1630.3-355.3z"/>
	</g>
	<g id="Medium-S" transform="matrix(1,0,0,1,1699.83,696)">
		<path class="st7" d="M-1387.5-350.1h2c0.8,0,1.5-0.7,1.5-1.5s-0.7-1.5-1.5-1.5h-2c-0.8,0-1.5,0.7-1.5,1.5
			S-1388.3-350.1-1387.5-350.1z M-1387.5-355.4h5.4c0.8,0,1.5-0.7,1.5-1.5s-0.7-1.5-1.5-1.5h-5.4c-0.8,0-1.5,0.7-1.5,1.5
			S-1388.3-355.4-1387.5-355.4z"/>
	</g>
	<g id="Regular-S" transform="matrix(1,0,0,1,1403.58,696)">
		<path class="st7" d="M-1144.8-350.2h2c0.8,0,1.4-0.6,1.4-1.4s-0.6-1.4-1.4-1.4h-2c-0.8,0-1.4,0.6-1.4,1.4
			C-1146.2-350.9-1145.5-350.2-1144.8-350.2z M-1144.8-355.5h5.4c0.8,0,1.4-0.6,1.4-1.4s-0.6-1.4-1.4-1.4h-5.4
			c-0.8,0-1.4,0.6-1.4,1.4C-1146.2-356.1-1145.5-355.5-1144.8-355.5z"/>
	</g>
	<g id="Light-S" transform="matrix(1,0,0,1,1107.6,696)">
		<path class="st7" d="M-902.3-350.3h2c0.7,0,1.4-0.6,1.4-1.4c0-0.7-0.6-1.4-1.4-1.4h-2c-0.7,0-1.4,0.6-1.4,1.4
			C-903.6-350.9-903-350.3-902.3-350.3z M-902.3-355.6h5.4c0.7,0,1.4-0.6,1.4-1.4c0-0.7-0.6-1.4-1.4-1.4h-5.4
			c-0.7,0-1.4,0.6-1.4,1.4C-903.6-356.2-903-355.6-902.3-355.6z"/>
	</g>
	<g id="Thin-S" transform="matrix(1,0,0,1,811.867,696)">
		<path class="st7" d="M-660.1-350.4h2c0.7,0,1.3-0.6,1.3-1.3c0-0.7-0.6-1.3-1.3-1.3h-2c-0.7,0-1.3,0.6-1.3,1.3
			C-661.3-350.9-660.8-350.4-660.1-350.4z M-660.1-355.7h5.4c0.7,0,1.3-0.6,1.3-1.3c0-0.7-0.6-1.3-1.3-1.3h-5.4
			c-0.7,0-1.3,0.6-1.3,1.3C-661.3-356.2-660.8-355.7-660.1-355.7z"/>
	</g>
	<g id="Ultralight-S" transform="matrix(1,0,0,1,515.644,696)">
		<path class="st7" d="M-417.4-350.5h2c0.6,0,1.2-0.5,1.2-1.2c0-0.6-0.5-1.2-1.2-1.2h-2c-0.6,0-1.2,0.5-1.2,1.2
			S-418-350.5-417.4-350.5z M-417.4-355.8h5.4c0.6,0,1.2-0.5,1.2-1.2c0-0.6-0.5-1.2-1.2-1.2h-5.4c-0.6,0-1.2,0.5-1.2,1.2
			S-418-355.8-417.4-355.8z"/>
	</g>
</g>
</svg>
