<?xml version="1.0" encoding="utf-8"?>
<!-- Generator: Adobe Illustrator 24.0.1, SVG Export Plug-In . SVG Version: 6.00 Build 0)  -->
<svg version="1.1" id="Layer_1" xmlns:serif="http://www.serif.com/"
	 xmlns="http://www.w3.org/2000/svg" xmlns:xlink="http://www.w3.org/1999/xlink" x="0px" y="0px" viewBox="0 0 3300 2200"
	 style="enable-background:new 0 0 3300 2200;" xml:space="preserve">
<style type="text/css">
	.st0{fill-rule:evenodd;clip-rule:evenodd;fill:#FFFFFF;}
	.st1{fill:none;stroke:#000000;stroke-width:0.5;}
	.st2{font-family:'SFProDisplay-Regular';}
	.st3{font-size:16px;}
	.st4{fill:none;stroke:#00AEEF;stroke-width:0.5;}
	.st5{fill:#27AAE1;}
	.st6{fill:none;stroke:#27AAE1;stroke-width:0.5;}
	.st7{fill-rule:evenodd;clip-rule:evenodd;}
</style>
<g id="Notes">
	<g id="artboard" transform="matrix(1,0,0,1,0,1.31276)">
		<rect y="0" class="st0" width="3300" height="2200"/>
	</g>
	<path class="st1" d="M263,292h2773"/>
	<g transform="matrix(1,0,0,1,263,322)">
		<text transform="matrix(1 0 0 1 0 -6.728313e-06)" class="st2 st3">W</text>
		<text transform="matrix(1 0 0 1 13.922 -6.728313e-06)" class="st2 st3">e</text>
		<text transform="matrix(1 0 0 1 22.1173 -6.728313e-06)" class="st2 st3">ight/Scale V</text>
		<text transform="matrix(1 0 0 1 101.313 -6.728313e-06)" class="st2 st3">a</text>
		<text transform="matrix(1 0 0 1 109.3442 -6.728313e-06)" class="st2 st3">riations</text>
	</g>
	<g transform="matrix(1,0,0,1,559.711,322)">
		<text transform="matrix(1 0 0 1 -30.41 -6.728313e-06)" class="st2 st3">Ultr</text>
		<text transform="matrix(1 0 0 1 -6.41 -6.728313e-06)" class="st2 st3">a</text>
		<text transform="matrix(1 0 0 1 1.6213 -6.728313e-06)" class="st2 st3">light</text>
	</g>
	<g transform="matrix(1,0,0,1,856.422,322)">
		<text transform="matrix(1 0 0 1 -14.824 -6.728313e-06)" class="st2 st3">Thin</text>
	</g>
	<g transform="matrix(1,0,0,1,1153.13,322)">
		<text transform="matrix(1 0 0 1 -16.957 -6.728313e-06)" class="st2 st3">Light</text>
	</g>
	<g transform="matrix(1,0,0,1,1449.84,322)">
		<text transform="matrix(1 0 0 1 -25.609 -6.728313e-06)" class="st2 st3">Regular</text>
	</g>
	<g transform="matrix(1,0,0,1,1746.56,322)">
		<text transform="matrix(1 0 0 1 -27.465 -6.728313e-06)" class="st2 st3">Medium</text>
	</g>
	<g transform="matrix(1,0,0,1,2043.27,322)">
		<text transform="matrix(1 0 0 1 -31.656 -6.728313e-06)" class="st2 st3">Semibold</text>
	</g>
	<g transform="matrix(1,0,0,1,2339.98,322)">
		<text transform="matrix(1 0 0 1 -15.145 -6.728313e-06)" class="st2 st3">Bold</text>
	</g>
	<g transform="matrix(1,0,0,1,2636.69,322)">
		<text transform="matrix(1 0 0 1 -21.4609 -6.728313e-06)" class="st2 st3">Heavy</text>
	</g>
	<g transform="matrix(1,0,0,1,2933.4,322)">
		<text transform="matrix(1 0 0 1 -18.375 -6.728313e-06)" class="st2 st3">Black</text>
	</g>
	<path class="st1" d="M263,1903h2773"/>
	<g transform="matrix(1,0,0,1,263,1933)">
		<path d="M9.2,0.8c4.3,0,7.9-3.6,7.9-7.9c0-4.3-3.6-7.9-7.9-7.9c-4.3,0-7.9,3.6-7.9,7.9C1.4-2.7,5,0.8,9.2,0.8z M9.2-0.7
			c-3.5,0-6.4-2.8-6.4-6.4c0-3.6,2.8-6.4,6.4-6.4c3.6,0,6.4,2.8,6.4,6.4C15.7-3.5,12.8-0.7,9.2-0.7z M6.4-6.3h2.1v2.1
			c0,0.4,0.3,0.7,0.7,0.7c0.4,0,0.7-0.3,0.7-0.7v-2.1h2.1c0.4,0,0.7-0.3,0.7-0.7c0-0.4-0.3-0.7-0.7-0.7H10v-2.1
			c0-0.4-0.3-0.8-0.7-0.8c-0.4,0-0.7,0.3-0.7,0.8v2.1H6.4C5.9-7.8,5.6-7.5,5.6-7C5.6-6.6,5.9-6.3,6.4-6.3z"/>
	</g>
	<g transform="matrix(1,0,0,1,281.506,1933)">
		<path d="M11.7,2.9c5.4,0,10-4.5,10-10c0-5.4-4.5-10-10-10c-5.4,0-10,4.5-10,10C1.7-1.6,6.3,2.9,11.7,2.9z M11.7,1.2
			c-4.6,0-8.3-3.7-8.3-8.3c0-4.6,3.7-8.3,8.3-8.3c4.6,0,8.3,3.7,8.3,8.3C20-2.4,16.3,1.2,11.7,1.2z M8-6.2h2.9v2.9
			c0,0.5,0.3,0.8,0.8,0.8c0.5,0,0.8-0.3,0.8-0.8v-2.9h2.9c0.5,0,0.8-0.3,0.8-0.8c0-0.5-0.3-0.8-0.8-0.8h-2.9v-2.9
			c0-0.5-0.3-0.8-0.8-0.8c-0.5,0-0.8,0.3-0.8,0.8v2.9H8C7.5-7.9,7.1-7.5,7.1-7C7.1-6.6,7.5-6.2,8-6.2z"/>
	</g>
	<g transform="matrix(1,0,0,1,304.924,1933)">
		<path d="M15,5.7c7,0,12.7-5.8,12.7-12.7c0-7-5.8-12.7-12.7-12.7C8-19.8,2.3-14,2.3-7.1C2.3-0.1,8,5.7,15,5.7z M15,3.8
			C8.9,3.8,4.1-1,4.1-7.1c0-6,4.8-10.9,10.9-10.9c6,0,10.9,4.9,10.9,10.9C25.9-1,21,3.8,15,3.8z M10.1-6.1h4v4
			c0,0.5,0.4,0.9,0.9,0.9c0.5,0,0.9-0.4,0.9-0.9v-4h4c0.5,0,0.9-0.4,0.9-0.9c0-0.5-0.4-0.9-0.9-0.9h-4v-4c0-0.6-0.4-0.9-0.9-0.9
			c-0.5,0-0.9,0.4-0.9,0.9v4h-4C9.5-7.9,9.1-7.6,9.1-7C9.1-6.5,9.5-6.1,10.1-6.1z"/>
	</g>
	<g transform="matrix(1,0,0,1,263,1953)">
		<text transform="matrix(1 0 0 1 0 -6.728313e-06)" class="st2 st3">Design V</text>
		<text transform="matrix(1 0 0 1 59.2109 -6.728313e-06)" class="st2 st3">a</text>
		<text transform="matrix(1 0 0 1 67.2422 -6.728313e-06)" class="st2 st3">riations</text>
	</g>
	<g transform="matrix(1,0,0,1,263,1971)">
		<text transform="matrix(1 0 0 1 0 -6.728313e-06)" class="st2 st3">Symbols ar</text>
		<text transform="matrix(1 0 0 1 74.039 -6.728313e-06)" class="st2 st3">e</text>
		<text transform="matrix(1 0 0 1 82.2343 -6.728313e-06)" class="st2 st3"> support</text>
		<text transform="matrix(1 0 0 1 136.977 -6.728313e-06)" class="st2 st3">e</text>
		<text transform="matrix(1 0 0 1 145.1723 -6.728313e-06)" class="st2 st3">d in up t</text>
		<text transform="matrix(1 0 0 1 197.406 -6.728313e-06)" class="st2 st3">o</text>
		<text transform="matrix(1 0 0 1 205.8982 -6.728313e-06)" class="st2 st3"> nine weights and thr</text>
		<text transform="matrix(1 0 0 1 343.289 -6.728313e-06)" class="st2 st3">e</text>
		<text transform="matrix(1 0 0 1 351.4843 -6.728313e-06)" class="st2 st3">e scales.</text>
	</g>
	<g transform="matrix(1,0,0,1,263,1989)">
		<text transform="matrix(1 0 0 1 0 -6.728313e-06)" class="st2 st3">F</text>
		<text transform="matrix(1 0 0 1 8.1331 -6.728313e-06)" class="st2 st3">o</text>
		<text transform="matrix(1 0 0 1 16.6252 -6.728313e-06)" class="st2 st3">r optimal lay</text>
		<text transform="matrix(1 0 0 1 96.43 -6.728313e-06)" class="st2 st3">o</text>
		<text transform="matrix(1 0 0 1 104.9222 -6.728313e-06)" class="st2 st3">ut with t</text>
		<text transform="matrix(1 0 0 1 157.508 -6.728313e-06)" class="st2 st3">e</text>
		<text transform="matrix(1 0 0 1 165.547 -6.728313e-06)" class="st2 st3">x</text>
		<text transform="matrix(1 0 0 1 173.0392 -6.728313e-06)" class="st2 st3">t and other symbols,</text>
		<text transform="matrix(1 0 0 1 306.883 -6.728313e-06)" class="st2 st3"> </text>
		<text transform="matrix(1 0 0 1 310.164 -6.728313e-06)" class="st2 st3">v</text>
		<text transform="matrix(1 0 0 1 317.578 -6.728313e-06)" class="st2 st3">e</text>
		<text transform="matrix(1 0 0 1 325.7733 -6.728313e-06)" class="st2 st3">rtically align</text>
	</g>
	<g transform="matrix(1,0,0,1,263,2007)">
		<text transform="matrix(1 0 0 1 0 -6.728313e-06)" class="st2 st3">symbols with the adjacent t</text>
		<text transform="matrix(1 0 0 1 181.344 -6.728313e-06)" class="st2 st3">e</text>
		<text transform="matrix(1 0 0 1 189.383 -6.728313e-06)" class="st2 st3">x</text>
		<text transform="matrix(1 0 0 1 196.8752 -6.728313e-06)" class="st2 st3">t.</text>
	</g>
	<path class="st4" d="M776,1919v14"/>
	<g transform="matrix(1,0,0,1,776,1933)">
		<path d="M3.3,0.1c0.5,0,0.8-0.2,1-0.7l1.3-3.5h5.8l1.3,3.5c0.2,0.5,0.4,0.7,0.9,0.7c0.5,0,0.8-0.3,0.8-0.8c0-0.2,0-0.3-0.1-0.5
			L9.7-13.4C9.4-14,9-14.3,8.4-14.3c-0.6,0-1,0.3-1.2,0.9L2.6-1.2C2.5-1,2.5-0.8,2.5-0.7C2.5-0.2,2.8,0.1,3.3,0.1z M6-5.5l2.4-6.6h0
			l2.4,6.6H6z"/>
	</g>
	<path class="st4" d="M792.8,1919v14"/>
	<g transform="matrix(1,0,0,1,776,1953)">
		<text transform="matrix(1 0 0 1 0 -6.728313e-06)" class="st2 st3">M</text>
		<text transform="matrix(1 0 0 1 13.063 -6.728313e-06)" class="st2 st3">a</text>
		<text transform="matrix(1 0 0 1 21.094 -6.728313e-06)" class="st2 st3">r</text>
		<text transform="matrix(1 0 0 1 25.633 -6.728313e-06)" class="st2 st3">g</text>
		<text transform="matrix(1 0 0 1 34.4142 -6.728313e-06)" class="st2 st3">ins</text>
	</g>
	<g transform="matrix(1,0,0,1,776,1971)">
		<text transform="matrix(1 0 0 1 0 -6.728313e-06)" class="st2 st3">L</text>
		<text transform="matrix(1 0 0 1 8.156 -6.728313e-06)" class="st2 st3">e</text>
		<text transform="matrix(1 0 0 1 16.3513 -6.728313e-06)" class="st2 st3">ading and tr</text>
		<text transform="matrix(1 0 0 1 95.227 -6.728313e-06)" class="st2 st3">a</text>
		<text transform="matrix(1 0 0 1 103.2582 -6.728313e-06)" class="st2 st3">iling mar</text>
		<text transform="matrix(1 0 0 1 159.031 -6.728313e-06)" class="st2 st3">g</text>
		<text transform="matrix(1 0 0 1 167.8123 -6.728313e-06)" class="st2 st3">ins on the left and right side of each symbol</text>
	</g>
	<g transform="matrix(1,0,0,1,776,1989)">
		<text transform="matrix(1 0 0 1 0 -6.728313e-06)" class="st2 st3">can be adjust</text>
		<text transform="matrix(1 0 0 1 88.727 -6.728313e-06)" class="st2 st3">e</text>
		<text transform="matrix(1 0 0 1 96.9223 -6.728313e-06)" class="st2 st3">d b</text>
		<text transform="matrix(1 0 0 1 117.609 -6.728313e-06)" class="st2 st3">y</text>
		<text transform="matrix(1 0 0 1 125.3903 -6.728313e-06)" class="st2 st3"> modifying the x</text>
		<text transform="matrix(1 0 0 1 230.703 -6.728313e-06)" class="st2 st3">-</text>
		<text transform="matrix(1 0 0 1 237.5624 -6.728313e-06)" class="st2 st3">location of the mar</text>
		<text transform="matrix(1 0 0 1 360.6641 -6.728313e-06)" class="st2 st3">g</text>
		<text transform="matrix(1 0 0 1 369.4453 -6.728313e-06)" class="st2 st3">in guidelines.</text>
	</g>
	<g transform="matrix(1,0,0,1,776,2007)">
		<text transform="matrix(1 0 0 1 0 -6.728313e-06)" class="st2 st3">Modifications ar</text>
		<text transform="matrix(1 0 0 1 106.484 -6.728313e-06)" class="st2 st3">e</text>
		<text transform="matrix(1 0 0 1 114.6793 -6.728313e-06)" class="st2 st3"> aut</text>
		<text transform="matrix(1 0 0 1 139.008 -6.728313e-06)" class="st2 st3">o</text>
		<text transform="matrix(1 0 0 1 147.5002 -6.728313e-06)" class="st2 st3">matically applied pr</text>
		<text transform="matrix(1 0 0 1 275.9771 -6.728313e-06)" class="st2 st3">o</text>
		<text transform="matrix(1 0 0 1 284.4692 -6.728313e-06)" class="st2 st3">portionally t</text>
		<text transform="matrix(1 0 0 1 361.9299 -6.728313e-06)" class="st2 st3">o</text>
		<text transform="matrix(1 0 0 1 370.4221 -6.728313e-06)" class="st2 st3"> all</text>
	</g>
	<g transform="matrix(1,0,0,1,776,2025)">
		<text transform="matrix(1 0 0 1 0 -6.728313e-06)" class="st2 st3">scales and weights.</text>
	</g>
	<g transform="matrix(1,0,0,1,1289,1933)">
		<path d="M2.8,1.9l1.7,1.7c0.9,0.9,1.8,0.8,2.8-0.2L17.5-7.9c0.3,0.1,0.5,0.1,0.9,0L19.4-8l0.7,0.7l0,0.6c0,0.5,0.1,0.9,0.6,1.4
			l0.8,0.7c0.5,0.5,1.1,0.5,1.6,0l2.9-2.9c0.5-0.5,0.4-1.1,0-1.5L25-9.9c-0.5-0.5-0.8-0.6-1.3-0.6l-0.6,0l-0.6-0.6l0.2-1.1
			c0.1-0.6,0-1-0.6-1.6L19.9-16c-3.3-3.3-7.8-3.2-10.7-0.4c-0.4,0.4-0.4,1-0.2,1.4c0.2,0.4,0.7,0.6,1.3,0.4c1.5-0.3,3-0.4,4.4,0.5
			l-0.6,1.5c-0.2,0.5-0.2,0.9-0.1,1.2L3-0.9C2.1,0,2,1,2.8,1.9z M10.8-16c2.4-1.8,5.7-1.5,7.9,0.8l2.4,2.4c0.2,0.2,0.3,0.4,0.2,0.8
			L21-10.5l1.5,1.5l1-0.1c0.3,0,0.3,0,0.5,0.2l0.6,0.6l-2.4,2.4l-0.6-0.6c-0.2-0.2-0.2-0.3-0.2-0.5l0.1-1L20-9.5l-1.5,0.3
			c-0.3,0.1-0.5,0-0.7-0.2l-2-2c-0.3-0.2-0.3-0.4-0.1-0.8l0.9-2.1c-1.6-1.5-3.6-2.1-5.6-1.5C10.7-15.7,10.6-15.9,10.8-16z M5.3,2.3
			L4.1,1.1C3.6,0.7,3.7,0.3,4.1,0L15-10.2l1.5,1.5l-10,11C6.1,2.7,5.7,2.8,5.3,2.3z"/>
	</g>
	<g transform="matrix(1,0,0,1,1289,1953)">
		<text transform="matrix(1 0 0 1 0 -6.728313e-06)" class="st2 st3">Exporting</text>
	</g>
	<g transform="matrix(1,0,0,1,1289,1971)">
		<text transform="matrix(1 0 0 1 0 -6.728313e-06)" class="st2 st3">Symbols should be outlined when e</text>
		<text transform="matrix(1 0 0 1 235.2891 -6.728313e-06)" class="st2 st3">x</text>
		<text transform="matrix(1 0 0 1 242.7812 -6.728313e-06)" class="st2 st3">porting t</text>
		<text transform="matrix(1 0 0 1 298.188 -6.728313e-06)" class="st2 st3">o</text>
		<text transform="matrix(1 0 0 1 306.6802 -6.728313e-06)" class="st2 st3"> ensur</text>
		<text transform="matrix(1 0 0 1 347 -6.728313e-06)" class="st2 st3">e</text>
		<text transform="matrix(1 0 0 1 355.1953 -6.728313e-06)" class="st2 st3"> the</text>
	</g>
	<g transform="matrix(1,0,0,1,1289,1989)">
		<text transform="matrix(1 0 0 1 0 -6.728313e-06)" class="st2 st3">design is pr</text>
		<text transform="matrix(1 0 0 1 75.641 -6.728313e-06)" class="st2 st3">e</text>
		<text transform="matrix(1 0 0 1 83.8363 -6.728313e-06)" class="st2 st3">serv</text>
		<text transform="matrix(1 0 0 1 111.8199 -6.728313e-06)" class="st2 st3">e</text>
		<text transform="matrix(1 0 0 1 120.0153 -6.728313e-06)" class="st2 st3">d when submitting t</text>
		<text transform="matrix(1 0 0 1 251.031 -6.728313e-06)" class="st2 st3">o</text>
		<text transform="matrix(1 0 0 1 259.5232 -6.728313e-06)" class="st2 st3"> X</text>
		<text transform="matrix(1 0 0 1 272.4141 -6.728313e-06)" class="st2 st3">c</text>
		<text transform="matrix(1 0 0 1 280.4297 -6.728313e-06)" class="st2 st3">ode.</text>
	</g>
	<g id="template-version" transform="matrix(1,0,0,1,3036,1933)">
		<text transform="matrix(1 0 0 1 -96.5701 -6.728313e-06)" class="st2 st3">T</text>
		<text transform="matrix(1 0 0 1 -89.3831 -6.728313e-06)" class="st2 st3">e</text>
		<text transform="matrix(1 0 0 1 -81.1877 -6.728313e-06)" class="st2 st3">mplat</text>
		<text transform="matrix(1 0 0 1 -43.6641 -6.728313e-06)" class="st2 st3">e</text>
		<text transform="matrix(1 0 0 1 -35.4688 -6.728313e-06)" class="st2 st3"> v</text>
		<text transform="matrix(1 0 0 1 -25.6331 -6.728313e-06)" class="st2 st3">.</text>
		<text transform="matrix(1 0 0 1 -22.1956 -6.728313e-06)" class="st2 st3">2.0</text>
	</g>
	<g transform="matrix(1,0,0,1,3036,1951)">
		<text transform="matrix(1 0 0 1 -191.594 -6.728313e-06)" class="st2 st3">Requir</text>
		<text transform="matrix(1 0 0 1 -148.7661 -6.728313e-06)" class="st2 st3">e</text>
		<text transform="matrix(1 0 0 1 -140.5708 -6.728313e-06)" class="st2 st3">s X</text>
		<text transform="matrix(1 0 0 1 -120.2339 -6.728313e-06)" class="st2 st3">c</text>
		<text transform="matrix(1 0 0 1 -112.2183 -6.728313e-06)" class="st2 st3">ode 12 or gr</text>
		<text transform="matrix(1 0 0 1 -33.938 -6.728313e-06)" class="st2 st3">e</text>
		<text transform="matrix(1 0 0 1 -25.7427 -6.728313e-06)" class="st2 st3">at</text>
		<text transform="matrix(1 0 0 1 -13.125 -6.728313e-06)" class="st2 st3">e</text>
		<text transform="matrix(1 0 0 1 -4.9297 -6.728313e-06)" class="st2 st3">r</text>
	</g>
	<g transform="matrix(1,0,0,1,3036,1969)">
		<text transform="matrix(1 0 0 1 -187.2419 -6.728313e-06)" class="st2 st3">Gener</text>
		<text transform="matrix(1 0 0 1 -146.344 -6.728313e-06)" class="st2 st3">a</text>
		<text transform="matrix(1 0 0 1 -138.313 -6.728313e-06)" class="st2 st3">t</text>
		<text transform="matrix(1 0 0 1 -133.7271 -6.728313e-06)" class="st2 st3">e</text>
		<text transform="matrix(1 0 0 1 -125.5317 -6.728313e-06)" class="st2 st3">d fr</text>
		<text transform="matrix(1 0 0 1 -103.9919 -6.728313e-06)" class="st2 st3">o</text>
		<text transform="matrix(1 0 0 1 -95.4998 -6.728313e-06)" class="st2 st3">m xmark.</text>
		<text transform="matrix(1 0 0 1 -35.3279 -6.728313e-06)" class="st2 st3">c</text>
		<text transform="matrix(1 0 0 1 -27.3123 -6.728313e-06)" class="st2 st3">ir</text>
		<text transform="matrix(1 0 0 1 -19.4771 -6.728313e-06)" class="st2 st3">c</text>
		<text transform="matrix(1 0 0 1 -11.4614 -6.728313e-06)" class="st2 st3">le</text>
	</g>
	<g transform="matrix(1,0,0,1,3036,1987)">
		<text transform="matrix(1 0 0 1 -143.1169 -6.728313e-06)" class="st2 st3">T</text>
		<text transform="matrix(1 0 0 1 -135.6951 -6.728313e-06)" class="st2 st3">y</text>
		<text transform="matrix(1 0 0 1 -127.9138 -6.728313e-06)" class="st2 st3">peset at 100 points</text>
	</g>
	<g transform="matrix(1,0,0,1,263,726)">
		<text transform="matrix(1 0 0 1 0 -6.728313e-06)" class="st2 st3">Small</text>
	</g>
	<g transform="matrix(1,0,0,1,263,1156)">
		<text transform="matrix(1 0 0 1 0 -6.728313e-06)" class="st2 st3">Medium</text>
	</g>
	<g transform="matrix(1,0,0,1,263,1586)">
		<text transform="matrix(1 0 0 1 0 -6.728313e-06)" class="st2 st3">Lar</text>
		<text transform="matrix(1 0 0 1 20.9609 -6.728313e-06)" class="st2 st3">g</text>
		<text transform="matrix(1 0 0 1 29.7422 -6.728313e-06)" class="st2 st3">e</text>
	</g>
</g>
<g id="Guides">
	<g id="H-reference" transform="matrix(1,0,0,1,339,696)">
		<path class="st5" d="M1,0h2.7L13-24.5h32.8L55.1,0h2.6L30.6-70.5h-2.5L1,0z M29.3-67.1L29.3-67.1l15.5,40.4h-31L29.3-67.1z"/>
	</g>
	<path id="Baseline-S" class="st6" d="M263,696h2773"/>
	<path id="Capline-S" class="st6" d="M263,625.5h2773"/>
	<g id="H-reference1" transform="matrix(1,0,0,1,339,1126)" serif:id="H-reference">
		<path class="st5" d="M1,0h2.7L13-24.5h32.8L55.1,0h2.6L30.6-70.5h-2.5L1,0z M29.3-67.1L29.3-67.1l15.5,40.4h-31L29.3-67.1z"/>
	</g>
	<path id="Baseline-M" class="st6" d="M263,1126h2773"/>
	<path id="Capline-M" class="st6" d="M263,1055.5h2773"/>
	<g id="H-reference2" transform="matrix(1,0,0,1,339,1556)" serif:id="H-reference">
		<path class="st5" d="M1,0h2.7L13-24.5h32.8L55.1,0h2.6L30.6-70.5h-2.5L1,0z M29.3-67.1L29.3-67.1l15.5,40.4h-31L29.3-67.1z"/>
	</g>
	<path id="Baseline-L" class="st6" d="M263,1556h2773"/>
	<path id="Capline-L" class="st6" d="M263,1485.5h2773"/>
	<path id="left-margin" class="st4" d="M1391.3,1030.8v119.3"/>
	<path id="right-margin" class="st4" d="M1508.4,1030.8v119.3"/>
</g>
<g id="Symbols">
	<g id="Black-L">
		<path class="st7" d="M2933.4,1478.2c-23.7,0-43,19.1-43,42.9c0,23.6,19.3,42.9,43,42.9c23.7,0,43-19.3,43-42.9
			C2976.4,1497.3,2957.1,1478.2,2933.4,1478.2z M2933.4,1499.1c12.1,0,22,9.9,22,21.9c0,12.1-9.9,21.8-22,21.8
			c-12.1,0-22-9.7-22-21.8C2911.4,1509,2921.2,1499.1,2933.4,1499.1z"/>
	</g>
	<g id="Heavy-L">
		<path class="st7" d="M2636.7,1478.6c-23.5,0-42.5,19-42.5,42.4c0,23.3,19,42.3,42.5,42.3c23.5,0,42.5-19,42.5-42.3
			C2679.2,1497.6,2660.1,1478.6,2636.7,1478.6z M2636.7,1498.6c12.4,0,22.5,10,22.5,22.4c0,12.4-10.1,22.2-22.5,22.2
			s-22.5-9.9-22.5-22.2C2614.2,1508.7,2624.3,1498.6,2636.7,1498.6z"/>
	</g>
	<g id="Bold-L">
		<path class="st7" d="M2340,1479.1c-23.2,0-42,18.8-42,42c0,23.1,18.8,41.8,42,41.8c23.2,0,42-18.7,42-41.8
			C2382,1497.9,2363.2,1479.1,2340,1479.1z M2340,1498.1c12.7,0,23,10.3,23,23c0,12.5-10.3,22.8-23,22.8c-12.7,0-23-10.3-23-22.8
			C2317,1508.4,2327.3,1498.1,2340,1498.1z"/>
	</g>
	<g id="Semibold-L">
		<path class="st7" d="M2043.2,1479.6c-22.9,0-41.5,18.6-41.5,41.4c0,22.8,18.6,41.4,41.5,41.4c22.9,0,41.5-18.6,41.5-41.4
			C2084.8,1498.2,2066.2,1479.6,2043.2,1479.6z M2043.2,1497.6c13,0,23.5,10.5,23.5,23.4c0,12.8-10.5,23.3-23.5,23.3
			c-13,0-23.5-10.5-23.5-23.3C2019.8,1508.1,2030.3,1497.6,2043.2,1497.6z"/>
	</g>
	<g id="Medium-L">
		<path class="st7" d="M1746.6,1480.1c-22.6,0-41,18.4-41,40.9c0,22.5,18.4,40.8,41,40.8c22.6,0,41-18.3,41-40.8
			C1787.6,1498.5,1769.2,1480.1,1746.6,1480.1z M1746.6,1497.2c13.2,0,24,10.6,24,23.9c0,13.1-10.8,23.9-24,23.9
			c-13.2,0-24-10.7-24-23.9C1722.6,1507.8,1733.3,1497.2,1746.6,1497.2z"/>
	</g>
	<g id="Regular-L">
		<path class="st7" d="M1449.9,1480.7c-22.4,0-40.5,18-40.5,40.3c0,22.2,18.1,40.3,40.5,40.3c22.4,0,40.5-18.1,40.5-40.3
			C1490.4,1498.6,1472.2,1480.7,1449.9,1480.7z M1449.9,1496.6c13.5,0,24.5,10.9,24.5,24.4c0,13.4-11,24.3-24.5,24.3
			c-13.5,0-24.5-10.9-24.5-24.3C1425.4,1507.5,1436.3,1496.6,1449.9,1496.6z"/>
	</g>
	<g id="Light-L">
		<path class="st7" d="M1153.1,1481.1c-22.1,0-40,17.8-40,39.9c0,21.9,17.9,39.8,40,39.8c22.1,0,40-17.8,40-39.8
			C1193.1,1498.9,1175.2,1481.1,1153.1,1481.1z M1153.1,1496.1c13.8,0,25,11,25,24.9c0,13.7-11.2,24.9-25,24.9
			c-13.8,0-25-11.2-25-24.9C1128.1,1507.2,1139.3,1496.1,1153.1,1496.1z"/>
	</g>
	<g id="Thin-L">
		<path class="st7" d="M856.4,1481.6c-21.8,0-39.5,17.7-39.5,39.5c0,21.6,17.7,39.3,39.5,39.3c21.8,0,39.5-17.7,39.5-39.3
			C895.9,1499.2,878.2,1481.6,856.4,1481.6z M856.4,1495.5c14.1,0,25.5,11.5,25.5,25.5c0,14-11.4,25.3-25.5,25.3
			c-14.1,0-25.5-11.3-25.5-25.3C830.9,1507,842.3,1495.5,856.4,1495.5z"/>
	</g>
	<g id="Ultralight-L">
		<path class="st7" d="M559.7,1482.2c-21.5,0-39,17.4-39,38.9c0,21.4,17.5,38.9,39,38.9c21.5,0,39-17.5,39-38.9
			C598.7,1499.5,581.2,1482.2,559.7,1482.2z M559.7,1495.1c14.3,0,26,11.6,26,25.9c0,14.3-11.7,25.8-26,25.8
			c-14.3,0-26-11.5-26-25.8C533.7,1506.7,545.4,1495.1,559.7,1495.1z"/>
	</g>
	<g id="Black-M">
		<path class="st7" d="M2933.4,1058.3c-18,0-32.7,14.7-32.7,32.6c0,17.9,14.6,32.5,32.7,32.5c18,0,32.7-14.7,32.7-32.5
			C2966,1073,2951.4,1058.3,2933.4,1058.3z M2933.4,1079.3c6.4,0,11.7,5.2,11.7,11.6c0,6.3-5.2,11.5-11.7,11.5
			c-6.4,0-11.7-5.2-11.7-11.5C2921.7,1084.5,2927,1079.3,2933.4,1079.3z"/>
	</g>
	<g id="Heavy-M">
		<path class="st7" d="M2636.7,1058.8c-17.8,0-32.2,14.5-32.2,32.1s14.4,32,32.2,32c17.8,0,32.2-14.4,32.2-32
			S2654.5,1058.8,2636.7,1058.8z M2636.7,1078.8c6.7,0,12.2,5.4,12.2,12.1c0,6.6-5.5,12-12.2,12c-6.7,0-12.2-5.4-12.2-12
			C2624.5,1084.2,2630,1078.8,2636.7,1078.8z"/>
	</g>
	<g id="Bold-M">
		<path class="st7" d="M2340,1059.3c-17.5,0-31.7,14.2-31.7,31.6c0,17.4,14.2,31.5,31.7,31.5c17.5,0,31.7-14.2,31.7-31.5
			C2371.7,1073.5,2357.5,1059.3,2340,1059.3z M2340,1078.3c7,0,12.7,5.6,12.7,12.7c0,6.9-5.7,12.5-12.7,12.5
			c-7,0-12.7-5.6-12.7-12.5C2327.3,1083.9,2333,1078.3,2340,1078.3z"/>
	</g>
	<g id="Semibold-M">
		<path class="st7" d="M2043.3,1059.8c-17.2,0-31.2,14-31.2,31.1c0,17.1,13.9,31,31.2,31c17.2,0,31.2-14,31.2-31
			C2074.4,1073.8,2060.5,1059.8,2043.3,1059.8z M2043.3,1077.9c7.3,0,13.2,5.8,13.2,13c0,7.2-5.9,13.1-13.2,13.1
			c-7.2,0-13.2-5.8-13.2-13.1C2030.1,1083.7,2036,1077.9,2043.3,1077.9z"/>
	</g>
	<g id="Medium-M">
		<path class="st7" d="M1746.6,1060.3c-16.9,0-30.7,13.8-30.7,30.6c0,16.9,13.7,30.5,30.7,30.5c16.9,0,30.7-13.7,30.7-30.5
			C1777.2,1074.1,1763.5,1060.3,1746.6,1060.3z M1746.6,1077.4c7.5,0,13.7,6,13.7,13.6c0,7.4-6.1,13.6-13.7,13.6
			c-7.5,0-13.7-6.1-13.7-13.6C1732.9,1083.4,1739,1077.4,1746.6,1077.4z"/>
	</g>
	<g id="Regular-M">
		<path class="st7" d="M1449.9,1060.8c-16.7,0-30.2,13.5-30.2,30.1c0,16.6,13.5,30,30.2,30c16.7,0,30.2-13.5,30.2-30
			C1480,1074.3,1466.5,1060.8,1449.9,1060.8z M1449.9,1076.8c7.8,0,14.2,6.3,14.2,14.2c0,7.7-6.4,14.1-14.2,14.1
			c-7.8,0-14.2-6.3-14.2-14.1C1435.7,1083.1,1442.1,1076.8,1449.9,1076.8z"/>
	</g>
	<g id="Light-M">
		<path class="st7" d="M1153.1,1061.3c-16.4,0-29.7,13.3-29.7,29.6c0,16.3,13.3,29.5,29.7,29.5c16.4,0,29.7-13.3,29.7-29.5
			C1182.8,1074.6,1169.5,1061.3,1153.1,1061.3z M1153.1,1076.4c8.1,0,14.7,6.5,14.7,14.6c0,8-6.6,14.6-14.7,14.6
			c-8.1,0-14.7-6.5-14.7-14.6C1138.5,1082.9,1145.1,1076.4,1153.1,1076.4z"/>
	</g>
	<g id="Thin-M">
		<path class="st7" d="M856.4,1061.8c-16.1,0-29.2,13.1-29.2,29.1c0,16,13.1,29,29.2,29c16.1,0,29.2-13.1,29.2-29
			C885.6,1074.9,872.5,1061.8,856.4,1061.8z M856.4,1075.9c8.4,0,15.2,6.7,15.2,15.1c0,8.2-6.8,15.1-15.2,15.1
			c-8.4,0-15.2-6.8-15.2-15.1C841.3,1082.6,848.1,1075.9,856.4,1075.9z"/>
	</g>
	<g id="Ultralight-M">
		<path class="st7" d="M559.7,1062.3c-15.8,0-28.7,12.9-28.7,28.6c0,15.8,12.8,28.5,28.7,28.5c15.8,0,28.7-12.8,28.7-28.5
			C588.4,1075.2,575.5,1062.3,559.7,1062.3z M559.7,1075.4c8.6,0,15.7,6.9,15.7,15.6c0,8.5-7,15.6-15.7,15.6
			c-8.6,0-15.7-7-15.7-15.6C544.1,1082.3,551.1,1075.4,559.7,1075.4z"/>
	</g>
	<g id="Black-S">
		<path class="st7" d="M2933.4,632.8c-15.5,0-28,12.5-28,28c0,15.4,12.5,27.9,28,27.9c15.5,0,28-12.5,28-27.9
			C2961.4,645.3,2948.8,632.8,2933.4,632.8z M2933.4,653.8c3.9,0,7,3.1,7,7c0,3.8-3.2,6.9-7,6.9c-3.8,0-7-3.1-7-6.9
			C2926.4,656.9,2929.5,653.8,2933.4,653.8z"/>
	</g>
	<g id="Heavy-S">
		<path class="st7" d="M2636.7,633.3c-15.2,0-27.5,12.3-27.5,27.4c0,15.1,12.3,27.4,27.5,27.4c15.2,0,27.5-12.4,27.5-27.4
			C2664.2,645.6,2651.9,633.3,2636.7,633.3z M2636.7,653.3c4.1,0,7.5,3.3,7.5,7.5c0,4-3.4,7.4-7.5,7.4c-4.1,0-7.5-3.3-7.5-7.4
			C2629.2,656.7,2632.6,653.3,2636.7,653.3z"/>
	</g>
	<g id="Bold-S">
		<path class="st7" d="M2340,633.8c-14.9,0-27,12.1-27,27c0,14.8,12.1,26.9,27,26.9c14.9,0,27-12.1,27-26.9
			C2367,645.9,2354.9,633.8,2340,633.8z M2340,652.9c4.4,0,8,3.5,8,7.9c0,4.4-3.6,7.9-8,7.9c-4.4,0-8-3.6-8-7.9
			C2332,656.3,2335.6,652.9,2340,652.9z"/>
	</g>
	<g id="Semibold-S">
		<path class="st7" d="M2043.3,634.3c-14.6,0-26.5,11.9-26.5,26.5c0,14.6,11.9,26.4,26.5,26.4c14.6,0,26.5-11.8,26.5-26.4
			C2069.8,646.2,2057.9,634.3,2043.3,634.3z M2043.3,652.3c4.7,0,8.5,3.8,8.5,8.5c0,4.6-3.8,8.4-8.5,8.4c-4.7,0-8.5-3.8-8.5-8.4
			C2034.8,656.1,2038.6,652.3,2043.3,652.3z"/>
	</g>
	<g id="Medium-S">
		<path class="st7" d="M1746.6,634.9c-14.4,0-26,11.6-26,25.9c0,14.3,11.6,25.9,26,25.9c14.4,0,26-11.7,26-25.9
			C1772.6,646.4,1760.9,634.9,1746.6,634.9z M1746.6,651.8c5,0,9,4,9,9c0,4.9-4,8.9-9,8.9c-5,0-9-4-9-8.9
			C1737.6,655.8,1741.6,651.8,1746.6,651.8z"/>
	</g>
	<g id="Regular-S">
		<path class="st7" d="M1449.9,635.3c-14.1,0-25.5,11.4-25.5,25.5c0,14,11.4,25.4,25.5,25.4c14.1,0,25.5-11.4,25.5-25.4
			C1475.4,646.7,1463.9,635.3,1449.9,635.3z M1449.9,651.3c5.2,0,9.5,4.2,9.5,9.4c0,5.2-4.3,9.4-9.5,9.4c-5.2,0-9.5-4.3-9.5-9.4
			C1440.4,655.5,1444.6,651.3,1449.9,651.3z"/>
	</g>
	<g id="Light-S">
		<path class="st7" d="M1153.1,635.8c-13.8,0-25,11.2-25,25c0,13.7,11.2,24.9,25,24.9c13.8,0,25-11.2,25-24.9
			C1178.1,647,1166.9,635.8,1153.1,635.8z M1153.1,650.8c5.5,0,10,4.4,10,10c0,5.5-4.5,9.9-10,9.9c-5.5,0-10-4.4-10-9.9
			C1143.1,655.2,1147.6,650.8,1153.1,650.8z"/>
	</g>
	<g id="Thin-S">
		<path class="st7" d="M856.4,636.4c-13.5,0-24.5,10.9-24.5,24.4c0,13.5,11,24.4,24.5,24.4c13.5,0,24.5-10.9,24.5-24.4
			C880.9,647.3,870,636.4,856.4,636.4z M856.4,650.3c5.8,0,10.5,4.7,10.5,10.5c0,5.7-4.7,10.4-10.5,10.4c-5.8,0-10.5-4.7-10.5-10.4
			C845.9,655,850.6,650.3,856.4,650.3z"/>
	</g>
	<g id="Ultralight-S">
		<path class="st7" d="M559.7,636.8c-13.2,0-24,10.7-24,23.9c0,13.2,10.7,23.9,24,23.9c13.3,0,24-10.7,24-23.9
			C583.7,647.5,573,636.8,559.7,636.8z M559.7,649.8c6.1,0,11,4.9,11,10.9s-4.9,10.9-11,10.9c-6.1,0-11-4.9-11-10.9
			S553.7,649.8,559.7,649.8z"/>
	</g>
</g>
</svg>
