<?xml version="1.0" encoding="utf-8"?>
<!-- Generator: Adobe Illustrator 24.0.1, SVG Export Plug-In . SVG Version: 6.00 Build 0)  -->
<svg version="1.1" id="Layer_1" xmlns="http://www.w3.org/2000/svg" xmlns:xlink="http://www.w3.org/1999/xlink" x="0px" y="0px"
	 viewBox="0 0 3300 2200" style="enable-background:new 0 0 3300 2200;" xml:space="preserve">
<style type="text/css">
	.st0{fill:#FFFFFF;}
	.st1{fill:none;stroke:#000000;stroke-width:0.5;}
	.st2{font-family:'Arial-BoldMT';}
	.st3{font-size:12px;}
	.st4{font-family:'ArialMT';}
	.st5{fill:none;stroke:#00AEEF;stroke-width:0.5;}
	.st6{fill:#27AAE1;}
	.st7{fill:none;stroke:#27AAE1;stroke-width:0.5;}
	.st8{fill-rule:evenodd;clip-rule:evenodd;fill:#A6A6A6;}
</style>
<g id="Notes">
	<rect id="artboard" y="0" class="st0" width="3300" height="2200"/>
	<line class="st1" x1="263" y1="292" x2="3036" y2="292"/>
	<text transform="matrix(1 0 0 1 263 322)" class="st2 st3">Weight/Scale Variations</text>
	<text transform="matrix(1 0 0 1 536.0362 322)" class="st4 st3">Ultralight</text>
	<text transform="matrix(1 0 0 1 844.7501 322)" class="st4 st3">Thin</text>
	<text transform="matrix(1 0 0 1 1140.1193 322)" class="st4 st3">Light</text>
	<text transform="matrix(1 0 0 1 1428.8282 322)" class="st4 st3">Regular</text>
	<text transform="matrix(1 0 0 1 1725.2202 322)" class="st4 st3">Medium</text>
	<text transform="matrix(1 0 0 1 2018.2563 322)" class="st4 st3">Semibold</text>
	<text transform="matrix(1 0 0 1 2327.9712 322)" class="st4 st3">Bold</text>
	<text transform="matrix(1 0 0 1 2619.6831 322)" class="st4 st3">Heavy</text>
	<text transform="matrix(1 0 0 1 2918.728 322)" class="st4 st3">Black</text>
	<line class="st1" x1="263" y1="1903" x2="3036" y2="1903"/>
	<g transform="matrix(1 0 0 1 263 1933)">
		<path d="M9.2,0.8c4.3,0,7.9-3.6,7.9-7.9S13.5-15,9.2-15s-7.9,3.6-7.9,7.9C1.4-2.7,5,0.8,9.2,0.8z M9.2-0.7c-3.5,0-6.4-2.8-6.4-6.4
			s2.8-6.4,6.4-6.4s6.4,2.8,6.4,6.4C15.7-3.5,12.8-0.7,9.2-0.7z M6.4-6.3h2.1v2.1c0,0.4,0.3,0.7,0.7,0.7s0.7-0.3,0.7-0.7v-2.1H12
			c0.4,0,0.7-0.3,0.7-0.7c0-0.4-0.3-0.7-0.7-0.7h-2v-2.1c0-0.4-0.3-0.8-0.7-0.8s-0.7,0.3-0.7,0.8v2.1H6.4C5.9-7.8,5.6-7.5,5.6-7
			C5.6-6.6,5.9-6.3,6.4-6.3z"/>
	</g>
	<g transform="matrix(1 0 0 1 281.506 1933)">
		<path d="M11.7,2.9c5.4,0,10-4.5,10-10c0-5.4-4.5-10-10-10c-5.4,0-10,4.5-10,10C1.7-1.6,6.3,2.9,11.7,2.9z M11.7,1.2
			c-4.6,0-8.3-3.7-8.3-8.3s3.7-8.3,8.3-8.3S20-11.7,20-7.1C20-2.4,16.3,1.2,11.7,1.2z M8-6.2h2.9v2.9c0,0.5,0.3,0.8,0.8,0.8
			s0.8-0.3,0.8-0.8v-2.9h2.9c0.5,0,0.8-0.3,0.8-0.8s-0.3-0.8-0.8-0.8h-2.9v-2.9c0-0.5-0.3-0.8-0.8-0.8s-0.8,0.3-0.8,0.8v2.9H8
			C7.5-7.9,7.1-7.5,7.1-7C7.1-6.6,7.5-6.2,8-6.2z"/>
	</g>
	<g transform="matrix(1 0 0 1 304.924 1933)">
		<path d="M15,5.7c7,0,12.7-5.8,12.7-12.7c0-7-5.8-12.7-12.7-12.7C8-19.8,2.3-14,2.3-7.1C2.3-0.1,8,5.7,15,5.7z M15,3.8
			C8.9,3.8,4.1-1,4.1-7.1C4.1-13.1,8.9-18,15-18c6,0,10.9,4.9,10.9,10.9C25.9-1,21,3.8,15,3.8z M10.1-6.1h4v4c0,0.5,0.4,0.9,0.9,0.9
			s0.9-0.4,0.9-0.9v-4h4c0.5,0,0.9-0.4,0.9-0.9s-0.4-0.9-0.9-0.9h-4v-4c0-0.6-0.4-0.9-0.9-0.9s-0.9,0.4-0.9,0.9v4h-4
			c-0.6,0-1,0.3-1,0.9C9.1-6.5,9.5-6.1,10.1-6.1z"/>
	</g>
	<text transform="matrix(1 0 0 1 263 1953)" class="st2 st3">Design Variations</text>
	<text transform="matrix(1 0 0 1 263 1971)" class="st4 st3">Symbols are supported in up to nine weights and three scales.</text>
	<text transform="matrix(1 0 0 1 263 1989)" class="st4 st3">For optimal layout with text and other symbols, vertically align</text>
	<text transform="matrix(1 0 0 1 263 2007)" class="st4 st3">symbols with the adjacent text.</text>
	<line class="st5" x1="776" y1="1919" x2="776" y2="1933"/>
	<g transform="matrix(1 0 0 1 776 1933)">
		<path d="M3.3,0.1c0.5,0,0.8-0.2,1-0.7l1.3-3.5h5.8l1.3,3.5c0.2,0.5,0.4,0.7,0.9,0.7s0.8-0.3,0.8-0.8c0-0.2,0-0.3-0.1-0.5L9.7-13.4
			C9.4-14,9-14.3,8.4-14.3s-1,0.3-1.2,0.9L2.6-1.2C2.5-1,2.5-0.8,2.5-0.7C2.5-0.2,2.8,0.1,3.3,0.1z M6-5.5l2.4-6.6l0,0l2.4,6.6
			C10.8-5.5,6-5.5,6-5.5z"/>
	</g>
	<line class="st5" x1="792.8" y1="1919" x2="792.8" y2="1933"/>
	<text transform="matrix(1 0 0 1 776 1953)" class="st2 st3">Margins</text>
	<text transform="matrix(1 0 0 1 776 1971)" class="st4 st3">Leading and trailing margins on the left and right side of each symbol</text>
	<text transform="matrix(1 0 0 1 776 1989)" class="st4 st3">can be adjusted by modifying the x-location of the margin guidelines.</text>
	<text transform="matrix(1 0 0 1 776 2007)" class="st4 st3">Modifications are automatically applied proportionally to all</text>
	<text transform="matrix(1 0 0 1 776 2025)" class="st4 st3">scales and weights.</text>
	<g transform="matrix(1 0 0 1 1289 1933)">
		<path d="M2.8,1.9l1.7,1.7c0.9,0.9,1.8,0.8,2.8-0.2L17.5-7.9c0.3,0.1,0.5,0.1,0.8,0L19.4-8l0.7,0.7v0.6c0,0.5,0.1,0.9,0.6,1.4
			l0.8,0.7c0.5,0.5,1.1,0.5,1.6,0L26-7.5C26.5-8,26.4-8.6,26-9l-1-0.9c-0.5-0.5-0.8-0.6-1.3-0.6h-0.6l-0.6-0.6l0.2-1.1
			c0.1-0.6,0-1-0.6-1.6L19.9-16c-3.3-3.3-7.8-3.2-10.7-0.4C8.8-16,8.8-15.4,9-15s0.7,0.6,1.3,0.4c1.5-0.3,3-0.4,4.4,0.5l-0.6,1.5
			c-0.2,0.5-0.2,0.9-0.1,1.2L3-0.9C2.1,0,2,1,2.8,1.9z M10.8-16c2.4-1.8,5.7-1.5,7.9,0.8l2.4,2.4c0.2,0.2,0.3,0.4,0.2,0.8L21-10.5
			L22.5-9l1-0.1c0.3,0,0.3,0,0.5,0.2l0.6,0.6l-2.4,2.4l-0.6-0.6c-0.2-0.2-0.2-0.3-0.2-0.5l0.1-1L20-9.5l-1.5,0.3
			c-0.3,0.1-0.5,0-0.7-0.2l-2-2c-0.3-0.2-0.3-0.4-0.1-0.8l0.9-2.1C15-15.8,13-16.4,11-15.8C10.7-15.7,10.6-15.8,10.8-16z M5.3,2.3
			L4.1,1.1C3.6,0.7,3.7,0.3,4.1,0L15-10.2l1.5,1.5l-10,11C6.1,2.7,5.7,2.8,5.3,2.3z"/>
	</g>
	<text transform="matrix(1 0 0 1 1289 1953)" class="st2 st3">Exporting</text>
	<text transform="matrix(1 0 0 1 1289 1971)" class="st4 st3">Symbols should be outlined when exporting to ensure the</text>
	<text transform="matrix(1 0 0 1 1289 1989)" class="st4 st3">design is preserved when submitting to Xcode.</text>
	<text id="template-version" transform="matrix(1 0 0 1 2958.8496 1933)" class="st4 st3">Template v.2.0</text>
	<text transform="matrix(1 0 0 1 2878.5762 1951)" class="st4 st3">Requires Xcode 12 or greater</text>
	<text transform="matrix(1 0 0 1 2924.6074 1969)" class="st4 st3">Generated from gear</text>
	<text transform="matrix(1 0 0 1 2921.9238 1987)" class="st4 st3">Typeset at 100 points</text>
	<text transform="matrix(1 0 0 1 263 726)" class="st4 st3">Small</text>
	<text transform="matrix(1 0 0 1 263 1156)" class="st4 st3">Medium</text>
	<text transform="matrix(1 0 0 1 263 1586)" class="st4 st3">Large</text>
</g>
<g id="Guides">
	<g id="H-reference" transform="matrix(1 0 0 1 339 696)">
		<path class="st6" d="M1,0h2.7L13-24.5h32.8L55.1,0h2.6L30.6-70.5h-2.5L1,0z M29.3-67.1L29.3-67.1l15.5,40.4h-31L29.3-67.1z"/>
	</g>
	<line id="Baseline-S" class="st7" x1="263" y1="696" x2="3036" y2="696"/>
	<line id="Capline-S" class="st7" x1="263" y1="625.5" x2="3036" y2="625.5"/>
	<g id="H-reference_1_" transform="matrix(1 0 0 1 339 1126)">
		<path class="st6" d="M1,0h2.7L13-24.5h32.8L55.1,0h2.6L30.6-70.5h-2.5L1,0z M29.3-67.1L29.3-67.1l15.5,40.4h-31L29.3-67.1z"/>
	</g>
	<line id="Baseline-M" class="st7" x1="263" y1="1126" x2="3036" y2="1126"/>
	<line id="Capline-M" class="st7" x1="263" y1="1055.5" x2="3036" y2="1055.5"/>
	<g id="H-reference_2_" transform="matrix(1 0 0 1 339 1556)">
		<path class="st6" d="M1,0h2.7L13-24.5h32.8L55.1,0h2.6L30.6-70.5h-2.5L1,0z M29.3-67.1L29.3-67.1l15.5,40.4h-31L29.3-67.1z"/>
	</g>
	<line id="Baseline-L" class="st7" x1="263" y1="1556" x2="3036" y2="1556"/>
	<line id="Capline-L" class="st7" x1="263" y1="1485.5" x2="3036" y2="1485.5"/>
	<line id="left-margin" class="st5" x1="1386.1" y1="1030.8" x2="1386.1" y2="1150.1"/>
	<line id="right-margin" class="st5" x1="1513.6" y1="1030.8" x2="1513.6" y2="1150.1"/>
</g>
<g id="Symbols">
	<g id="Black-L" transform="matrix(1 0 0 1 2846.71 1556)">
		<path d="M86.7,30.1c1.2,0,2.3-0.1,3.6-0.2l3.3,6.2c1,2.3,3.6,3.6,6.2,3.2c2.5-0.4,4.4-2.5,4.8-5.1l0.9-7c2.3-0.6,4.5-1.5,6.7-2.3
			l5.2,4.6c1.9,1.8,4.6,2.1,7,0.8c2.2-1.3,3.2-3.9,2.7-6.3l-1.5-6.9c1.9-1.4,3.8-2.9,5.6-4.6l6.4,2.7c2.4,1,5,0.3,6.8-1.8
			c1.5-1.9,1.8-4.6,0.4-6.8l-3.7-6.1c1.3-1.9,2.4-4,3.5-6.2l7.1,0.3c2.5,0.1,5-1.5,5.8-3.9c0.9-2.4,0-5.2-2-6.7l-5.6-4.3
			c0.5-2.3,1.1-4.7,1.3-7.1l6.6-2.2c2.5-0.8,4.1-3,4.1-5.6c0-2.6-1.6-4.7-4.1-5.6l-6.6-2.1c-0.2-2.4-0.8-4.7-1.3-7.1l5.5-4.3
			c2-1.5,2.9-4.2,2-6.5c-0.8-2.5-3.2-4.1-5.8-4l-7.1,0.2c-1.1-2.2-2.2-4.2-3.5-6.2l3.7-6c1.3-2.1,1.1-4.9-0.4-6.7
			c-1.8-2.1-4.3-2.7-6.8-1.8l-6.5,2.6c-1.7-1.6-3.6-3.1-5.5-4.5l1.5-6.9c0.5-2.6-0.6-5.1-2.8-6.3c-2.4-1.3-5.1-1-6.9,0.8l-5.2,4.6
			c-2.2-0.9-4.5-1.7-6.7-2.4l-0.9-6.9c-0.4-2.6-2.3-4.6-4.9-5.1c-2.6-0.4-5.1,0.9-6.1,3l-3.3,6.3c-1.3-0.1-2.4-0.1-3.6-0.1
			c-1.3,0-2.4,0-3.7,0.1l-3.2-6.2c-1.1-2.2-3.6-3.5-6.3-3c-2.4,0.4-4.4,2.5-4.7,5.1l-1,6.9c-2.2,0.7-4.5,1.5-6.7,2.4l-5-4.6
			c-1.9-1.9-4.6-2.1-7.1-0.8c-2.2,1.3-3.2,3.8-2.7,6.4l1.5,6.8c-1.9,1.4-3.8,3-5.5,4.5l-6.5-2.6c-2.4-0.9-5-0.3-6.8,1.8
			c-1.5,1.8-1.7,4.6-0.4,6.7l3.8,6c-1.3,2.1-2.4,4.1-3.5,6.2l-7-0.2c-2.6-0.1-5,1.4-5.8,3.9c-0.8,2.3,0,5,2,6.5l5.6,4.4
			c-0.5,2.3-1.1,4.6-1.3,7l-6.6,2.1c-2.6,0.8-4.2,3-4.2,5.6s1.6,4.8,4.2,5.6l6.6,2.2c0.2,2.4,0.7,4.8,1.3,7.1L18.1-16
			c-2,1.5-2.8,4.3-2,6.6c0.8,2.5,3.2,4.2,5.9,4l7-0.3c1.1,2.1,2.2,4.2,3.5,6.2l-3.8,6.1c-1.3,2.2-1,4.9,0.5,6.8
			c1.8,2.1,4.3,2.7,6.9,1.7l6.3-2.7c1.9,1.7,3.7,3.2,5.6,4.6l-1.5,6.9c-0.5,2.4,0.5,5,2.8,6.4c2.3,1.3,5.1,0.9,6.9-0.8l5.2-4.6
			c2.1,0.8,4.4,1.7,6.7,2.3l1,7c0.3,2.5,2.3,4.6,4.9,5.1c2.6,0.3,5.1-0.9,6.2-3.2l3.2-6.2C84.3,29.9,85.4,30.1,86.7,30.1z M105.3-43
			c-3.8-8.8-11.5-13.4-19.6-13.4c-0.7,0-1.7,0-3.2,0.3L68.8-79.4c5.5-2.2,11.5-3.5,17.8-3.5c23.7,0,42.5,17.2,46.1,39.9H105.3z
			 M39.9-35c0-14.5,6.1-27.4,15.9-36.2L69.3-48c-3.2,4.2-4.6,8.7-4.6,13c0,4.1,1.3,8.1,4.5,12.5l-14,23.2
			C45.7-8.1,39.9-20.8,39.9-35z M78.4-35c0-4.1,3.4-7.2,7.3-7.2c4,0,7.2,3.1,7.2,7.2c0,4-3.2,7.3-7.2,7.3C81.8-27.7,78.4-31,78.4-35
			z M85.6-13.7c8.2,0,15.8-4.5,19.6-13.6h27.6c-3.5,22.9-22.3,40.2-46.1,40.2c-6.7,0-12.9-1.4-18.6-3.8L82.2-14
			C83.7-13.7,84.8-13.7,85.6-13.7z"/>
	</g>
	<g id="Heavy-L" transform="matrix(1 0 0 1 2551.14 1556)">
		<path d="M85.6,29.2c1.3,0,2.5-0.1,3.9-0.2l3.3,6.3c0.9,2.1,3.2,3.2,5.7,2.9c2.2-0.4,4-2.2,4.2-4.6l1-7.1c2.6-0.7,5-1.7,7.5-2.6
			l5.2,4.7c1.7,1.7,4.2,2,6.3,0.7c2-1.2,2.9-3.4,2.4-5.7l-1.5-7c2.1-1.5,4.2-3.2,6.2-5.1l6.5,2.8c2.2,0.9,4.5,0.3,6.2-1.6
			c1.4-1.7,1.7-4.1,0.4-6.2l-3.8-6.1c1.4-2.1,2.7-4.4,3.9-6.8l7.2,0.3c2.3,0.1,4.4-1.3,5.2-3.5s0-4.6-1.8-6L148-20
			c0.6-2.5,1.2-5.2,1.4-7.8l6.7-2.2c2.3-0.7,3.8-2.7,3.8-5s-1.4-4.2-3.8-5l-6.7-2.1c-0.2-2.7-0.8-5.2-1.4-7.9l5.6-4.4
			c1.8-1.4,2.6-3.7,1.8-5.9c-0.7-2.3-2.9-3.7-5.2-3.6l-7.2,0.3c-1.2-2.4-2.4-4.7-3.9-6.9l3.8-6c1.2-2,1-4.4-0.4-6.1
			c-1.7-1.9-3.9-2.5-6.2-1.6l-6.5,2.7c-1.9-1.8-4-3.5-6.1-5l1.5-7c0.4-2.3-0.5-4.6-2.5-5.7c-2.1-1.2-4.6-0.9-6.2,0.7l-5.2,4.7
			c-2.4-1-4.9-1.9-7.5-2.7l-1-7c-0.3-2.3-2-4.2-4.3-4.6c-2.4-0.3-4.6,0.8-5.5,2.8L89.6-99c-1.4-0.1-2.6-0.1-3.9-0.1
			c-1.4,0-2.6,0-4.1,0.1l-3.3-6.3c-1-2-3.1-3.1-5.6-2.7c-2.2,0.4-4,2.2-4.3,4.6l-1,7c-2.5,0.8-5,1.6-7.4,2.7l-5.2-4.6
			c-1.7-1.7-4.2-2-6.3-0.8c-2,1.1-2.9,3.4-2.5,5.8l1.5,6.9c-2.1,1.6-4.2,3.3-6.1,5l-6.6-2.7c-2.2-0.9-4.5-0.3-6.1,1.6
			c-1.4,1.7-1.6,4.2-0.4,6.1l3.8,6.1c-1.4,2.2-2.7,4.5-3.9,6.9L21-63.7c-2.3-0.1-4.4,1.3-5.2,3.5s0,4.5,1.8,5.9l5.6,4.4
			c-0.6,2.6-1.2,5.1-1.4,7.8l-6.8,2c-2.3,0.7-3.7,2.7-3.7,5c0,2.4,1.4,4.3,3.7,5l6.8,2.2c0.2,2.6,0.7,5.3,1.4,7.8l-5.6,4.4
			c-1.9,1.4-2.6,3.8-1.8,6C16.5-7.4,18.6-6,21-6.1l7.1-0.3C29.3-4,30.5-1.7,32,0.4l-3.8,6.2c-1.2,2-1,4.4,0.4,6.1
			c1.6,1.9,3.9,2.5,6.2,1.6l6.5-2.7c2,1.9,4.1,3.6,6.2,5.1l-1.5,7c-0.4,2.2,0.4,4.4,2.5,5.7c2.1,1.2,4.5,0.9,6.2-0.7l5.2-4.7
			c2.4,1,4.9,2,7.4,2.6l1,7.1c0.3,2.3,2.1,4.2,4.4,4.6c2.4,0.3,4.5-0.8,5.5-2.8l3.3-6.3C82.9,29.1,84.2,29.2,85.6,29.2z M103.4-42
			c-3.5-8.5-10.7-13-18.6-13c-0.9,0-2,0-3.6,0.4L66.3-80.2c5.9-2.5,12.4-4,19.2-4c24.8,0,44.4,18.3,47.7,42.2
			C133.2-42,103.4-42,103.4-42z M37.4-35c0-15.4,6.7-29.1,17.4-38.1l14.9,25.5c-3.2,4-4.7,8.3-4.7,12.6c0,4.1,1.3,8,4.7,12.2
			L54.2,2.6C43.8-6.4,37.4-19.9,37.4-35z M77.3-35c0-4.2,3.5-7.4,7.5-7.4c4.1,0,7.5,3.3,7.5,7.4s-3.4,7.5-7.5,7.5
			C80.8-27.4,77.3-30.9,77.3-35z M84.8-14.9c7.9,0,15.1-4.6,18.6-13.3h29.9c-3.1,24.1-22.8,42.4-47.7,42.4c-7.2,0-13.9-1.5-19.9-4.2
			L81-15.3C82.7-15,83.8-14.9,84.8-14.9z"/>
	</g>
	<g id="Bold-L" transform="matrix(1 0 0 1 2255.7 1556)">
		<path d="M84.3,28.2c1.5,0,2.9-0.1,4.4-0.2l3.4,6.4c0.8,1.9,2.7,2.8,4.9,2.5c2-0.3,3.5-1.9,3.8-4l1-7.2c2.8-0.7,5.6-1.8,8.3-2.9
			l5.3,4.7c1.5,1.5,3.6,1.7,5.6,0.6c1.8-1,2.5-2.9,2.1-5l-1.5-7.1c2.3-1.7,4.6-3.5,6.8-5.6l6.6,2.8c2,0.8,3.9,0.3,5.4-1.4
			c1.3-1.5,1.5-3.6,0.3-5.4l-3.9-6.2c1.7-2.3,3.1-4.9,4.3-7.6l7.2,0.4c2.1,0.1,3.9-1.1,4.5-3.1c0.7-2,0-4-1.6-5.2l-5.7-4.5
			c0.7-2.7,1.3-5.7,1.6-8.6l6.8-2.2c2.1-0.7,3.3-2.3,3.3-4.4s-1.2-3.7-3.3-4.4l-6.8-2.2c-0.3-3-0.9-5.9-1.6-8.7l5.7-4.5
			c1.6-1.2,2.2-3.2,1.6-5.1c-0.6-2-2.4-3.2-4.5-3.1l-7.2,0.2c-1.3-2.7-2.7-5.2-4.3-7.6l3.9-6.2c1.1-1.7,0.9-3.8-0.3-5.3
			c-1.5-1.8-3.5-2.2-5.4-1.4l-6.6,2.7c-2.1-2-4.4-3.9-6.7-5.6l1.5-7c0.4-2.1-0.4-4.1-2.2-5.1c-2-1-4-0.8-5.5,0.6l-5.3,4.8
			c-2.7-1.2-5.5-2.1-8.3-3l-1-7.1c-0.3-2.1-1.8-3.6-3.8-4c-2.1-0.3-4,0.7-4.8,2.4L88.7-98c-1.5-0.1-2.9-0.2-4.4-0.2s-2.9,0-4.4,0.2
			l-3.4-6.5c-0.8-1.7-2.7-2.7-4.9-2.3c-2,0.3-3.4,1.9-3.7,4l-1,7.1c-2.8,0.8-5.6,1.8-8.3,3l-5.3-4.7c-1.5-1.5-3.6-1.7-5.6-0.7
			c-1.8,1-2.5,2.9-2.1,5.1l1.5,7c-2.3,1.7-4.7,3.6-6.8,5.6l-6.6-2.7c-2-0.8-3.9-0.3-5.4,1.4c-1.3,1.5-1.5,3.6-0.4,5.3l3.9,6.2
			c-1.6,2.4-3,4.9-4.3,7.6L20.2-63c-2.1-0.1-3.9,1.1-4.5,3.1c-0.7,2-0.1,3.9,1.6,5.1l5.7,4.5c-0.7,2.8-1.3,5.7-1.6,8.6l-6.8,2.2
			c-2.1,0.6-3.3,2.3-3.3,4.4c0,2.1,1.2,3.7,3.3,4.4l6.8,2.2c0.2,3,0.8,5.9,1.6,8.6l-5.7,4.5c-1.7,1.2-2.3,3.2-1.6,5.2
			c0.6,2.1,2.4,3.2,4.6,3.1l7.2-0.4c1.3,2.7,2.7,5.3,4.3,7.6l-3.9,6.2c-1.1,1.8-0.9,3.9,0.4,5.4c1.5,1.8,3.4,2.2,5.4,1.4l6.6-2.8
			c2.1,2.1,4.4,4,6.8,5.6L45.6,23c-0.4,2.1,0.3,4,2.1,5c2,1,4,0.8,5.5-0.6l5.3-4.8c2.7,1.1,5.4,2.2,8.3,2.9l1,7.2
			c0.3,2.1,1.7,3.7,3.8,4c2.1,0.3,4-0.6,4.8-2.5l3.4-6.4C81.3,28.1,82.8,28.2,84.3,28.2z M101.3-40.8c-3.2-8.2-9.9-12.7-17.5-12.7
			c-1,0-2.1,0.1-3.9,0.5L63.5-81.1c6.3-2.9,13.3-4.5,20.8-4.5c26,0,46.6,19.5,49.3,44.8H101.3z M34.6-35c0-16.4,7.4-30.9,19.1-40.1
			L70.1-47c-3.3,3.8-4.8,7.9-4.8,12.2c0,4.1,1.5,8,4.9,11.9L53.3,4.7C41.8-4.5,34.6-18.8,34.6-35z M76-34.9c0-4.3,3.6-7.7,7.8-7.7
			c4.2,0,7.8,3.4,7.8,7.7c0,4.2-3.5,7.8-7.8,7.8C79.7-27.1,76-30.7,76-34.9z M83.7-16.3c7.7,0,14.4-4.6,17.5-13h32.4
			C130.9-4,110.4,15.5,84.3,15.5c-7.7,0-14.9-1.7-21.3-4.7l16.7-27.5C81.4-16.4,82.7-16.3,83.7-16.3z"/>
	</g>
	<g id="Semibold-L" transform="matrix(1 0 0 1 1959.87 1556)">
		<path d="M83.4,27.5c1.6,0,3.1-0.1,4.7-0.3l3.4,6.5c0.8,1.7,2.4,2.5,4.4,2.2c1.9-0.3,3.1-1.7,3.4-3.6l1-7.2c3-0.8,6-2,8.8-3.2
			l5.4,4.8c1.4,1.3,3.2,1.6,5,0.6c1.6-1,2.3-2.6,1.9-4.5l-1.5-7.2c2.5-1.8,5-3.8,7.2-6l6.7,2.8c1.8,0.8,3.5,0.3,4.9-1.3
			c1.2-1.4,1.4-3.2,0.3-4.8l-3.9-6.2c1.8-2.5,3.3-5.3,4.6-8.1l7.4,0.3c1.9,0.1,3.5-0.9,4.1-2.7s0-3.6-1.5-4.7l-5.7-4.5
			c0.8-3,1.4-6.1,1.7-9.3l6.9-2.2c1.9-0.6,3-2.1,3-4c0-2-1.1-3.4-3-4l-6.9-2.2c-0.3-3.2-0.9-6.2-1.7-9.2l5.7-4.5
			c1.5-1.1,2.1-2.9,1.5-4.6c-0.6-1.9-2.2-2.9-4.1-2.8l-7.4,0.3c-1.3-2.9-2.8-5.6-4.6-8.2l3.9-6.2c1-1.6,0.9-3.4-0.3-4.8
			c-1.4-1.6-3.1-2.1-4.9-1.3l-6.7,2.7c-2.2-2.1-4.6-4.2-7.2-6l1.5-7.1c0.4-2-0.3-3.7-1.9-4.5c-1.8-1-3.6-0.8-5,0.6l-5.4,4.8
			c-2.8-1.3-5.8-2.3-8.8-3.2l-1-7.2c-0.2-2-1.6-3.3-3.4-3.6c-2-0.3-3.6,0.5-4.4,2.1l-3.4,6.6c-1.6-0.1-3.1-0.2-4.7-0.2
			s-3.1,0-4.7,0.2l-3.4-6.5c-0.8-1.6-2.4-2.4-4.5-2.1c-1.8,0.3-3.1,1.7-3.3,3.6l-1,7.2c-3,0.9-6,1.9-8.8,3.2l-5.3-4.7
			c-1.4-1.4-3.2-1.6-5-0.6c-1.6,0.9-2.2,2.5-1.9,4.6l1.5,7.1c-2.5,1.8-5,3.8-7.2,6l-6.8-3c-1.8-0.8-3.5-0.3-4.9,1.3
			c-1.2,1.4-1.3,3.2-0.3,4.7l3.9,6.2c-1.7,2.6-3.2,5.3-4.6,8.2l-7.3-0.3c-1.9-0.1-3.5,0.9-4.1,2.7C15-57.9,15.5-56.2,17-55l5.7,4.5
			c-0.7,3-1.4,6.1-1.6,9.2l-7,2.2c-1.9,0.6-2.9,2.1-2.9,4c0,2,1,3.4,2.9,4l7,2.2c0.2,3.2,0.8,6.2,1.6,9.2L17-15.1
			c-1.5,1.1-2,2.9-1.4,4.7c0.6,1.9,2.2,2.9,4.1,2.8L27.1-8c1.3,2.8,2.9,5.6,4.6,8.1l-3.9,6.2c-1.1,1.6-0.9,3.5,0.3,4.8
			c1.4,1.6,3.1,2.1,4.9,1.3l6.6-2.8c2.2,2.2,4.7,4.2,7.2,6l-1.5,7.2c-0.3,1.9,0.3,3.6,2,4.5c1.8,1,3.6,0.7,4.9-0.6l5.4-4.8
			c2.9,1.2,5.8,2.3,8.8,3.2l1,7.2c0.2,2,1.5,3.3,3.4,3.6c2,0.3,3.6-0.5,4.4-2.2l3.4-6.5C80.3,27.4,81.8,27.5,83.4,27.5z M99.8-40
			c-2.9-8-9.3-12.5-16.7-12.5c-1.1,0-2.3,0.1-4.1,0.6L61.5-81.7c6.6-3.1,14-4.9,21.9-4.9c26.9,0,48,20.3,50.4,46.6H99.8z M32.7-35
			c0-17.1,7.9-32.2,20.3-41.5l17.4,29.8c-3.3,3.6-4.9,7.6-4.9,11.8s1.5,8,5,11.7L52.6,6.2C40.4-3.2,32.7-18.1,32.7-35z M75.2-34.9
			c0-4.4,3.7-7.8,7.9-7.8c4.3,0,7.9,3.4,7.9,7.8c0,4.3-3.6,7.9-7.9,7.9C78.9-27,75.2-30.6,75.2-34.9z M83-17.2
			c7.5,0,13.9-4.6,16.7-12.8h34.1c-2.4,26.3-23.5,46.6-50.4,46.6c-8.1,0-15.6-1.9-22.3-5.1l17.8-29.2C80.6-17.3,81.9-17.2,83-17.2z"
			/>
	</g>
	<g id="Medium-L" transform="matrix(1 0 0 1 1663.84 1556)">
		<path d="M82.7,27c1.7,0,3.2-0.1,4.9-0.3l3.4,6.6c0.7,1.6,2.2,2.3,4.1,2.1c1.7-0.3,2.8-1.5,3.1-3.3l1-7.3c3.2-0.8,6.3-2,9.2-3.3
			l5.4,4.9c1.3,1.2,2.9,1.4,4.6,0.5c1.5-0.9,2.1-2.4,1.7-4.2l-1.5-7.2c2.6-1.9,5.2-3.9,7.6-6.3L133,12c1.6,0.7,3.2,0.4,4.5-1.2
			c1.1-1.3,1.3-2.9,0.3-4.4L133.9,0c1.9-2.6,3.4-5.5,4.8-8.4l7.4,0.3c1.8,0.1,3.2-0.8,3.8-2.5s0.1-3.3-1.3-4.3l-5.8-4.6
			c0.8-3.1,1.5-6.3,1.7-9.7l7-2.2c1.7-0.6,2.7-1.9,2.7-3.6c0-1.8-1-3.1-2.7-3.7l-7-2.2c-0.2-3.3-0.9-6.5-1.7-9.7l5.8-4.6
			c1.4-1,1.9-2.6,1.3-4.2c-0.5-1.7-2-2.6-3.8-2.5l-7.4,0.3c-1.4-3-3-5.8-4.8-8.5l3.9-6.3c0.9-1.4,0.8-3.1-0.3-4.3
			c-1.3-1.6-2.9-1.9-4.5-1.2l-6.7,2.7c-2.3-2.3-4.9-4.4-7.5-6.2l1.5-7.2c0.3-1.9-0.2-3.4-1.8-4.2c-1.7-0.9-3.3-0.8-4.5,0.5l-5.4,4.8
			c-3-1.3-6.1-2.4-9.2-3.3l-1-7.3c-0.2-1.8-1.4-3-3.1-3.3c-1.9-0.2-3.3,0.5-4,2l-3.5,6.6c-1.7-0.1-3.3-0.2-4.9-0.2
			c-1.7,0-3.2,0.1-4.9,0.2l-3.4-6.6c-0.7-1.5-2.2-2.2-4.1-2c-1.7,0.3-2.8,1.5-3.1,3.3l-1,7.2c-3.1,0.9-6.2,2-9.2,3.3l-5.4-4.8
			c-1.3-1.3-2.9-1.4-4.6-0.5c-1.5,0.8-2.1,2.3-1.7,4.2l1.5,7.1c-2.6,1.9-5.2,4-7.6,6.2l-7-2.6c-1.6-0.7-3.2-0.4-4.5,1.2
			c-1.1,1.3-1.2,2.9-0.3,4.3l3.9,6.3c-1.8,2.7-3.4,5.5-4.8,8.5L19.3-62c-1.8-0.1-3.2,0.8-3.8,2.5c-0.6,1.7-0.1,3.2,1.3,4.2l5.8,4.6
			c-0.8,3.1-1.5,6.3-1.7,9.7l-7,2.2c-1.8,0.6-2.7,1.8-2.7,3.7c0,1.8,0.9,3.1,2.7,3.6l7,2.2c0.2,3.4,0.8,6.6,1.7,9.7L16.8-15
			c-1.4,1-1.9,2.6-1.3,4.3c0.5,1.7,2,2.6,3.8,2.5l7.4-0.3c1.4,3,3,5.8,4.8,8.4l-3.9,6.3c-1,1.5-0.8,3.2,0.3,4.4
			c1.3,1.6,2.9,1.9,4.5,1.2L39.1,9c2.3,2.4,4.9,4.4,7.6,6.3l-1.5,7.2c-0.3,1.8,0.2,3.3,1.8,4.2c1.7,0.9,3.3,0.7,4.5-0.5l5.4-4.9
			c3,1.3,6.1,2.5,9.3,3.4l1,7.3c0.2,1.8,1.4,3,3.1,3.3c1.9,0.2,3.3-0.5,4.1-2.1l3.4-6.6C79.4,26.9,81.1,27,82.7,27z M98.7-39.4
			c-2.7-7.8-8.9-12.4-16.2-12.4c-1.2,0-2.4,0.1-4.3,0.6l-18.1-31c6.8-3.3,14.5-5.2,22.7-5.2c27.5,0,49.2,20.9,51.3,47.9L98.7-39.4
			L98.7-39.4z M31.2-35c0-17.6,8.3-33.1,21.2-42.5l18.2,31.1c-3.3,3.5-5,7.4-5,11.6c0,4.1,1.6,7.9,5.1,11.5L52.1,7.2
			C39.4-2.2,31.2-17.6,31.2-35z M74.5-34.9c0-4.4,3.8-7.9,8.1-7.9c4.4,0,8.1,3.5,8.1,7.9s-3.6,8.1-8.1,8.1
			C78.3-26.8,74.5-30.5,74.5-34.9z M82.5-17.9c7.4,0,13.5-4.6,16.2-12.7H134c-2.1,27-23.8,47.8-51.3,47.8c-8.3,0-16.1-1.9-23-5.3
			l18.5-30.4C80-18.1,81.3-17.9,82.5-17.9z"/>
	</g>
	<g id="Regular-L" transform="matrix(1 0 0 1 1367.98 1556)">
		<path d="M81.8,26.3c1.8,0,3.4-0.1,5.2-0.3l3.5,6.7c0.7,1.4,1.9,2,3.6,1.8c1.6-0.2,2.5-1.3,2.7-2.9l1.1-7.4
			c3.3-0.9,6.6-2.1,9.8-3.5l5.5,4.9c1.1,1.1,2.5,1.3,4.1,0.5c1.3-0.7,1.8-2.1,1.5-3.7l-1.5-7.3c2.8-2,5.5-4.2,8-6.6l6.8,2.8
			c1.5,0.7,2.8,0.3,4-1.1c1.1-1.1,1.2-2.5,0.3-3.9l-4-6.3c2-2.8,3.7-5.8,5.1-9l7.5,0.4c1.6,0,2.8-0.7,3.3-2.2s0.1-2.8-1.2-3.8
			l-5.8-4.7c0.9-3.2,1.5-6.7,1.8-10.3l7-2.2c1.6-0.6,2.4-1.6,2.4-3.3c0-1.6-0.9-2.6-2.4-3.2l-7-2.2c-0.2-3.6-0.9-7-1.8-10.3l5.8-4.7
			c1.2-0.9,1.6-2.2,1.2-3.7c-0.5-1.6-1.7-2.3-3.3-2.2l-7.5,0.3c-1.5-3.2-3.1-6.2-5.1-9l4-6.3c0.9-1.3,0.8-2.7-0.3-3.9
			c-1.2-1.4-2.5-1.7-4-1l-6.8,2.7c-2.4-2.4-5.2-4.7-8-6.6l1.5-7.2c0.3-1.7-0.2-3-1.5-3.7c-1.6-0.8-2.9-0.7-4.1,0.5l-5.5,4.8
			c-3.1-1.4-6.4-2.5-9.8-3.5l-1.1-7.4c-0.2-1.6-1.2-2.6-2.7-2.9c-1.7-0.2-2.9,0.4-3.6,1.7L87-96.2c-1.8-0.1-3.5-0.2-5.2-0.2
			c-1.8,0-3.4,0.1-5.2,0.2l-3.5-6.7c-0.6-1.3-1.9-1.9-3.6-1.7c-1.5,0.2-2.5,1.3-2.7,2.9l-1.1,7.3c-3.3,1-6.6,2.1-9.8,3.5l-5.5-4.8
			c-1.2-1.1-2.5-1.3-4.1-0.5c-1.3,0.7-1.8,2-1.5,3.7l1.6,7.2c-2.8,1.9-5.6,4.2-8,6.6l-6.8-2.7c-1.5-0.7-2.8-0.4-4,1
			c-1,1.2-1.1,2.6-0.3,3.8l4,6.3c-2,2.9-3.7,5.8-5.1,9l-7.5-0.3c-1.6-0.1-2.8,0.7-3.3,2.2s-0.2,2.8,1.2,3.7l5.8,4.7
			c-0.9,3.3-1.5,6.7-1.8,10.2l-7.1,2.2c-1.6,0.5-2.4,1.6-2.4,3.2c0,1.7,0.8,2.7,2.4,3.3l7.1,2.2c0.2,3.5,0.9,7,1.8,10.2L16.6-15
			c-1.3,0.9-1.7,2.2-1.2,3.8c0.5,1.5,1.7,2.3,3.3,2.2l7.6,0c1.4,3.2,3.1,6.2,5.1,9l-3.9,6.3c-0.9,1.4-0.8,2.8,0.2,3.9
			c1.2,1.4,2.5,1.8,4,1.1l6.8-2.8c2.4,2.5,5.2,4.7,8,6.6L45,22.4c-0.3,1.6,0.2,2.9,1.5,3.7c1.6,0.8,2.9,0.6,4.1-0.5l5.5-4.9
			c3.2,1.4,6.4,2.6,9.8,3.5l1.1,7.4c0.2,1.7,1.2,2.7,2.7,2.9c1.7,0.2,2.9-0.4,3.6-1.8l3.5-6.7C78.4,26.2,80.1,26.3,81.8,26.3z
			 M97.2-38.6c-2.5-7.6-8.3-12.1-15.4-12.1c-1.3,0-2.6,0.2-4.5,0.7L58.2-82.7c7.1-3.6,15.1-5.5,23.7-5.5c28.4,0,50.7,21.7,52.4,49.6
			H97.2z M29.3-35.1c0-18.3,8.7-34.3,22.4-43.8l19.2,32.8c-3.4,3.3-5.1,7.2-5.1,11.3s1.7,7.9,5.2,11.3L51.5,8.6
			C38-1,29.3-16.9,29.3-35.1z M73.7-34.8c0-4.5,3.8-8.1,8.2-8.1c4.5,0,8.3,3.6,8.3,8.1s-3.8,8.2-8.3,8.2
			C77.5-26.6,73.7-30.3,73.7-34.8z M81.8,18.2c-8.7,0-16.8-2.1-23.9-5.7l19.4-32c1.9,0.5,3.2,0.6,4.4,0.6c7.2,0,13-4.7,15.4-12.5
			h37.1C132.5-3.5,110.2,18.2,81.8,18.2z"/>
	</g>
	<g id="Light-L" transform="matrix(1 0 0 1 1071.79 1556)">
		<path d="M81.3,26.3c1.9,0,3.8-0.1,5.6-0.3l3.3,6.3c0.6,1.3,1.7,1.8,3.3,1.6c1.5-0.2,2.2-1.1,2.4-2.6l1-7.1
			c3.6-0.9,7.1-2.2,10.5-3.8l5.2,4.7c1,1,2.1,1.2,3.7,0.4c1.3-0.7,1.7-1.7,1.4-3.4l-1.4-6.9c3-2.1,6-4.4,8.6-7.2l6.4,2.7
			c1.4,0.7,2.4,0.4,3.7-1c1.1-1.1,1.2-2.2,0.2-3.6l-3.8-6c2.2-3,4.1-6.3,5.6-9.7l7.2,0.3c1.5,0.1,2.5-0.6,2.9-2.1
			c0.5-1.5,0.1-2.5-1-3.5l-5.6-4.4c1-3.5,1.6-7.2,1.9-11l6.7-2.1c1.5-0.5,2.1-1.4,2.1-2.9s-0.7-2.4-2.1-3l-6.7-2.1
			c-0.3-3.8-1-7.5-1.9-11l5.6-4.4c1.1-0.9,1.5-1.9,1-3.4c-0.4-1.5-1.4-2.1-2.9-2.1L137-61c-1.6-3.4-3.4-6.6-5.6-9.7l3.8-6.1
			c0.9-1.2,0.8-2.3-0.2-3.5c-1.2-1.4-2.3-1.7-3.7-1l-6.4,2.6c-2.6-2.6-5.6-5.1-8.6-7.1l1.4-6.9c0.3-1.7-0.1-2.7-1.4-3.4
			c-1.5-0.8-2.6-0.7-3.7,0.4l-5.2,4.6c-3.4-1.6-6.9-2.8-10.5-3.8l-1-7c-0.2-1.6-1-2.4-2.5-2.6c-1.6-0.2-2.6,0.3-3.3,1.5L87-96.3
			c-1.9-0.2-3.7-0.3-5.6-0.3s-3.7,0.1-5.6,0.3l-3.3-6.4c-0.6-1.2-1.7-1.7-3.3-1.5c-1.5,0.2-2.2,1-2.4,2.6l-1,7
			c-3.6,1-7.1,2.2-10.5,3.8L50-95.4c-1.2-1.1-2.2-1.2-3.7-0.5c-1.2,0.7-1.6,1.7-1.4,3.4l1.5,6.9c-3.1,2.1-6,4.5-8.6,7.1l-6.5-2.6
			c-1.3-0.7-2.4-0.4-3.6,1c-1.1,1.1-1.1,2.2-0.3,3.4l3.8,6.1c-2.1,3-4,6.2-5.5,9.7l-7.2-0.3c-1.5,0-2.5,0.6-3,2.1
			c-0.6,1.5-0.2,2.5,1.1,3.4l5.5,4.4c-0.9,3.5-1.6,7.2-1.9,11l-6.7,2.1c-1.6,0.5-2.2,1.4-2.2,3s0.6,2.4,2.2,2.9l6.7,2.2
			c0.2,3.8,0.9,7.5,1.9,11l-5.5,4.4c-1.2,0.8-1.6,1.9-1.1,3.5c0.5,1.5,1.5,2.1,3,2.1l7.2-0.3c1.5,3.4,3.4,6.6,5.5,9.7l-3.7,6
			c-0.9,1.3-0.9,2.5,0.2,3.6c1.2,1.4,2.3,1.7,3.6,1l6.5-2.7c2.6,2.7,5.5,5.1,8.6,7.2l-1.5,6.9C44.7,24,45,25,46.3,25.7
			c1.5,0.7,2.6,0.6,3.7-0.4l5.2-4.7c3.4,1.6,6.9,2.9,10.5,3.9l1,7c0.2,1.6,0.9,2.4,2.5,2.6s2.6-0.3,3.3-1.6l3.3-6.3
			C77.6,26.1,79.5,26.3,81.3,26.3z M96.1-38c-2-7.2-7.7-11.9-14.7-11.9c-1.5,0-2.9,0.2-4.7,0.8L56.2-84.2c7.5-3.9,16.1-6.1,25.2-6.1
			c29.6,0,52.9,22.9,54.3,52.2L96.1-38L96.1-38z M27-35.2c0-19.3,9.4-36.1,23.9-45.9L71.4-46c-3.3,3-5.2,6.9-5.2,11.1
			c0,4.3,2,8.2,5.5,11.3L50.9,10.7C36.4,0.9,27-15.9,27-35.2z M72.5-34.9c0-4.9,4.1-8.8,8.9-8.8c4.9,0,8.9,3.9,8.9,8.8
			s-4,8.9-8.9,8.9C76.6-26,72.5-30,72.5-34.9z M81.3-19.8c7.2,0,13-4.9,14.8-12.4h39.6C134.2-2.8,110.9,20,81.3,20
			c-9.1,0-17.7-2.2-25.1-6.1l20.7-34.3C78.6-19.9,80-19.8,81.3-19.8z"/>
	</g>
	<g id="Thin-L" transform="matrix(1 0 0 1 775.734 1556)">
		<path d="M80.7,26.1c2.1,0,4.2-0.1,6.1-0.4l3.1,6c0.6,1.2,1.3,1.5,2.9,1.4c1.5-0.1,1.9-0.7,2.1-2.2l1-6.6c3.9-1,7.9-2.4,11.5-4.2
			l4.9,4.3c0.9,1,1.7,1.1,3.2,0.4c1.1-0.6,1.4-1.3,1.2-2.9l-1.3-6.4c3.4-2.3,6.5-4.9,9.4-7.9l6.1,2.5c1.2,0.7,2,0.5,3.2-0.8
			c1.1-1,1.1-1.9,0.1-3.1l-3.5-5.7c2.4-3.3,4.5-6.9,6.2-10.5l6.7,0.3c1.5,0.1,2.1-0.4,2.5-1.8c0.5-1.4,0.2-2.1-0.9-3l-5.2-4.2
			c1.1-3.9,1.8-8,2-12.1l6.3-2c1.4-0.5,1.9-1.2,1.9-2.6c0-1.4-0.4-2-1.9-2.6l-6.3-2c-0.3-4.2-1-8.3-2-12.1l5.2-4.2
			c1.1-0.8,1.3-1.5,0.9-3c-0.4-1.4-1.1-1.8-2.5-1.8l-6.7,0.2c-1.7-3.7-3.7-7.2-6.2-10.5l3.5-5.6c0.9-1.2,0.9-2-0.1-3
			c-1.2-1.4-2-1.6-3.2-0.8l-6.1,2.4c-2.9-3-6-5.6-9.4-7.9l1.3-6.4c0.2-1.6,0-2.3-1.2-2.9c-1.5-0.7-2.2-0.6-3.2,0.3l-4.9,4.3
			c-3.6-1.7-7.6-3.1-11.5-4.1l-1-6.6c-0.2-1.6-0.7-2.1-2.2-2.3c-1.5-0.1-2.2,0.2-2.8,1.3l-3.1,6.1c-2-0.2-4.1-0.4-6.1-0.4
			s-4,0.1-6.1,0.4l-3.1-6.1c-0.6-1.1-1.3-1.4-2.9-1.3c-1.5,0.2-2,0.7-2.1,2.3l-1,6.5c-4,1-7.9,2.3-11.5,4.2l-4.9-4
			c-1.1-1-1.8-1.1-3.2-0.4c-1.2,0.6-1.4,1.3-1.2,2.9l1.3,6.4c-3.4,2.3-6.5,4.9-9.4,7.9l-6.1-2.4c-1.2-0.7-2-0.5-3.2,0.8
			c-1.1,1.1-1.1,1.9-0.2,2.9l3.6,5.7c-2.3,3.3-4.4,6.9-6.1,10.5L18-60.9c-1.5,0-2.1,0.4-2.5,1.8c-0.6,1.5-0.4,2.2,0.9,3l5.1,4.2
			c-1,3.9-1.7,8-2,12L13.2-38c-1.5,0.5-1.9,1.1-1.9,2.6s0.4,2.1,1.9,2.6l6.3,2.1c0.3,4.1,0.9,8.2,2,12.1l-5.1,4.2
			c-1.2,0.7-1.4,1.5-0.9,3c0.4,1.4,1.1,1.9,2.5,1.8l6.7-0.3c1.6,3.7,3.8,7.3,6.1,10.5l-3.5,5.7c-0.9,1.2-0.9,2.1,0.2,3.1
			c1.2,1.4,2,1.6,3.2,0.8l6.1-2.5c2.8,3,6,5.6,9.4,7.9L44.9,22c-0.2,1.6,0,2.3,1.2,2.9c1.5,0.7,2.2,0.6,3.2-0.4L54,20
			c3.7,1.8,7.6,3.2,11.6,4.2l1,6.6c0.1,1.5,0.6,2.1,2.1,2.2c1.6,0.1,2.3-0.2,2.9-1.4l3.1-6C76.5,26,78.7,26.1,80.7,26.1z M94.6-37.3
			C93.4-44,87.7-49,80.8-49c-1.8,0-3.3,0.3-5,1L53.6-86.2c8-4.3,17.2-6.8,27.1-6.8c31.3,0,55.9,24.4,56.9,55.7H94.6z M23.8-35.4
			c0-20.7,10.3-38.5,26-48.6l22.3,38.2c-3.2,2.6-5.3,6.5-5.3,10.8c0,4.6,2.2,8.6,5.8,11.3L50.1,13.5C34.2,3.4,23.8-14.6,23.8-35.4z
			 M70.9-35c0-5.3,4.5-9.7,9.9-9.7c5.3,0,9.8,4.4,9.8,9.7c0,5.4-4.5,9.9-9.8,9.9C75.4-25.1,70.9-29.6,70.9-35z M80.8-20.9
			c7.2,0,12.9-5.2,13.9-12.2h42.9C136.5-2,111.9,22.3,80.7,22.3c-9.8,0-18.8-2.3-26.8-6.6l22.4-37.4C77.8-21.2,79.2-20.9,80.8-20.9z
			"/>
	</g>
	<g id="Ultralight-L" transform="matrix(1 0 0 1 479.364 1556)">
		<path d="M80.4,26.1c2.1,0,4.3-0.1,6.4-0.4l3,5.8c0.6,1.1,1.1,1.4,2.7,1.3c1.4-0.1,1.8-0.6,1.9-2.1l1-6.4c4.1-1,8.2-2.4,12-4.3
			l4.8,4.2c0.8,1,1.5,1,2.9,0.4c1.1-0.5,1.3-1.1,1.1-2.7l-1.3-6.2c3.6-2.4,6.8-5.1,9.8-8.3l5.9,2.4c1.1,0.7,1.7,0.6,2.9-0.8
			c1.1-1,1.1-1.7,0.1-2.8l-3.4-5.5c2.5-3.5,4.8-7.2,6.4-11l6.5,0.3c1.4,0.1,1.9-0.2,2.3-1.6c0.5-1.4,0.2-1.9-0.9-2.8l-4.9-4.1
			c1.1-4,1.8-8.3,2.1-12.6l6.1-1.9c1.3-0.6,1.7-1.1,1.7-2.4c0-1.4-0.3-1.9-1.7-2.4l-6.1-1.9c-0.3-4.3-1.1-8.6-2.1-12.6l4.9-4.1
			c1-0.7,1.2-1.3,0.9-2.7c-0.4-1.4-0.9-1.7-2.3-1.7l-6.5,0.2c-1.7-3.9-3.9-7.5-6.4-11l3.4-5.5c0.9-1.1,0.9-1.7-0.1-2.8
			c-1.2-1.3-1.9-1.5-2.9-0.7l-5.9,2.3c-2.9-3.1-6.2-5.8-9.8-8.2l1.3-6.2c0.2-1.6,0-2.1-1.1-2.7c-1.5-0.7-2-0.6-2.9,0.3l-4.8,4.2
			c-3.8-1.8-7.9-3.3-12-4.2l-1-6.4c-0.1-1.5-0.5-2-2-2.1s-2.1,0.1-2.6,1.2l-3,5.9c-2.1-0.3-4.3-0.4-6.4-0.4s-4.2,0.1-6.3,0.4l-3-5.9
			c-0.5-1-1.1-1.3-2.7-1.2c-1.4,0.1-1.8,0.6-1.9,2.1l-1,6.3c-4.1,1.1-8.2,2.4-12,4.3L48.8-95c-1-0.9-1.6-1-2.9-0.4
			c-1.1,0.6-1.3,1.1-1.1,2.7l1.2,6.2c-3.5,2.4-6.8,5.1-9.8,8.2l-5.8-2.3c-1.1-0.7-1.8-0.6-3,0.7c-1,1.1-1,1.7-0.2,2.7l3.5,5.5
			c-2.5,3.5-4.7,7.1-6.4,11l-6.5-0.2c-1.5,0-1.9,0.3-2.3,1.7c-0.7,1.4-0.4,2,0.8,2.7l5,4.1c-1.1,4-1.8,8.3-2.1,12.5l-6.1,2
			c-1.5,0.5-1.8,1-1.8,2.4s0.3,1.9,1.8,2.4l6.1,2c0.3,4.3,1,8.5,2.1,12.5l-5,4.1c-1.1,0.7-1.3,1.3-0.8,2.8c0.4,1.4,0.8,1.7,2.3,1.6
			l6.5-0.3c1.6,3.8,3.9,7.5,6.3,11l-3.3,5.5c-1,1.2-1,1.8,0.1,2.8c1.2,1.4,1.9,1.5,3,0.8l5.8-2.4c3,3.2,6.2,5.9,9.8,8.3l-1.2,6.2
			c-0.2,1.6,0,2.1,1.1,2.7c1.4,0.6,2,0.6,2.9-0.4l4.6-4.2c3.9,1.9,8,3.4,12.1,4.4l1,6.3c0.1,1.5,0.5,2,2,2.1s2.1-0.1,2.6-1.3l3-5.8
			C76,26,78.3,26.1,80.4,26.1z M93.8-36.9c-0.8-6.4-6.5-11.5-13.3-11.5c-2,0-3.6,0.3-5.1,1.1l-23.2-40c8.3-4.6,17.9-7.1,28.2-7.1
			c32.1,0,57.4,25.1,58.2,57.5H93.8z M22.3-35.5c0-21.3,10.6-39.7,27-50l23.1,39.7c-3.2,2.4-5.4,6.3-5.4,10.7c0,4.7,2.4,8.9,6,11.2
			L49.7,14.9C33.1,4.6,22.3-13.9,22.3-35.5z M70.2-35.1c0-5.6,4.7-10.2,10.4-10.2c5.6,0,10.3,4.6,10.3,10.2
			c0,5.7-4.7,10.4-10.3,10.4C74.9-24.7,70.2-29.4,70.2-35.1z M80.6-21.6c7.1,0,12.8-5.4,13.3-12.1h44.6
			c-0.9,32.2-26.2,57.2-58.2,57.2c-10.1,0-19.4-2.5-27.6-6.9l23.3-39C77.4-21.8,78.9-21.6,80.6-21.6z"/>
	</g>
	<g id="Black-M" transform="matrix(1 0 0 1 2864.94 1126)">
		<path d="M68.5,16.5c0.8,0,1.6,0,2.4-0.1l2.3,4.5c0.9,2.1,3.2,3.2,5.6,2.8c2.2-0.4,3.9-2.2,4.2-4.5l0.7-5.1c1.6-0.4,3.2-1,4.6-1.6
			l3.8,3.4c1.6,1.6,4.1,1.9,6.2,0.7c2-1.2,2.8-3.4,2.4-5.6l-1.1-5c1.3-1,2.6-2,3.9-3.2l4.7,2.1c2.1,0.8,4.4,0.2,6-1.6
			c1.3-1.6,1.6-4,0.4-6l-2.7-4.4c0.8-1.3,1.7-2.7,2.4-4.2l5.1,0.2c2.3,0.1,4.4-1.2,5.1-3.5c0.7-2.1,0-4.5-1.7-5.8l-4.1-3.2
			c0.4-1.6,0.7-3.3,0.9-4.9l4.8-1.6c2.3-0.7,3.7-2.6,3.7-4.9c0-2.2-1.4-4.2-3.7-4.9l-4.8-1.6c-0.2-1.6-0.5-3.2-0.9-4.9l4.1-3.2
			c1.8-1.3,2.5-3.7,1.8-5.7c-0.7-2.3-2.8-3.7-5.1-3.5l-5.1,0.1c-0.7-1.5-1.6-2.9-2.4-4.3l2.7-4.3c1.1-1.9,0.9-4.3-0.4-6
			c-1.6-1.9-3.9-2.4-6.1-1.6l-4.8,2c-1.2-1.1-2.4-2.1-3.8-3.2l1.1-5c0.4-2.2-0.5-4.4-2.5-5.6c-2.1-1.2-4.5-0.9-6.1,0.7l-3.8,3.4
			c-1.5-0.6-3.1-1.2-4.6-1.7l-0.7-5c-0.3-2.3-2-4.1-4.3-4.5c-2.2-0.3-4.4,0.8-5.3,2.7L71-86.5c-0.8,0-1.7,0-2.4,0
			c-0.9,0-1.7,0-2.5,0L63.8-91c-1-2-3.2-3.1-5.6-2.7c-2.2,0.4-3.9,2.2-4.2,4.5l-0.7,5c-1.6,0.5-3.2,1-4.6,1.7L45-85.9
			c-1.7-1.6-4.1-1.9-6.2-0.7c-2,1.1-2.9,3.3-2.4,5.7l1.1,4.9c-1.3,1.1-2.6,2.1-3.9,3.2l-4.7-2c-2.1-0.8-4.4-0.2-6,1.6
			c-1.3,1.6-1.5,4.1-0.4,6l2.7,4.3c-0.8,1.4-1.7,2.8-2.4,4.3l-5.1-0.1c-2.3-0.1-4.4,1.2-5.1,3.4c-0.7,2.1,0,4.5,1.7,5.8l4.1,3.2
			c-0.4,1.6-0.7,3.2-0.9,4.8L12.4-40c-2.3,0.7-3.7,2.6-3.7,4.9c0,2.3,1.4,4.2,3.7,4.9l4.8,1.6c0.2,1.6,0.5,3.3,0.9,4.9L14-20.5
			c-1.8,1.3-2.5,3.8-1.8,5.8c0.7,2.3,2.8,3.7,5.2,3.5l5.1-0.2c0.7,1.5,1.6,2.9,2.4,4.2l-2.8,4.5c-1.1,2-0.9,4.3,0.4,6
			c1.6,1.9,3.9,2.4,6.1,1.5l4.6-2C34.5,4,35.8,5,37.1,6l-1,5c-0.4,2.1,0.4,4.3,2.5,5.6c2,1.2,4.4,0.8,6.1-0.7l3.8-3.4
			c1.5,0.6,3,1.2,4.6,1.6l0.7,5.1c0.3,2.3,2,4.1,4.3,4.5c2.2,0.3,4.4-0.8,5.4-2.8l2.3-4.5C66.8,16.5,67.6,16.5,68.5,16.5z
			 M83.5-42.4c-3-7-9.6-10.6-16.1-10.6c-0.6,0-1.3,0-2.2,0.2l-9.5-16.5c3.9-1.5,8.2-2.3,12.7-2.3c17.6,0,31.5,12.5,34.7,29.2
			C103.1-42.4,83.5-42.4,83.5-42.4z M33-35.2c0-10.5,4.2-20,11.1-26.7l9.3,16.2C51-42.3,50-38.6,50-35.2c0,3.3,0.9,6.5,3.4,10
			L43.6-8.9C37-15.5,33-24.8,33-35.2z M61.7-35.2c0-3.2,2.6-5.7,5.7-5.7s5.6,2.5,5.6,5.7c0,3.1-2.5,5.8-5.6,5.8
			C64.4-29.4,61.7-32,61.7-35.2z M68.4,1.3c-4.7,0-9.3-0.9-13.4-2.6l9.9-16.3c1,0.2,1.8,0.2,2.5,0.2c6.5,0,13-3.7,16.1-10.8h19.7
			C100.1-11.3,86.1,1.3,68.4,1.3z"/>
	</g>
	<g id="Heavy-M" transform="matrix(1 0 0 1 2569.35 1126)">
		<path d="M67.4,15.6c0.9,0,1.8-0.1,2.8-0.1l2.4,4.6c0.8,1.9,2.8,2.9,4.9,2.5c2-0.3,3.5-2,3.8-4l0.7-5.3c1.8-0.5,3.5-1.2,5.2-1.8
			l4,3.5c1.5,1.4,3.6,1.7,5.6,0.6c1.7-1.1,2.5-3,2.1-5l-1.1-5.2c1.5-1.1,2.9-2.3,4.3-3.6l4.9,2.1c1.9,0.7,3.9,0.2,5.3-1.4
			c1.2-1.5,1.4-3.6,0.3-5.4l-2.8-4.5c1-1.6,1.9-3.2,2.7-4.8l5.3,0.2c2.1,0.1,4-1.1,4.5-3.1c0.7-1.9,0-4-1.5-5.2l-4.2-3.3
			c0.4-1.8,0.8-3.7,1-5.5l5-1.7c2.1-0.6,3.3-2.3,3.3-4.3s-1.2-3.8-3.3-4.4l-5-1.7c-0.2-1.9-0.6-3.7-1-5.5l4.2-3.3
			c1.6-1.2,2.2-3.3,1.6-5.1c-0.6-2.1-2.5-3.3-4.5-3.2l-5.3,0.2c-0.8-1.7-1.7-3.3-2.7-4.9l2.8-4.5c1-1.7,0.9-3.9-0.3-5.3
			c-1.4-1.7-3.4-2.1-5.4-1.4l-4.9,2c-1.3-1.2-2.8-2.4-4.2-3.6L99-81c0.4-2.1-0.4-4-2.2-5c-1.9-1-4.1-0.8-5.5,0.6l-4,3.5
			c-1.7-0.7-3.5-1.3-5.2-1.9L81.4-89c-0.3-2.1-1.8-3.7-3.9-4.1c-2.1-0.3-4,0.7-4.8,2.4l-2.5,4.8c-1-0.1-1.9-0.1-2.8-0.1
			c-1,0-1.9,0-2.8,0.1l-2.5-4.7c-0.8-1.7-2.8-2.7-4.9-2.4c-2,0.3-3.5,2-3.8,4l-0.7,5.2c-1.8,0.5-3.6,1.1-5.2,1.9l-3.9-3.5
			c-1.5-1.5-3.6-1.7-5.5-0.7c-1.8,1-2.6,3-2.2,5.1l1.2,5.1c-1.5,1.1-3,2.3-4.3,3.6l-4.9-2C26-75,24-74.5,22.6-72.9
			c-1.2,1.5-1.4,3.6-0.3,5.3l2.8,4.5c-1,1.6-1.9,3.2-2.7,4.9l-5.3-0.2c-2.1-0.1-4,1.1-4.5,3.1c-0.7,1.9,0,4,1.5,5.1l4.2,3.4
			c-0.4,1.8-0.8,3.6-1,5.4l-5,1.7C10.2-39.1,9-37.4,9-35.3s1.2,3.8,3.3,4.3l5,1.7c0.1,1.9,0.6,3.7,1,5.5l-4.2,3.3
			c-1.6,1.2-2.2,3.4-1.6,5.2c0.6,2.1,2.5,3.3,4.6,3.1l5.3-0.2c0.8,1.7,1.7,3.3,2.7,4.8L22-2.8c-1,1.8-0.8,3.9,0.4,5.3
			c1.4,1.7,3.4,2.1,5.4,1.4l4.8-2.1C34,3.1,35.5,4.3,37,5.4l-1.2,5.2c-0.4,2,0.4,3.9,2.2,5c1.8,1,4,0.7,5.4-0.6l4-3.5
			c1.7,0.6,3.4,1.3,5.2,1.8l0.7,5.3c0.3,2.1,1.8,3.7,3.9,4.1c2.1,0.3,4-0.7,4.8-2.5l2.5-4.7C65.5,15.5,66.4,15.6,67.4,15.6z
			 M81.8-41.4c-2.9-6.8-8.9-10.4-15.3-10.4c-0.6,0-1.4,0-2.5,0.2L53.5-69.7c4.2-1.8,8.9-2.7,13.9-2.7c18.4,0,33.1,13.4,35.9,31.1
			H81.8V-41.4z M30.9-35.1c0-11.3,4.7-21.3,12.4-28.2l10.4,18.1c-2.4,3.3-3.5,6.8-3.5,10.2c0,3.2,1,6.3,3.5,9.7l-10.9,18
			C35.4-14.1,30.9-24,30.9-35.1z M60.7-35.1c0-3.2,2.7-5.8,5.8-5.8s5.7,2.5,5.7,5.8c0,3.1-2.5,5.8-5.7,5.8
			C63.5-29.3,60.7-31.9,60.7-35.1z M67.3,2.2c-5.2,0-10.1-1.1-14.5-3l10.9-18c1.2,0.2,2,0.2,2.7,0.2c6.3,0,12.4-3.6,15.2-10.5h21.5
			C100.5-11.2,85.8,2.2,67.3,2.2z"/>
	</g>
	<g id="Bold-M" transform="matrix(1 0 0 1 2273.89 1126)">
		<path d="M66.1,14.5c1,0,2.1,0,3.1-0.1l2.6,4.9c0.7,1.6,2.4,2.4,4.2,2.1c1.7-0.3,3-1.7,3.2-3.4l0.8-5.5c2-0.5,4-1.3,5.9-2.1L90,14
			c1.3,1.2,3.1,1.5,4.8,0.5c1.5-0.9,2.1-2.6,1.8-4.3l-1.2-5.5c1.7-1.2,3.3-2.5,4.9-4l5.1,2.1c1.7,0.7,3.4,0.2,4.6-1.2
			c1.1-1.3,1.2-3.1,0.3-4.6l-2.9-4.7c1.1-1.7,2.1-3.5,3-5.4l5.6,0.3c1.8,0.1,3.4-1,3.9-2.7c0.6-1.6,0-3.5-1.4-4.5l-4.3-3.5
			c0.5-2,0.9-4.1,1.1-6.2l5.2-1.7c1.8-0.6,2.8-2,2.8-3.8s-1.1-3.2-2.8-3.8l-5.2-1.7c-0.2-2.1-0.6-4.2-1.1-6.2l4.3-3.4
			c1.4-1,2-2.8,1.4-4.4c-0.5-1.7-2.1-2.8-3.9-2.7l-5.6,0.2c-0.9-2-1.9-3.7-3-5.5l2.9-4.7c0.9-1.4,0.8-3.3-0.3-4.5
			c-1.3-1.5-3-1.9-4.7-1.2l-5.1,2.1c-1.5-1.4-3.2-2.7-4.8-4l1.2-5.4c0.3-1.8-0.3-3.5-1.9-4.3c-1.6-0.9-3.5-0.7-4.7,0.5l-4.1,3.7
			C84-81.3,82-82,80.1-82.6l-0.8-5.5c-0.2-1.8-1.5-3.1-3.3-3.5c-1.8-0.2-3.4,0.6-4.2,2.1l-2.6,5c-1.1-0.1-2.1-0.1-3.1-0.1
			c-1.1,0-2.1,0-3.2,0.1l-2.6-4.9c-0.7-1.5-2.4-2.3-4.2-2.1c-1.7,0.3-3,1.7-3.2,3.4l-0.8,5.5c-2,0.6-4,1.3-5.9,2.1l-4-3.6
			c-1.3-1.3-3.1-1.5-4.8-0.6c-1.5,0.9-2.2,2.5-1.9,4.3l1.2,5.4c-1.7,1.3-3.3,2.6-4.9,4l-5-2c-1.7-0.7-3.4-0.2-4.6,1.2
			c-1.1,1.3-1.2,3.1-0.3,4.5l2.9,4.7c-1.1,1.8-2.1,3.5-3.1,5.5l-5.6-0.2c-1.8-0.1-3.4,1-3.9,2.7c-0.6,1.6,0,3.4,1.3,4.4l4.4,3.5
			c-0.5,2-0.9,4.1-1.1,6.2l-5.2,1.7c-1.8,0.5-2.8,2-2.8,3.8s1,3.2,2.8,3.8l5.2,1.7c0.2,2.1,0.6,4.2,1.1,6.2L13.6-20
			c-1.4,1-2,2.8-1.4,4.5c0.5,1.7,2.1,2.8,4,2.7l5.5-0.3c0.9,1.9,2,3.7,3.1,5.4l-3,4.8c-0.9,1.5-0.7,3.3,0.3,4.6
			c1.3,1.5,2.9,1.9,4.6,1.2l5.1-2.1c1.6,1.5,3.2,2.8,4.9,4l-1.2,5.5c-0.3,1.7,0.3,3.4,1.9,4.3c1.6,0.9,3.5,0.6,4.7-0.5l4.1-3.7
			c1.9,0.8,3.9,1.6,5.9,2.1l0.8,5.5c0.2,1.8,1.5,3.1,3.3,3.5c1.8,0.2,3.5-0.6,4.2-2.1l2.6-4.9C64,14.5,65,14.5,66.1,14.5z
			 M79.8-40.3c-2.7-6.5-8.2-10.1-14.3-10.1c-0.7,0-1.6,0-2.8,0.3L50.9-70.3c4.6-2,9.7-3.1,15.1-3.1c19.4,0,34.8,14.4,37.2,33.1
			C103.2-40.3,79.8-40.3,79.8-40.3z M28.6-35.1c0-12.1,5.3-22.9,13.7-29.8l11.8,20.2c-2.5,3.1-3.7,6.4-3.7,9.7
			c0,3.2,1.1,6.2,3.7,9.4l-12.2,20C33.7-12.6,28.6-23.1,28.6-35.1z M59.7-35c0-3.3,2.7-5.8,5.8-5.8c3.2,0,5.9,2.5,5.9,5.8
			c0,3.2-2.6,5.9-5.9,5.9C62.5-29.2,59.7-31.8,59.7-35z M66.1,3.2c-5.6,0-10.9-1.2-15.6-3.4l12-19.8c1.3,0.2,2.2,0.3,3,0.3
			c6.1,0,11.6-3.5,14.2-10.3h23.5C100.9-11.1,85.5,3.2,66.1,3.2z"/>
	</g>
	<g id="Semibold-M" transform="matrix(1 0 0 1 1978.03 1126)">
		<path d="M65.2,13.8c1.1,0,2.2-0.1,3.4-0.2l2.7,5c0.6,1.4,2.1,2.1,3.8,1.9c1.5-0.2,2.6-1.5,2.9-3l0.8-5.7c2.1-0.6,4.3-1.4,6.3-2.3
			l4.2,3.8c1.1,1.1,2.7,1.3,4.2,0.5c1.4-0.8,1.9-2.2,1.6-3.9l-1.2-5.6C95.7,3,97.5,1.6,99.1,0l5.2,2.2c1.5,0.6,3,0.2,4.2-1.1
			c1-1.1,1.2-2.7,0.3-4.1l-3-4.9c1.3-1.8,2.3-3.8,3.3-5.9l5.7,0.3c1.6,0.1,3-0.8,3.5-2.3s0-3.1-1.2-4.1l-4.5-3.5
			c0.5-2.1,1-4.4,1.2-6.7l5.4-1.7c1.6-0.5,2.5-1.8,2.5-3.4c0-1.6-1-2.9-2.5-3.4l-5.4-1.7c-0.2-2.3-0.7-4.5-1.2-6.7l4.4-3.5
			c1.3-0.9,1.8-2.5,1.3-4s-1.9-2.4-3.5-2.3l-5.7,0.2c-1-2.1-2.1-4-3.3-5.9l3-4.8c0.8-1.3,0.7-2.9-0.3-4.1c-1.1-1.3-2.6-1.7-4.2-1.1
			l-5.2,2.1c-1.6-1.5-3.4-3-5.2-4.2l1.2-5.6c0.3-1.7-0.3-3.1-1.7-3.9c-1.5-0.8-3.1-0.7-4.2,0.5L85-79.9c-2.1-0.9-4.2-1.6-6.3-2.2
			l-0.8-5.6c-0.2-1.6-1.4-2.8-2.9-3.1c-1.6-0.2-3.1,0.5-3.7,1.8l-2.7,5.1C67.4-84,66.4-84,65.2-84c-1.2,0-2.2,0-3.4,0.1L59.2-89
			c-0.7-1.4-2.1-2.1-3.8-1.9c-1.5,0.3-2.6,1.5-2.9,3.1L51.7-82c-2.1,0.6-4.3,1.4-6.3,2.2l-4.2-3.7C40-84.6,38.4-84.8,37-84
			c-1.4,0.7-2,2.2-1.7,3.9l1.2,5.6c-1.8,1.3-3.6,2.7-5.2,4.2l-5.2-2.1c-1.5-0.6-3-0.2-4.2,1.1c-1,1.2-1.1,2.8-0.3,4.1l3,4.9
			c-1.2,1.9-2.3,3.8-3.3,5.9l-5.7-0.2c-1.6-0.1-3,0.8-3.5,2.3s0,3,1.2,4l4.5,3.6c-0.5,2.1-1,4.3-1.2,6.6l-5.4,1.7
			c-1.6,0.5-2.5,1.8-2.5,3.4c0,1.6,0.9,2.8,2.5,3.4l5.4,1.8c0.1,2.2,0.6,4.5,1.2,6.6l-4.4,3.5c-1.3,1-1.8,2.5-1.2,4
			c0.5,1.6,1.9,2.5,3.5,2.4l5.7-0.3c1,2.1,2.1,4.1,3.3,5.9l-3,4.9c-0.8,1.4-0.7,3,0.3,4.1c1.1,1.4,2.6,1.7,4.2,1.1l5.2-2.1
			c1.7,1.6,3.5,3,5.3,4.3L35.3,10c-0.3,1.6,0.3,3,1.7,3.9c1.5,0.8,3.1,0.6,4.2-0.5l4.2-3.8c2.1,0.9,4.2,1.7,6.3,2.3l0.8,5.7
			c0.2,1.6,1.4,2.8,2.9,3.1c1.7,0.2,3.1-0.5,3.8-1.9l2.6-5.1C63,13.7,64.1,13.8,65.2,13.8z M78.4-39.5c-2.5-6.4-7.7-9.9-13.6-9.9
			c-0.7,0-1.6,0-3,0.4L49.2-70.6c4.8-2.2,10.3-3.5,16-3.5c20.1,0,35.9,15,38,34.5L78.4-39.5L78.4-39.5z M27-35.1
			c0-12.6,5.7-23.8,14.7-30.9l12.6,21.6c-2.5,3-3.7,6.2-3.7,9.4c0,3.1,1.1,6.1,3.7,9.1l-13,21.3C32.5-11.5,27-22.6,27-35.1z M59-35
			c0-3.3,2.8-5.8,5.9-5.8c3.2,0,5.9,2.5,5.9,5.8c0,3.2-2.6,5.9-5.9,5.9C61.8-29.1,59-31.7,59-35z M65.2,3.9c-6,0-11.5-1.3-16.5-3.6
			l12.9-21.2c1.4,0.3,2.3,0.4,3.1,0.4c6,0,11.1-3.5,13.6-10.1h24.9C101.2-11.1,85.4,3.9,65.2,3.9z"/>
	</g>
	<g id="Medium-M" transform="matrix(1 0 0 1 1681.98 1126)">
		<path d="M64.6,13.2c1.2,0,2.3-0.1,3.5-0.2l2.7,5.2c0.6,1.3,1.9,2,3.4,1.8c1.4-0.2,2.4-1.3,2.6-2.8l0.8-5.8
			c2.3-0.6,4.5-1.5,6.7-2.4l4.3,3.9c1,1,2.4,1.2,3.9,0.4c1.2-0.7,1.7-2.1,1.5-3.5l-1.2-5.7c1.9-1.4,3.8-2.9,5.5-4.5l5.3,2.2
			c1.4,0.6,2.7,0.2,3.8-1c0.9-1,1-2.5,0.2-3.8l-3.1-4.9c1.3-1.9,2.4-4,3.5-6.2l5.9,0.3c1.4,0.1,2.7-0.7,3.2-2.1s0-2.8-1.1-3.7
			l-4.5-3.6c0.6-2.2,1-4.6,1.2-7l5.5-1.8c1.4-0.5,2.3-1.6,2.3-3.1s-0.9-2.6-2.3-3.1l-5.5-1.8c-0.2-2.4-0.7-4.7-1.2-7l4.5-3.6
			c1.1-0.8,1.6-2.2,1.1-3.6c-0.5-1.4-1.8-2.2-3.2-2.1l-5.9,0.2c-1-2.1-2.1-4.2-3.5-6.2l3.1-5c0.7-1.2,0.6-2.6-0.2-3.7
			c-1.1-1.2-2.4-1.6-3.8-1l-5.3,2.1c-1.7-1.6-3.6-3.2-5.5-4.5l1.2-5.7c0.2-1.5-0.2-2.8-1.5-3.5c-1.4-0.7-2.8-0.6-3.8,0.4l-4.3,3.8
			c-2.1-1-4.4-1.8-6.7-2.4l-0.8-5.7c-0.2-1.5-1.2-2.5-2.6-2.8c-1.5-0.2-2.8,0.4-3.4,1.7l-2.7,5.2c-1.2-0.1-2.3-0.1-3.5-0.1
			c-1.3,0-2.4,0-3.6,0.1l-2.7-5.2c-0.6-1.2-1.9-1.9-3.4-1.6c-1.4,0.2-2.4,1.3-2.6,2.8l-0.8,5.7c-2.2,0.6-4.5,1.4-6.7,2.4l-4.2-3.8
			c-1.1-1-2.5-1.2-3.9-0.4c-1.2,0.7-1.8,2-1.5,3.5l1.2,5.7c-1.9,1.3-3.8,2.9-5.5,4.5l-5.3-2.1c-1.4-0.6-2.7-0.2-3.8,1
			c-0.9,1-1,2.5-0.3,3.7l3.1,5c-1.3,2-2.4,4-3.5,6.2l-5.8-0.2c-1.5-0.1-2.7,0.7-3.2,2.1c-0.5,1.4-0.1,2.7,1.1,3.6l4.6,3.6
			c-0.6,2.3-1.1,4.6-1.2,7L11-38.1c-1.5,0.5-2.3,1.6-2.3,3.1s0.8,2.6,2.3,3.1l5.5,1.8c0.1,2.4,0.6,4.8,1.2,7l-4.5,3.6
			c-1.2,0.8-1.6,2.2-1.1,3.6c0.4,1.4,1.7,2.2,3.2,2.1l5.8-0.3c1,2.2,2.2,4.3,3.5,6.2l-3.1,5c-0.8,1.2-0.6,2.7,0.3,3.7
			c1,1.2,2.4,1.6,3.8,1l5.3-2.2c1.7,1.7,3.6,3.2,5.5,4.5l-1.2,5.7c-0.2,1.5,0.2,2.8,1.5,3.5c1.4,0.7,2.8,0.6,3.9-0.4L44.7,9
			c2.2,0.9,4.4,1.8,6.7,2.4l0.8,5.8c0.2,1.5,1.2,2.5,2.6,2.8c1.5,0.2,2.8-0.4,3.4-1.7L61,13C62.2,13.1,63.3,13.2,64.6,13.2z
			 M77.3-38.9c-2.4-6.3-7.3-9.7-13-9.7c-0.8,0-1.7,0.1-3.2,0.4L47.9-70.8c5-2.3,10.6-3.7,16.7-3.7c20.7,0,36.9,15.5,38.7,35.6H77.3z
			 M25.7-35c0-13.1,6-24.6,15.5-31.7L54.5-44c-2.6,2.8-3.8,6-3.8,9.2c0,3.1,1.1,6,3.8,9L40.8-3.6C31.5-10.7,25.7-22.1,25.7-35z
			 M58.4-34.9c0-3.3,2.8-5.9,5.9-5.9c3.3,0,6,2.5,6,5.9c0,3.2-2.7,5.9-6,5.9C61.2-29,58.4-31.7,58.4-34.9z M64.6,4.4
			c-6.2,0-11.9-1.4-17-3.9L61-21.6c1.5,0.3,2.4,0.4,3.3,0.4c5.8,0,10.6-3.5,13-10h25.9C101.4-11.1,85.2,4.4,64.6,4.4z"/>
	</g>
	<g id="Regular-M" transform="matrix(1 0 0 1 1386.12 1126)">
		<path class="st8" d="M54-83.4c19.1,0,34.6,15.5,34.6,34.6c0,19.1-15.5,34.6-34.6,34.6c-19.1,0-34.6-15.5-34.6-34.6
			C19.3-67.9,34.9-83.4,54-83.4z M82.1-10.5l29.3,29.3l9.1-9.1L91.4-19.5c6.3-8.1,10.1-18.3,10.1-29.3c0-26.2-21.3-47.6-47.6-47.6
			c-26.2,0-47.6,21.3-47.6,47.6C6.4-22.6,27.7-1.3,54-1.3C64.5-1.3,74.2-4.7,82.1-10.5z"/>
	</g>
	<g id="Light-M" transform="matrix(1 0 0 1 1089.85 1126)">
		<path d="M63.3,12.5c1.4,0,2.7-0.1,4.2-0.2l2.6,5.1c0.5,1,1.4,1.5,2.7,1.3c1.2-0.2,1.8-0.9,2-2.2l0.8-5.6c2.7-0.7,5.3-1.7,7.8-2.8
			l4.2,3.8c0.9,0.8,1.9,0.9,3,0.3c1-0.5,1.4-1.5,1.1-2.7L90.6,4c2.2-1.6,4.4-3.3,6.3-5.3l5.2,2.1c1.1,0.5,2.1,0.3,3-0.8
			c0.8-0.9,0.9-1.9,0.2-2.9l-3-4.8c1.6-2.2,3-4.7,4.2-7.2l5.7,0.3c1.2,0,2.1-0.5,2.5-1.7s0-2.1-0.9-2.8l-4.4-3.6
			c0.7-2.6,1.2-5.4,1.4-8.2l5.4-1.7c1.2-0.4,1.8-1.2,1.8-2.4s-0.6-2-1.8-2.4l-5.4-1.7c-0.2-2.9-0.7-5.6-1.4-8.2l4.4-3.6
			c0.9-0.7,1.2-1.6,0.9-2.8c-0.4-1.2-1.3-1.7-2.5-1.7l-5.7,0.2c-1.2-2.6-2.5-4.9-4.2-7.2l3-4.8c0.7-1,0.6-2-0.2-2.9
			c-0.9-1.1-1.9-1.3-3-0.8l-5.2,2.1c-2-2-4.1-3.8-6.3-5.3l1.1-5.5c0.2-1.3-0.1-2.2-1.1-2.7c-1.2-0.6-2.1-0.5-3,0.3l-4.2,3.7
			c-2.5-1.1-5.1-2.1-7.8-2.8l-0.8-5.6c-0.2-1.3-0.9-2-2.1-2.2c-1.3-0.1-2.1,0.3-2.7,1.3l-2.6,5.1c-1.4-0.1-2.8-0.2-4.2-0.2
			c-1.4,0-2.7,0.1-4.2,0.2l-2.7-5.1c-0.5-1-1.4-1.4-2.7-1.3c-1.2,0.2-1.9,0.9-2,2.2l-0.8,5.6c-2.6,0.7-5.3,1.6-7.8,2.8l-4-3.6
			c-0.9-0.9-1.9-1-3-0.4c-1,0.5-1.3,1.5-1.1,2.7l1.2,5.5c-2.2,1.6-4.4,3.4-6.4,5.3l-5.1-2.1c-1.1-0.5-2.1-0.3-3,0.8
			c-0.8,0.9-0.9,1.9-0.2,2.8l3,4.8c-1.6,2.3-2.9,4.6-4.1,7.2l-5.7-0.2c-1.2,0-2.1,0.5-2.4,1.7c-0.4,1.2-0.1,2.1,0.9,2.8l4.4,3.6
			c-0.7,2.6-1.2,5.3-1.4,8.2l-5.4,1.7c-1.2,0.4-1.8,1.2-1.8,2.4c0,1.3,0.6,2,1.8,2.4l5.4,1.8c0.2,2.8,0.7,5.6,1.4,8.2l-4.4,3.6
			c-1,0.7-1.3,1.6-0.9,2.8c0.4,1.2,1.2,1.7,2.4,1.7l5.7-0.3c1.1,2.5,2.5,5,4.1,7.2l-3,4.8c-0.7,1-0.7,2.1,0.2,2.9
			c0.9,1.1,1.9,1.3,3,0.8l5.1-2.1c2,2,4.2,3.8,6.4,5.3l-1.2,5.5c-0.2,1.3,0.1,2.2,1.1,2.7c1.2,0.6,2.1,0.5,3-0.3L43.1,8
			c2.5,1.2,5.2,2.1,7.8,2.9l0.8,5.6c0.1,1.3,0.8,2,2.1,2.2c1.3,0.1,2.1-0.3,2.6-1.3l2.7-5.1C60.5,12.4,61.9,12.5,63.3,12.5z
			 M75-37.6c-1.8-5.8-6.2-9.3-11.7-9.3c-1,0-2.1,0.1-3.6,0.6L44.4-72.5c5.6-2.9,12-4.5,18.8-4.5c22.4,0,40,17.2,41.3,39.4H75z
			 M22-35.1c0-14.6,7-27.2,17.9-34.7l15.3,26.2c-2.6,2.4-4,5.5-4,8.7c0,3.3,1.4,6.2,4.1,8.7L39.7-0.5C28.9-8.1,22-20.7,22-35.1z
			 M56.7-35c0-3.6,3.1-6.5,6.6-6.5c3.7,0,6.6,2.9,6.6,6.5c0,3.7-3,6.6-6.6,6.6C59.8-28.4,56.7-31.3,56.7-35z M63.3,6.7
			c-6.9,0-13.3-1.6-18.9-4.5l15.5-25.5c1.4,0.4,2.4,0.5,3.4,0.5c5.6,0,10.1-3.7,11.8-9.6h29.5C103.2-10.4,85.6,6.7,63.3,6.7z"/>
	</g>
	<g id="Thin-M" transform="matrix(1 0 0 1 793.751 1126)">
		<path d="M62.7,12.4c1.5,0,3.1-0.1,4.6-0.3l2.4,4.7c0.4,0.9,1.1,1.3,2.3,1.1c1.1-0.1,1.6-0.6,1.7-1.9l0.8-5.2
			c3-0.7,5.9-1.8,8.7-3.1l3.9,3.4c0.7,0.8,1.4,0.9,2.6,0.3c0.9-0.5,1.1-1.1,0.9-2.4l-1-5c2.5-1.8,4.9-3.7,7.1-6l4.8,2
			c0.9,0.5,1.6,0.4,2.5-0.7c0.9-0.8,0.9-1.5,0.1-2.5l-2.8-4.4c1.9-2.5,3.4-5.3,4.6-8l5.3,0.2c1.1,0.1,1.7-0.3,2.1-1.4
			s0.1-1.7-0.8-2.4l-4.1-3.3c0.8-2.9,1.3-6,1.6-9.2l5-1.5c1.1-0.4,1.5-1,1.5-2.1s-0.4-1.7-1.5-2.1l-5-1.6c-0.2-3.2-0.8-6.2-1.6-9.1
			l4.1-3.3c0.9-0.6,1-1.2,0.8-2.3c-0.3-1.1-0.9-1.5-2.1-1.5l-5.3,0.2c-1.3-2.8-2.8-5.5-4.6-8l2.8-4.4c0.7-0.9,0.7-1.6-0.1-2.4
			c-0.9-1.1-1.6-1.2-2.5-0.7l-4.8,2c-2.1-2.2-4.5-4.2-7.1-6l1-5.1c0.2-1.2,0-1.9-0.9-2.3c-1.2-0.6-1.8-0.5-2.6,0.3l-3.9,3.4
			c-2.8-1.3-5.7-2.3-8.7-3.1l-0.8-5.2c-0.1-1.2-0.6-1.7-1.8-1.9c-1.2-0.1-1.9,0.2-2.3,1l-2.4,4.8c-1.5-0.2-3.1-0.3-4.6-0.3
			s-3,0.1-4.6,0.3l-2.5-4.8c-0.4-0.8-1.1-1.2-2.3-1c-1.1,0.1-1.6,0.6-1.7,1.9l-0.7,5.1c-3,0.8-6,1.8-8.7,3.2l-3.9-3.4
			c-0.8-0.8-1.5-0.9-2.5-0.3c-0.9,0.5-1.2,1.1-1,2.3l1.1,5.1c-2.6,1.7-5,3.7-7.1,6l-4.8-2c-0.9-0.5-1.6-0.4-2.5,0.7
			c-0.8,0.8-0.8,1.5-0.2,2.4L24-63c-1.8,2.5-3.4,5.2-4.6,8l-5.3-0.2c-1.2,0-1.8,0.3-2.1,1.5c-0.5,1.1-0.3,1.8,0.7,2.3l4.1,3.3
			c-0.7,2.9-1.3,6-1.5,9.1l-5,1.6c-1.2,0.4-1.6,0.9-1.6,2.1c0,1.2,0.4,1.7,1.6,2.1l5,1.6c0.2,3.1,0.7,6.2,1.5,9.1l-4.1,3.3
			c-0.9,0.6-1.1,1.3-0.7,2.4c0.3,1.1,0.9,1.5,2.1,1.4l5.3-0.2c1.2,2.7,2.8,5.5,4.6,8l-2.7,4.4c-0.7,1-0.7,1.7,0.1,2.5
			C22.3,0.4,23,0.5,23.9,0l4.8-2c2.1,2.3,4.5,4.2,7.1,6l-1.1,5c-0.2,1.3,0,1.9,1,2.4c1.1,0.5,1.8,0.4,2.5-0.3l3.9-3.4
			c2.8,1.3,5.8,2.4,8.7,3.2l0.7,5.2c0.1,1.2,0.6,1.7,1.8,1.9c1.2,0.1,1.9-0.2,2.3-1.1l2.5-4.7C59.5,12.3,61.2,12.4,62.7,12.4z
			 M73.6-37c-1.1-5.3-5.5-9.1-10.9-9.1c-1.3,0-2.5,0.2-3.8,0.7L42-74.3c6.1-3.3,13.1-5.1,20.7-5.1c23.9,0,42.7,18.6,43.5,42.4H73.6z
			 M19.1-35.3c0-15.7,7.8-29.3,19.7-37.1l16.9,28.9c-2.5,2.1-4.1,5.2-4.1,8.5c0,3.5,1.7,6.6,4.4,8.7L39,2
			C27-5.9,19.1-19.5,19.1-35.3z M55.3-35c0-4.1,3.4-7.4,7.5-7.4c4,0,7.4,3.3,7.4,7.4s-3.4,7.4-7.4,7.4C58.7-27.6,55.3-31,55.3-35z
			 M62.7,8.8c-7.4,0-14.4-1.8-20.4-5l17-28.3c1.2,0.4,2.3,0.5,3.5,0.5c5.6,0,10-4,10.9-9.5h32.5C105.3-9.6,86.5,8.8,62.7,8.8z"/>
	</g>
	<g id="Ultralight-M" transform="matrix(1 0 0 1 497.333 1126)">
		<path d="M62.4,12.3c1.7,0,3.3-0.1,4.9-0.3l2.4,4.5c0.4,0.9,0.9,1.1,2.1,1c1.1-0.1,1.4-0.5,1.6-1.7l0.7-5c3.1-0.7,6.2-1.9,9.1-3.3
			l3.8,3.3c0.6,0.7,1.2,0.8,2.3,0.3c0.8-0.4,1-0.9,0.8-2.1l-1-4.9c2.7-1.8,5.2-3.9,7.5-6.3l4.6,1.9c0.8,0.6,1.4,0.4,2.3-0.6
			c0.9-0.8,0.9-1.4,0.1-2.3L101-7.5c1.9-2.6,3.6-5.5,4.9-8.4l5.1,0.2c1.1,0.1,1.6-0.2,1.9-1.3c0.4-1.1,0.2-1.6-0.7-2.2l-3.9-3.2
			c0.9-3,1.4-6.3,1.6-9.6l4.8-1.5c1.1-0.4,1.4-0.8,1.4-1.9c0-1-0.3-1.5-1.4-1.9l-4.8-1.5c-0.2-3.3-0.8-6.5-1.6-9.6l3.9-3.2
			c0.8-0.5,0.9-1,0.7-2.1c-0.3-1.1-0.7-1.4-1.9-1.3l-5.1,0.2c-1.3-2.9-3-5.8-4.9-8.4l2.6-4.2c0.7-0.9,0.7-1.5-0.1-2.2
			c-0.9-1.1-1.5-1.2-2.3-0.6l-4.6,1.9c-2.3-2.3-4.8-4.4-7.5-6.2l1-4.8c0.2-1.2,0-1.7-0.8-2.1c-1.1-0.6-1.6-0.5-2.3,0.2l-3.8,3.3
			c-2.9-1.4-6-2.5-9.1-3.2l-0.7-5.1c-0.1-1.2-0.5-1.5-1.6-1.7c-1.2-0.1-1.7,0.1-2.1,0.9l-2.4,4.6C65.7-82.9,64-83,62.4-83
			s-3.2,0.1-4.8,0.3l-2.4-4.6c-0.4-0.8-0.9-1-2.1-0.9c-1.1,0.1-1.4,0.5-1.6,1.7l-0.7,5c-3.1,0.8-6.2,1.9-9.1,3.3L38-81.4
			c-0.8-0.7-1.3-0.8-2.3-0.3c-0.9,0.4-1.1,0.9-0.9,2.1l1,4.8c-2.7,1.8-5.2,3.9-7.4,6.2l-4.6-1.9c-0.9-0.5-1.4-0.4-2.4,0.6
			c-0.8,0.8-0.8,1.4-0.1,2.1l2.7,4.3c-1.9,2.6-3.6,5.5-4.9,8.4L14-55.3c-1.1,0-1.5,0.2-1.9,1.3c-0.5,1.1-0.3,1.6,0.7,2.1l3.9,3.2
			c-0.8,3.1-1.4,6.3-1.6,9.6l-4.8,1.6c-1.1,0.4-1.4,0.8-1.4,1.9c0,1.1,0.3,1.6,1.4,1.9l4.8,1.6c0.2,3.3,0.7,6.5,1.6,9.6l-3.9,3.2
			c-0.9,0.6-1,1.1-0.7,2.2c0.3,1,0.7,1.4,1.9,1.3l5.1-0.2c1.2,2.9,3,5.8,4.8,8.4l-2.6,4.3c-0.7,0.9-0.7,1.5,0.1,2.3
			c1,1,1.5,1.2,2.4,0.6l4.6-1.9c2.2,2.4,4.7,4.5,7.4,6.3l-1,4.9c-0.2,1.2,0,1.7,0.9,2.1c1.1,0.5,1.6,0.4,2.3-0.3l3.7-3.3
			c2.9,1.5,6.1,2.6,9.2,3.4l0.7,5c0.1,1.2,0.4,1.6,1.6,1.7c1.2,0.1,1.7-0.1,2.1-1l2.4-4.5C59.1,12.2,60.8,12.3,62.4,12.3z
			 M72.9-36.7c-0.7-5-5.1-9-10.4-9c-1.4,0-2.7,0.3-3.9,0.8L40.9-75.2c6.3-3.5,13.7-5.4,21.5-5.4c24.7,0,44.1,19.2,44.7,44H72.9
			V-36.7z M17.7-35.4c0-16.3,8.2-30.4,20.6-38.3L56-43.4c-2.5,1.9-4.1,5-4.1,8.3c0,3.6,1.8,6.8,4.5,8.7L38.7,3.2
			C26-4.7,17.7-18.9,17.7-35.4z M54.6-35.1c0-4.3,3.6-7.8,7.9-7.8c4.2,0,7.8,3.5,7.8,7.8s-3.6,7.9-7.8,7.9
			C58.2-27.2,54.6-30.8,54.6-35.1z M62.4,10c-7.7,0-14.8-1.9-21.1-5.3L59-25c1.1,0.3,2.2,0.5,3.5,0.5c5.6,0,10-4.1,10.5-9.4h34.1
			C106.3-9.2,86.9,10,62.4,10z"/>
	</g>
	<g id="Black-S" transform="matrix(1 0 0 1 2879.86 696)">
		<path d="M53.6,5.2c0.6,0,1.3,0,2-0.1l1.9,3.5c0.7,1.6,2.4,2.5,4.3,2.2c1.7-0.3,3-1.7,3.3-3.5l0.5-4C66.7,3,68,2.5,69.1,2.1l3,2.6
			C73.4,6,75.3,6.2,77,5.3c1.5-0.9,2.2-2.6,1.9-4.3L78-3c1-0.8,2-1.6,3-2.6L84.7-4c1.7,0.6,3.4,0.2,4.6-1.2c1-1.3,1.2-3.1,0.3-4.7
			l-2.1-3.5c0.7-1.1,1.3-2.2,1.9-3.4l4.1,0.2c1.8,0.1,3.4-1,4-2.7c0.6-1.6,0-3.5-1.3-4.5L93-26.3c0.3-1.3,0.6-2.6,0.7-3.9l3.8-1.3
			c1.8-0.5,2.8-2.1,2.8-3.8c0-1.8-1.1-3.3-2.8-3.8l-3.8-1.3c-0.1-1.3-0.4-2.5-0.7-3.9l3.2-2.5c1.4-1,2-2.9,1.4-4.4
			c-0.5-1.8-2.2-2.8-4-2.7l-4.1,0.1c-0.6-1.2-1.2-2.3-1.9-3.4l2.1-3.4c0.9-1.5,0.7-3.4-0.3-4.6c-1.2-1.4-3-1.9-4.7-1.2l-3.8,1.5
			c-0.9-0.8-2-1.7-3-2.5l0.9-4c0.3-1.8-0.4-3.5-2-4.3c-1.6-0.9-3.5-0.7-4.7,0.5l-3,2.7c-1.2-0.5-2.4-0.9-3.7-1.3l-0.5-4
			c-0.2-1.8-1.6-3.2-3.4-3.5c-1.8-0.2-3.5,0.6-4.2,2.1l-1.9,3.6c-0.7,0-1.3,0-2,0s-1.3,0-2,0L49.7-79c-0.7-1.5-2.4-2.4-4.3-2.1
			c-1.7,0.3-3,1.7-3.3,3.5l-0.5,4c-1.2,0.4-2.5,0.8-3.7,1.3L35-75c-1.3-1.3-3.2-1.5-4.8-0.6c-1.5,0.9-2.2,2.6-1.9,4.4l0.9,3.9
			c-1,0.8-2.1,1.7-3,2.5l-3.8-1.5c-1.7-0.6-3.4-0.2-4.6,1.2c-1,1.3-1.2,3.2-0.3,4.6l2.1,3.4c-0.7,1.1-1.3,2.2-1.9,3.4l-4.1-0.1
			c-1.8-0.1-3.4,1-4,2.7c-0.6,1.6,0,3.5,1.3,4.5l3.2,2.5c-0.3,1.3-0.6,2.5-0.7,3.8L9.7-39c-1.8,0.5-2.8,2.1-2.8,3.8
			c0,1.8,1.1,3.3,2.8,3.8l3.8,1.3c0.1,1.3,0.4,2.6,0.7,3.9L11-23.7c-1.4,1-2,2.9-1.4,4.5c0.5,1.8,2.2,2.8,4,2.7l4-0.2
			c0.6,1.2,1.2,2.3,1.9,3.4l-2.2,3.5c-0.9,1.5-0.7,3.4,0.3,4.6c1.2,1.4,3,1.9,4.7,1.2L26-5.6c1,0.9,2.1,1.8,3.1,2.5l-0.9,4
			c-0.3,1.7,0.3,3.4,2,4.3c1.6,1,3.5,0.8,4.8-0.4l3-2.7c1.2,0.4,2.4,0.9,3.7,1.3l0.5,4c0.2,1.8,1.6,3.2,3.4,3.5
			c1.8,0.2,3.5-0.6,4.2-2.2l1.9-3.6C52.2,5.2,52.9,5.2,53.6,5.2z M65.3-40.8c-2.4-5.5-7.5-8.3-12.6-8.3c-0.4,0-1,0-1.8,0.1l-7.5-13
			c3.1-1.2,6.4-1.9,10-1.9c13.8,0,24.8,9.9,27.2,23H65.3V-40.8z M25.7-35.2c0-8.3,3.3-15.8,8.7-21l7.4,12.8
			c-1.9,2.6-2.7,5.5-2.7,8.2c0,2.6,0.7,5.1,2.7,7.8L34-14.6C28.9-19.7,25.7-27,25.7-35.2z M48.2-35.2c0-2.5,2.1-4.4,4.5-4.4
			s4.4,2,4.4,4.4s-2,4.5-4.4,4.5S48.2-32.7,48.2-35.2z M53.5-6.5c-3.8,0-7.3-0.7-10.5-2.1l7.8-12.9c0.8,0.1,1.4,0.1,2,0.1
			c5.1,0,10.2-2.8,12.5-8.4h15.5C78.5-16.5,67.4-6.5,53.5-6.5z"/>
	</g>
	<g id="Heavy-S" transform="matrix(1 0 0 1 2583.95 696)">
		<path d="M52.7,4.5c0.7,0,1.4-0.1,2.1-0.1l2,3.7c0.6,1.5,2.2,2.2,3.9,2c1.5-0.2,2.7-1.5,2.9-3.1l0.5-4.2c1.4-0.4,2.7-0.9,4.1-1.4
			l3.1,2.7c1.1,1.1,2.8,1.3,4.3,0.5c1.4-0.8,2-2.3,1.7-3.9l-0.9-4.2c1.2-0.8,2.3-1.8,3.4-2.7l3.9,1.7c1.5,0.5,3.1,0.1,4.2-1.1
			c0.9-1.1,1.1-2.8,0.2-4.2l-2.2-3.6c0.8-1.2,1.5-2.4,2.1-3.8l4.2,0.2c1.6,0,3.1-0.9,3.6-2.4s0-3.2-1.2-4.1l-3.3-2.6
			c0.3-1.4,0.6-2.8,0.8-4.2l4-1.3c1.6-0.5,2.5-1.9,2.5-3.4c0-1.6-1-3-2.5-3.5l-4-1.3c-0.1-1.4-0.4-2.8-0.8-4.2l3.3-2.6
			c1.2-0.9,1.8-2.6,1.2-4c-0.5-1.6-2-2.5-3.6-2.4H88c-0.6-1.3-1.3-2.5-2.1-3.8l2.2-3.6c0.8-1.3,0.7-3-0.2-4.2
			c-1.1-1.3-2.7-1.7-4.2-1.1l-3.9,1.6c-1-0.9-2.1-1.9-3.3-2.7l0.9-4.2c0.3-1.6-0.3-3.1-1.8-3.9c-1.4-0.8-3.1-0.6-4.2,0.5l-3.1,2.8
			c-1.3-0.5-2.7-1-4.1-1.4l-0.5-4.2c-0.2-1.6-1.4-2.9-3-3.2c-1.6-0.2-3.1,0.6-3.8,1.9l-2,3.8c-0.7,0-1.4,0-2.1,0c-0.7,0-1.4,0-2.2,0
			l-2-3.8c-0.6-1.3-2.2-2.1-3.9-1.9c-1.5,0.2-2.7,1.5-2.9,3.1L41.2-73c-1.3,0.4-2.7,0.9-4,1.4l-3.1-2.7c-1.2-1.2-2.9-1.3-4.3-0.5
			s-2.1,2.3-1.7,4l0.9,4.1c-1.1,0.9-2.2,1.8-3.3,2.7l-3.9-1.6c-1.5-0.6-3.1-0.2-4.2,1.1c-0.9,1.2-1.1,2.9-0.2,4.2l2.2,3.6
			c-0.8,1.2-1.5,2.4-2.1,3.8L13.3-53c-1.6-0.1-3.1,0.9-3.6,2.4s0,3.1,1.2,4.1l3.4,2.6c-0.3,1.4-0.6,2.8-0.8,4.2l-4,1.3
			C7.9-37.9,7-36.5,7-34.9s1,2.9,2.5,3.4l4,1.3c0.1,1.4,0.4,2.9,0.8,4.2L11-23.4c-1.2,0.9-1.8,2.6-1.2,4.1c0.5,1.6,2,2.5,3.6,2.5
			l4.2-0.2c0.6,1.3,1.3,2.6,2.1,3.8l-2.3,3.6c-0.8,1.4-0.6,3.1,0.3,4.2c1.1,1.3,2.7,1.7,4.2,1.1l3.8-1.6c1.1,1,2.2,1.9,3.4,2.7
			L28.2,1c-0.3,1.5,0.3,3,1.7,3.9c1.4,0.8,3.1,0.6,4.3-0.5l3.1-2.8c1.3,0.5,2.6,1,4,1.4l0.5,4c0.2,1.6,1.4,2.8,3,3.1
			c1.6,0.2,3.1-0.5,3.8-2l2-3.8C51.3,4.4,52,4.5,52.7,4.5z M64.1-40c-2.3-5.4-7-8.2-12-8.2c-0.5,0-1.1,0-2,0.2l-8.2-14.1
			c3.3-1.4,6.9-2.1,10.8-2.1c14.4,0,25.7,10.4,27.9,24.2C80.6-40,64.1-40,64.1-40z M24.4-35.1c0-8.8,3.7-16.6,9.6-21.9l8,14
			c-1.9,2.5-2.8,5.3-2.8,7.9c0,2.5,0.8,5,2.8,7.6l-8.5,14C27.8-18.8,24.4-26.5,24.4-35.1z M47.7-35.1c0-2.5,2.1-4.4,4.4-4.4
			c2.4,0,4.4,1.9,4.4,4.4c0,2.4-2,4.4-4.4,4.4C49.8-30.7,47.7-32.7,47.7-35.1z M52.7-6.1c-4.1,0-7.8-0.8-11.3-2.2l8.5-14
			c0.9,0.1,1.6,0.2,2.1,0.2c4.9,0,9.6-2.8,11.9-8.3h16.7C78.6-16.5,67.1-6.1,52.7-6.1z"/>
	</g>
	<g id="Bold-S" transform="matrix(1 0 0 1 2288.15 696)">
		<path d="M51.9,3.7c0.8,0,1.5,0,2.3-0.1l2.1,3.9c0.5,1.3,1.9,2,3.4,1.7C61,9,62,7.9,62.2,6.5l0.6-4.4c1.5-0.4,3-1,4.4-1.6l3.3,2.9
			c1,1,2.5,1.2,3.8,0.4c1.2-0.7,1.7-2.1,1.5-3.4l-1-4.3c1.3-0.9,2.5-2,3.7-3.1l4.1,1.8c1.4,0.5,2.7,0.1,3.7-1c0.8-1,1-2.5,0.2-3.7
			l-2.3-3.8c0.8-1.3,1.6-2.7,2.3-4.2l4.4,0.2c1.4,0,2.7-0.8,3.1-2.1c0.5-1.3,0-2.8-1.1-3.6L89.6-26c0.3-1.5,0.7-3.1,0.8-4.7l4.2-1.4
			c1.4-0.4,2.2-1.6,2.2-3s-0.9-2.5-2.2-3l-4.2-1.4c-0.1-1.6-0.5-3.1-0.8-4.7l3.5-2.7c1.1-0.8,1.6-2.3,1.1-3.5
			c-0.4-1.4-1.7-2.2-3.1-2.1l-4.4,0.1c-0.7-1.5-1.5-2.8-2.3-4.2l2.3-3.8c0.7-1.1,0.6-2.6-0.2-3.6c-1-1.2-2.3-1.5-3.7-1l-4.1,1.7
			c-1.1-1.1-2.4-2.1-3.7-3l1-4.3c0.2-1.4-0.3-2.7-1.5-3.4c-1.3-0.7-2.8-0.6-3.8,0.4l-3.3,2.9c-1.4-0.6-2.9-1.2-4.4-1.6l-0.6-4.3
			C62-78,61-79.2,59.6-79.4c-1.4-0.2-2.7,0.5-3.3,1.7l-2.1,4c-0.8,0-1.6-0.1-2.3-0.1c-0.8,0-1.6,0-2.4,0.1l-2.1-4
			c-0.6-1.2-1.9-1.9-3.4-1.7c-1.4,0.2-2.4,1.4-2.6,2.8l-0.6,4.3c-1.5,0.4-3,1-4.5,1.6l-3.2-2.9c-1-1-2.5-1.2-3.8-0.4
			c-1.2,0.7-1.8,2-1.5,3.5l0.9,4.3c-1.3,0.9-2.5,2-3.7,3l-4-1.7c-1.3-0.5-2.7-0.2-3.7,1c-0.8,1-1,2.5-0.2,3.6l2.3,3.8
			c-0.9,1.4-1.6,2.7-2.3,4.2l-4.4-0.1c-1.4-0.1-2.7,0.8-3.2,2.1c-0.4,1.3,0,2.7,1.1,3.6l3.5,2.7c-0.4,1.6-0.7,3.1-0.8,4.7l-4.2,1.4
			c-1.4,0.4-2.2,1.6-2.2,3s0.8,2.6,2.2,3l4.2,1.4c0.1,1.6,0.4,3.2,0.8,4.7l-3.5,2.7c-1.1,0.8-1.6,2.3-1.1,3.6
			c0.4,1.4,1.8,2.2,3.2,2.1l4.4-0.2c0.7,1.5,1.4,2.8,2.3,4.2L17-9.9c-0.7,1.2-0.5,2.6,0.3,3.7c1,1.1,2.3,1.5,3.7,0.9L25-7
			c1.2,1.1,2.4,2.1,3.7,3.1l-0.9,4.3c-0.3,1.4,0.2,2.7,1.5,3.5c1.3,0.7,2.7,0.5,3.8-0.4l3.2-2.9c1.5,0.5,2.9,1.1,4.5,1.6l0.6,4.4
			C41.6,7.9,42.6,9,44,9.3c1.4,0.2,2.7-0.5,3.3-1.8l2.1-3.9C50.2,3.7,51,3.7,51.9,3.7z M62.6-39.3c-2.2-5.2-6.5-7.9-11.3-7.9
			c-0.5,0-1.1,0-2.1,0.2l-8.9-15.3c3.5-1.6,7.4-2.4,11.5-2.4c15,0,26.8,11,28.8,25.4C80.6-39.3,62.6-39.3,62.6-39.3z M22.8-35.1
			c0-9.3,4.1-17.5,10.5-22.9l8.9,15.4c-2,2.4-2.8,5-2.8,7.6c0,2.4,0.8,4.8,2.8,7.3l-9.3,15.2C26.7-17.9,22.8-26,22.8-35.1z M47-35.1
			c0-2.4,2.1-4.3,4.4-4.3c2.4,0,4.4,1.9,4.4,4.3c0,2.4-2,4.4-4.4,4.4C49.1-30.6,47-32.6,47-35.1z M51.8-5.5c-4.3,0-8.3-0.9-12-2.5
			l9.3-15.1c1,0.2,1.7,0.2,2.3,0.2c4.8,0,9.1-2.7,11.3-8.1h17.9C78.7-16.5,66.8-5.5,51.8-5.5z"/>
	</g>
	<g id="Semibold-S" transform="matrix(1 0 0 1 1992.05 696)">
		<path d="M51.2,3.2c0.8,0,1.6,0,2.5-0.1l2.1,4.1c0.5,1.2,1.8,1.8,3.1,1.6c1.2-0.2,2.1-1.2,2.3-2.5l0.6-4.5c1.6-0.5,3.2-1.1,4.8-1.7
			L70,3c0.9,0.9,2.2,1,3.5,0.4c1.1-0.7,1.5-1.9,1.3-3.1l-0.9-4.5c1.3-1,2.7-2.1,3.9-3.2L82-5.6c1.2,0.5,2.4,0.2,3.3-0.9
			c0.8-0.9,0.9-2.2,0.2-3.3l-2.5-4c0.9-1.4,1.7-2.8,2.5-4.4l4.6,0.2c1.2,0,2.4-0.7,2.8-1.9c0.4-1.2,0-2.5-1-3.3L88.3-26
			c0.4-1.6,0.7-3.3,0.9-5l4.3-1.4c1.2-0.4,2.1-1.4,2.1-2.7s-0.8-2.3-2.1-2.7l-4.3-1.4c-0.1-1.8-0.5-3.4-0.9-5l3.6-2.8
			c1-0.7,1.4-2,1-3.2s-1.6-2-2.8-1.9L85.5-52c-0.8-1.5-1.6-3-2.5-4.4l2.4-3.9c0.6-1,0.5-2.3-0.2-3.3c-0.9-1-2.1-1.3-3.4-0.9
			l-4.2,1.7c-1.2-1.1-2.5-2.2-3.9-3.2l0.9-4.5c0.2-1.3-0.2-2.5-1.3-3.1C72.2-74.1,70.9-74,70-73l-3.3,3c-1.6-0.7-3.2-1.2-4.8-1.7
			l-0.6-4.5c-0.2-1.3-1.1-2.2-2.3-2.5c-1.3-0.1-2.5,0.4-3,1.5l-2.1,4.1c-0.9,0-1.7-0.1-2.5-0.1c-0.9,0-1.7,0-2.6,0.1l-2.1-4.1
			c-0.5-1.1-1.8-1.7-3.1-1.5c-1.2,0.2-2.1,1.2-2.3,2.5l-0.6,4.5c-1.6,0.5-3.2,1-4.8,1.7l-3.3-3c-0.9-0.9-2.2-1.1-3.4-0.4
			c-1.1,0.6-1.6,1.8-1.3,3.1l0.9,4.4c-1.3,1-2.7,2.1-3.9,3.2l-4.2-1.7c-1.2-0.4-2.4-0.1-3.3,0.9c-0.8,0.9-0.9,2.2-0.2,3.3l2.4,3.9
			c-0.9,1.4-1.7,2.9-2.5,4.4L12.5-52c-1.2,0-2.4,0.7-2.8,1.9c-0.4,1.2,0,2.4,1,3.2l3.6,2.9c-0.4,1.6-0.7,3.2-0.9,5l-4.3,1.4
			c-1.2,0.4-2,1.4-2,2.7s0.8,2.3,2,2.7l4.3,1.4c0.1,1.7,0.5,3.4,0.9,5L10.7-23c-1,0.8-1.4,2.1-1,3.3c0.4,1.2,1.6,2,2.8,1.9L17-18
			c0.8,1.6,1.6,3,2.5,4.4l-2.4,3.9c-0.6,1.1-0.5,2.4,0.2,3.3c0.9,1.1,2.1,1.4,3.4,0.9l4.2-1.8c1.2,1.2,2.6,2.2,3.9,3.2l-0.9,4.5
			c-0.2,1.2,0.2,2.4,1.3,3.1c1,0.5,2.3,0.4,3.2-0.5l3.3-3c1.6,0.6,3.2,1.2,4.8,1.7l0.6,4.5c0.2,1.3,1.1,2.3,2.3,2.5
			c1.3,0.2,2.5-0.4,3-1.5L48.6,3C49.6,3.1,50.3,3.2,51.2,3.2z M61.7-38.7c-2.1-5.1-6.2-7.8-10.8-7.8c-0.5,0-1.2,0-2.3,0.2l-9.4-16.2
			c3.7-1.7,7.7-2.6,12.1-2.6c15.4,0,27.5,11.4,29.2,26.3L61.7-38.7L61.7-38.7z M21.7-35.1c0-9.6,4.3-18.1,11.1-23.6l9.5,16.3
			c-2,2.4-2.9,4.9-2.9,7.4c0,2.4,0.8,4.7,2.8,7.2l-9.8,16.1C25.9-17.2,21.7-25.6,21.7-35.1z M46.5-35c0-2.4,2.1-4.3,4.4-4.3
			c2.4,0,4.4,1.9,4.4,4.3s-2,4.4-4.4,4.4C48.6-30.6,46.5-32.6,46.5-35z M51.2-5.1c-4.5,0-8.8-1-12.5-2.7l9.8-16
			c1.1,0.2,1.9,0.3,2.4,0.3c4.6,0,8.7-2.7,10.8-8h18.8C78.8-16.5,66.7-5.1,51.2-5.1z"/>
	</g>
	<g id="Medium-S" transform="matrix(1 0 0 1 1695.82 696)">
		<path d="M50.7,2.8c0.9,0,1.7-0.1,2.6-0.1l2.2,4.2c0.5,1,1.6,1.6,2.8,1.4c1.1-0.2,2-1.1,2.1-2.2L61,1.4c1.7-0.4,3.4-1.1,5-1.8
			l3.5,3.1c0.8,0.8,2.1,1,3.1,0.4s1.4-1.7,1.2-2.9l-1-4.6c1.4-1,2.8-2.1,4.1-3.4L81.2-6c1.1,0.4,2.2,0.1,3.1-0.8
			c0.7-0.8,0.8-2.1,0.2-3l-2.5-4c1-1.4,1.8-3,2.6-4.6l4.7,0.2c1.1,0,2.2-0.6,2.6-1.8c0.4-1.1,0-2.3-0.9-3l-3.7-2.9
			c0.4-1.7,0.8-3.4,0.9-5.2l4.4-1.4c1.1-0.3,1.9-1.3,1.9-2.5s-0.7-2.1-1.9-2.5L88.3-39c-0.1-1.8-0.5-3.5-0.9-5.2l3.7-2.9
			c0.9-0.7,1.3-1.8,0.9-2.9c-0.4-1.1-1.5-1.8-2.6-1.8l-4.7,0.1c-0.8-1.6-1.6-3.1-2.6-4.6l2.5-4c0.6-0.9,0.5-2.1-0.2-3
			c-0.8-1-2-1.3-3.1-0.8L77-62.3c-1.3-1.2-2.7-2.3-4.1-3.4l1-4.5c0.2-1.2-0.2-2.3-1.2-2.9c-1.1-0.6-2.3-0.5-3.1,0.4l-3.5,3.1
			c-1.6-0.7-3.3-1.3-5-1.8L60.5-76c-0.2-1.2-1-2.1-2.1-2.3c-1.2-0.1-2.3,0.4-2.8,1.4l-2.2,4.2c-0.9-0.1-1.8-0.1-2.6-0.1
			c-0.9,0-1.8,0-2.7,0.1l-2.2-4.2c-0.5-1-1.6-1.5-2.8-1.4c-1.1,0.2-2,1.1-2.1,2.3l-0.6,4.6c-1.7,0.5-3.4,1.1-5,1.8L32-72.7
			c-0.8-0.8-2.1-1-3.1-0.4s-1.4,1.7-1.2,2.9l1,4.5c-1.4,1-2.8,2.2-4.1,3.4L20.2-64c-1.1-0.4-2.3-0.1-3.1,0.8c-0.7,0.8-0.8,2.1-0.2,3
			l2.5,4c-1,1.5-1.8,3-2.6,4.6l-4.7-0.1c-1.2,0-2.2,0.6-2.6,1.7c-0.3,1.1,0,2.2,0.9,2.9l3.7,2.9c-0.4,1.7-0.8,3.4-0.9,5.2l-4.4,1.4
			c-1.2,0.4-1.9,1.3-1.9,2.5s0.7,2.1,1.9,2.5l4.4,1.4c0.1,1.9,0.5,3.6,0.9,5.2l-3.7,3c-0.9,0.7-1.3,1.9-0.9,3
			c0.3,1.1,1.4,1.8,2.6,1.8l4.7-0.2c0.8,1.6,1.6,3.2,2.6,4.6l-2.5,4c-0.6,1-0.5,2.2,0.2,3c0.8,1,2,1.3,3.1,0.8l4.2-1.8
			c1.3,1.2,2.7,2.4,4.1,3.4l-1,4.6c-0.2,1.2,0.2,2.3,1.2,2.9c1.1,0.6,2.2,0.4,3.1-0.4l3.4-3.1c1.7,0.6,3.3,1.3,5,1.8L41,6
			c0.1,1.1,1,2.1,2.1,2.2c1.2,0.2,2.2-0.4,2.7-1.4L48,2.6C49,2.7,49.8,2.8,50.7,2.8z M60.9-38.3c-2.1-5-5.9-7.7-10.4-7.7
			c-0.5,0-1.2,0-2.4,0.3l-9.9-16.8c3.8-1.8,8.1-2.7,12.5-2.7c15.7,0,28.1,11.8,29.6,27H60.9V-38.3z M20.9-35
			c0-9.9,4.5-18.6,11.6-24.1l9.9,16.9c-2.1,2.3-2.9,4.8-2.9,7.3c0,2.3,0.8,4.6,2.9,7L32.2-11.2C25.3-16.7,20.9-25.3,20.9-35z
			 M46.2-35c0-2.4,2.1-4.3,4.4-4.3c2.4,0,4.4,1.9,4.4,4.3c0,2.4-2,4.4-4.4,4.4C48.3-30.6,46.2-32.6,46.2-35z M50.7-4.8
			c-4.7,0-9-1-12.9-2.9L48-24.3c1.2,0.2,2,0.3,2.5,0.3c4.5,0,8.4-2.6,10.4-7.8h19.4C78.8-16.6,66.5-4.8,50.7-4.8z"/>
	</g>
	<g id="Regular-S" transform="matrix(1 0 0 1 1399.72 696)">
		<path d="M50.1,2.2c0.9,0,1.8-0.1,2.8-0.1l2.2,4.3c0.4,0.9,1.4,1.4,2.4,1.2c1-0.2,1.8-1,1.9-2l0.7-4.8c1.8-0.5,3.5-1.2,5.3-1.9
			L69,2.1c0.8,0.7,1.8,0.8,2.8,0.3C72.7,2,73,0.9,72.9-0.1l-1-4.7c1.5-1,3-2.2,4.3-3.5l4.4,1.8c1,0.4,2,0.2,2.7-0.7
			C83.9-8,84-9,83.4-9.9L80.9-14c1.1-1.5,1.9-3.2,2.7-4.9l4.8,0.2c1,0,2-0.6,2.3-1.6s0-2-0.8-2.6l-3.8-3c0.5-1.8,0.9-3.6,1-5.5
			l4.5-1.5c1-0.3,1.7-1.2,1.7-2.2c0-1.1-0.6-1.9-1.7-2.2l-4.5-1.4c-0.1-2-0.5-3.8-1-5.6l3.8-3c0.8-0.6,1.1-1.6,0.8-2.6
			c-0.3-1-1.3-1.6-2.3-1.5l-4.8,0.2c-0.8-1.8-1.7-3.4-2.7-4.9l2.5-4.1c0.5-0.8,0.5-2-0.1-2.6c-0.7-0.9-1.8-1.1-2.7-0.7l-4.4,1.8
			c-1.3-1.2-2.8-2.5-4.3-3.5l1-4.7c0.1-1.1-0.2-2.1-1.1-2.5c-1-0.5-2-0.4-2.8,0.3L65.5-69c-1.8-0.7-3.5-1.4-5.3-1.9l-0.7-4.7
			c-0.1-1-0.9-1.8-1.9-2c-1-0.1-2,0.3-2.4,1.2L53-72.1c-1,0-1.9-0.1-2.8-0.1c-1,0-1.9,0-2.8,0.1L45-76.5c-0.4-0.8-1.4-1.3-2.4-1.2
			c-1,0.2-1.7,1-1.9,2L40-70.9c-1.8,0.5-3.6,1.2-5.3,1.9l-3.6-3.1c-0.8-0.8-1.8-0.9-2.8-0.3c-0.8,0.5-1.2,1.5-1,2.5l1,4.7
			c-1.5,1-3,2.3-4.3,3.5l-4.4-1.8c-1-0.4-2-0.1-2.7,0.7c-0.6,0.7-0.7,1.8-0.2,2.6l2.5,4.2c-1,1.5-1.9,3.1-2.7,4.9l-4.8-0.2
			c-1,0-2,0.5-2.3,1.5s0,2,0.8,2.6l3.8,3c-0.4,1.8-0.8,3.6-1,5.6l-4.6,1.4c-1,0.3-1.6,1.2-1.6,2.2s0.6,1.9,1.6,2.2l4.6,1.5
			c0.1,1.9,0.5,3.8,1,5.5l-3.8,3c-0.8,0.6-1.1,1.7-0.8,2.6c0.3,1,1.3,1.6,2.3,1.6l4.8-0.2c0.8,1.7,1.7,3.4,2.7,4.9l-2.5,4.1
			c-0.5,0.9-0.4,2,0.2,2.7c0.7,0.9,1.7,1.1,2.7,0.7L24-8.2c1.3,1.3,2.8,2.5,4.3,3.5l-1,4.7c-0.2,1,0.2,2.1,1,2.5
			c1,0.5,2,0.4,2.8-0.3L34.7-1c1.7,0.7,3.5,1.4,5.3,1.9l0.7,4.8c0.1,1,0.9,1.8,1.9,2c1.1,0.1,2-0.3,2.4-1.2l2.3-4.3
			C48.3,2.1,49.1,2.2,50.1,2.2z M60-37.7c-2.1-5-5.6-7.6-10-7.6c-0.6,0-1.3,0-2.6,0.3L37.1-62.7c3.9-1.9,8.3-2.9,13.1-2.9
			c16.1,0,28.8,12.2,30.1,27.9C80.3-37.7,60-37.7,60-37.7z M19.9-35c0-10.3,4.8-19.2,12.3-24.8L42.7-42c-2.1,2.3-3,4.6-3,7.1
			c0,2.3,0.8,4.5,2.9,6.9L31.8-10.5C24.5-16.1,19.9-25,19.9-35z M45.8-34.9c0-2.4,2.1-4.3,4.3-4.3c2.4,0,4.4,1.9,4.4,4.3
			c0,2.4-2,4.3-4.4,4.3C47.8-30.6,45.8-32.5,45.8-34.9z M50.1-4.4c-4.9,0-9.4-1.1-13.5-3.1l10.7-17.4c1.2,0.3,2,0.3,2.6,0.3
			c4.4,0,8-2.6,10-7.7h20.2C78.9-16.6,66.3-4.4,50.1-4.4z"/>
	</g>
	<g id="Light-S" transform="matrix(1 0 0 1 1103.4 696)">
		<path d="M49.7,2.1c1.1,0,2.1,0,3.1-0.1L55,6.1c0.4,0.8,1.2,1.2,2.2,1.1c1-0.1,1.6-0.8,1.7-1.8l0.7-4.5c2-0.5,4-1.3,5.9-2.1l3.3,3
			c0.7,0.7,1.6,0.8,2.5,0.3c0.8-0.4,1.1-1.3,0.9-2.2l-0.9-4.4c1.7-1.2,3.3-2.5,4.8-4l4.2,1.8c0.9,0.4,1.8,0.2,2.5-0.6
			c0.6-0.7,0.7-1.6,0.1-2.4l-2.4-3.9c1.2-1.7,2.2-3.5,3.1-5.4H88c1,0,1.8-0.4,2.1-1.4c0.3-0.9,0-1.8-0.7-2.4l-3.6-2.8
			c0.5-2,0.9-4,1.1-6.2l4.3-1.4c0.9-0.3,1.5-1,1.5-2s-0.5-1.7-1.5-2l-4.3-1.4c-0.2-2.1-0.6-4.2-1.1-6.2l3.6-2.8
			c0.8-0.6,1-1.4,0.7-2.3c-0.3-0.9-1.1-1.4-2.1-1.4L83.4-51c-0.9-1.9-1.9-3.7-3.1-5.4l2.4-3.9c0.5-0.8,0.5-1.7-0.1-2.3
			c-0.7-0.9-1.6-1.1-2.5-0.7L76-61.6c-1.5-1.5-3.1-2.8-4.8-4l0.9-4.4c0.2-1-0.1-1.8-0.9-2.2c-0.9-0.5-1.8-0.4-2.5,0.3L65.4-69
			c-1.9-0.8-3.9-1.5-5.9-2.1l-0.7-4.5c-0.1-1-0.7-1.6-1.7-1.8c-1-0.1-1.8,0.2-2.2,1l-2.1,4.1c-1.1-0.1-2.1-0.1-3.1-0.1s-2,0-3.1,0.1
			l-2.1-4.1c-0.4-0.8-1.2-1.2-2.2-1c-0.9,0.1-1.5,0.8-1.7,1.8L40-71.1c-2,0.6-4,1.3-5.9,2.1l-3.4-2.9c-0.7-0.7-1.6-0.8-2.5-0.3
			c-0.8,0.4-1.1,1.2-0.9,2.2l0.9,4.4c-1.7,1.1-3.3,2.5-4.8,4l-4.2-1.7c-0.9-0.4-1.7-0.2-2.4,0.7c-0.6,0.7-0.7,1.6-0.2,2.3l2.4,3.9
			c-1.2,1.7-2.2,3.5-3.1,5.4l-4.6-0.2c-1,0-1.7,0.4-2,1.4S9.2-48,10-47.5l3.5,2.8c-0.5,2-0.9,4-1,6.2l-4.3,1.4c-1,0.3-1.5,1-1.5,2
			s0.5,1.7,1.5,2l4.3,1.4c0.1,2.1,0.5,4.2,1,6.2L10-22.7c-0.8,0.6-1,1.4-0.7,2.4c0.3,0.9,1,1.4,2,1.4l4.6-0.2
			c0.9,1.9,1.9,3.8,3.1,5.4L16.7-10c-0.6,0.8-0.5,1.7,0.1,2.4c0.7,0.8,1.6,1,2.4,0.6l4.2-1.8c1.5,1.5,3.1,2.8,4.8,4l-0.9,4.4
			c-0.1,1,0.1,1.8,0.9,2.2c1,0.5,1.8,0.4,2.5-0.3l3.3-3c2,0.8,3.9,1.6,5.9,2.1l0.6,4.5c0.1,1,0.7,1.6,1.7,1.8c1,0.1,1.8-0.2,2.2-1.1
			L46.6,2C47.7,2.1,48.7,2.1,49.7,2.1z M59.1-37.3c-1.6-4.7-5.1-7.4-9.4-7.4c-0.7,0-1.5,0.1-2.7,0.4L35.4-63.9
			c4.3-2.1,9.1-3.3,14.3-3.3c17.1,0,30.6,13.1,31.7,29.9C81.4-37.3,59.1-37.3,59.1-37.3z M18-35.1c0-11,5.2-20.7,13.5-26.4L43-41.8
			c-2.1,2.1-3.1,4.4-3.1,6.9s1,4.8,3.1,6.9L31.3-8.8C23.2-14.6,18-24.2,18-35.1z M44.8-35c0-2.7,2.3-4.9,4.9-4.9
			c2.7,0,4.9,2.1,4.9,4.9c0,2.7-2.2,4.9-4.9,4.9C47.1-30.1,44.8-32.3,44.8-35z M49.7-3c-5.2,0-10.1-1.2-14.4-3.4L47-25.6
			c1.1,0.3,1.9,0.4,2.6,0.4c4.4,0,8-2.8,9.5-7.6h22.3C80.3-16,66.8-3,49.7-3z"/>
	</g>
	<g id="Thin-S" transform="matrix(1 0 0 1 807.203 696)">
		<path d="M49.2,2.1c1.2,0,2.4,0,3.5-0.2l2,3.8c0.3,0.7,0.9,1,1.9,0.9C57.5,6.4,57.9,6,58,5l0.6-4.2c2.2-0.5,4.5-1.4,6.6-2.4
			l3.1,2.7c0.6,0.6,1.2,0.7,2.1,0.3c0.7-0.4,0.9-1,0.8-2l-0.8-4.1c1.9-1.3,3.8-2.8,5.4-4.5l3.8,1.6c0.8,0.4,1.4,0.3,2.1-0.5
			c0.6-0.6,0.7-1.3,0.1-2.1l-2.2-3.6c1.4-1.9,2.6-4,3.5-6.1l4.2,0.2c0.9,0,1.4-0.3,1.7-1.2s0.1-1.5-0.6-2l-3.2-2.6
			c0.6-2.2,1-4.5,1.2-7l4-1.2c0.9-0.3,1.3-0.8,1.3-1.7s-0.4-1.4-1.3-1.7l-4-1.3c-0.2-2.4-0.6-4.7-1.2-7l3.2-2.6
			c0.7-0.5,0.9-1.1,0.6-2s-0.8-1.2-1.7-1.2l-4.2,0.1c-1-2.1-2.1-4.2-3.5-6.1l2.2-3.6c0.5-0.7,0.5-1.3-0.1-2c-0.7-0.8-1.3-1-2.1-0.5
			l-3.8,1.6c-1.7-1.7-3.5-3.2-5.4-4.5l0.8-4c0.1-1,0-1.6-0.8-2c-0.9-0.5-1.5-0.4-2.1,0.2l-3.1,2.7c-2.1-1-4.4-1.8-6.6-2.4L58-75.5
			c-0.1-1-0.5-1.4-1.4-1.5c-1-0.1-1.5,0.1-1.9,0.9l-2,3.8c-1.1-0.1-2.3-0.2-3.5-0.2s-2.3,0.1-3.5,0.2l-2-3.8c-0.4-0.7-0.9-1-1.9-0.9
			c-0.9,0.1-1.3,0.5-1.4,1.5l-0.6,4.2c-2.3,0.6-4.5,1.4-6.6,2.4l-3.1-2.7c-0.6-0.6-1.2-0.7-2.1-0.2c-0.7,0.4-0.9,0.9-0.8,2l0.9,4
			c-2,1.3-3.8,2.8-5.4,4.5L18.8-63c-0.7-0.4-1.3-0.3-2.1,0.5c-0.6,0.7-0.7,1.3-0.2,2l2.3,3.6c-1.4,2-2.6,4-3.6,6.1L11-50.9
			c-0.9,0-1.4,0.3-1.7,1.2s-0.1,1.5,0.6,2l3.3,2.6c-0.6,2.2-1,4.6-1.2,7l-4,1.3c-0.9,0.3-1.3,0.8-1.3,1.7S7-33.7,8-33.4l4,1.3
			c0.2,2.4,0.6,4.7,1.2,6.9L10-22.7c-0.7,0.5-0.9,1.1-0.6,2c0.3,0.9,0.8,1.2,1.7,1.2l4.2-0.2c1,2.1,2.2,4.2,3.5,6.1L16.6-10
			c-0.6,0.8-0.5,1.4,0.1,2.1c0.7,0.8,1.3,1,2.1,0.5L22.7-9c1.6,1.7,3.5,3.2,5.4,4.5l-0.9,4.1c-0.1,1,0,1.6,0.8,2
			c0.9,0.4,1.5,0.3,2.1-0.3l3.1-2.7c2.1,1,4.4,1.9,6.7,2.4l0.5,4c0.1,0.9,0.5,1.4,1.4,1.5c1,0.1,1.5-0.1,1.9-0.9l2-3.8
			C46.8,2,48,2.1,49.2,2.1z M57.9-36.8c-0.9-4.2-4.4-7.1-8.6-7.1c-1,0-1.9,0.1-3,0.5L33.4-65.5c4.7-2.5,10.1-3.9,15.8-3.9
			c18.4,0,32.9,14.3,33.7,32.6C82.9-36.8,57.9-36.8,57.9-36.8z M15.5-35.3c0-12.1,5.9-22.6,15.1-28.6l12.9,22.1
			c-2,1.8-3.1,4.1-3.1,6.7c0,2.7,1.2,5.1,3.4,6.9L30.7-6.6C21.5-12.6,15.5-23.1,15.5-35.3z M43.6-35.1c0-3.1,2.6-5.6,5.7-5.6
			c3.1,0,5.7,2.5,5.7,5.6c0,3.1-2.6,5.7-5.7,5.7C46.2-29.4,43.6-31.9,43.6-35.1z M49.2-1.1c-5.7,0-11.1-1.4-15.7-3.9l13-21.6
			c1,0.3,1.9,0.4,2.7,0.4c4.3,0,7.9-3,8.7-7.4h24.9C82.1-15.3,67.6-1.1,49.2-1.1z"/>
	</g>
	<g id="Ultralight-S" transform="matrix(1 0 0 1 510.761 696)">
		<path d="M48.9,2c1.3,0,2.5,0,3.8-0.2l1.9,3.6c0.3,0.7,0.7,0.9,1.7,0.8c0.9-0.1,1.2-0.4,1.3-1.4l0.6-4c2.4-0.6,4.8-1.5,7-2.5l3,2.6
			c0.5,0.6,1,0.7,1.9,0.2c0.7-0.3,0.8-0.7,0.7-1.7L70-4.4c2.1-1.4,4-3,5.7-4.9l3.7,1.5c0.7,0.4,1.2,0.3,1.9-0.5
			c0.7-0.6,0.7-1.1,0.1-1.9l-2.1-3.4c1.5-2,2.8-4.2,3.8-6.4l4.1,0.2c0.9,0,1.2-0.2,1.5-1s0.1-1.3-0.5-1.8l-3.1-2.5
			c0.7-2.3,1.1-4.8,1.3-7.4l3.8-1.2c0.8-0.3,1.1-0.7,1.1-1.6c0-0.8-0.3-1.2-1.1-1.5L86.4-38c-0.2-2.5-0.6-5-1.3-7.4L88-48
			c0.6-0.4,0.8-0.9,0.5-1.8c-0.2-0.8-0.6-1.1-1.5-1.1l-4,0.2c-1-2.2-2.3-4.4-3.8-6.4l2.1-3.4c0.5-0.7,0.5-1.1-0.1-1.8
			c-0.7-0.9-1.2-1-1.9-0.5l-3.7,1.5C74-63.2,72-64.7,70-66.2l0.8-3.9c0.1-1,0-1.4-0.7-1.8c-0.9-0.4-1.3-0.4-1.9,0.2l-3,2.6
			c-2.2-1.1-4.6-1.9-7-2.5l-0.6-4c-0.1-0.9-0.4-1.3-1.3-1.4c-0.9-0.1-1.3,0.1-1.7,0.8l-1.9,3.6c-1.2-0.1-2.5-0.2-3.8-0.2
			c-1.2,0-2.4,0.1-3.7,0.2L43.4-76c-0.3-0.7-0.8-0.9-1.8-0.8c-0.9,0.1-1.2,0.4-1.3,1.4l-0.6,4c-2.4,0.6-4.8,1.4-7,2.5l-2.9-2.6
			c-0.7-0.6-1.1-0.6-1.9-0.2C27.1-71.4,27-71,27.1-70l0.8,3.9c-2.1,1.4-4,3-5.7,4.8l-3.7-1.5c-0.7-0.4-1.2-0.3-1.9,0.5
			c-0.6,0.6-0.6,1.1-0.1,1.7l2.2,3.5c-1.5,2.1-2.7,4.2-3.8,6.4l-4.1-0.1c-0.9,0-1.3,0.2-1.5,1.1C9-48.9,9.1-48.4,9.9-48l3.1,2.5
			c-0.6,2.4-1.1,4.9-1.3,7.4L8-36.9c-0.9,0.3-1.2,0.6-1.2,1.5S7-34.1,8-33.8l3.8,1.2c0.2,2.5,0.6,5,1.3,7.4L10-22.7
			c-0.7,0.4-0.8,0.9-0.5,1.8c0.2,0.8,0.6,1.1,1.5,1l4.1-0.2c1,2.2,2.3,4.4,3.7,6.4l-2.1,3.4c-0.7,0.9-0.7,1.4,0,2
			c0.7,0.8,1.2,0.9,1.9,0.5l3.7-1.5C24.1-7.4,26-5.8,28-4.4l-0.8,3.9c-0.1,1,0,1.4,0.7,1.7c0.9,0.4,1.3,0.3,1.9-0.2l2.9-2.6
			c2.3,1.1,4.7,2,7.1,2.6l0.6,4c0.1,0.9,0.4,1.2,1.3,1.4c0.9,0.1,1.4-0.1,1.7-0.8L45.3,2C46.4,2,47.7,2,48.9,2z M57.3-36.4
			c-0.7-4-4.2-7.1-8.3-7.1c-1.1,0-2.1,0.2-3,0.6L32.3-66.4c4.9-2.6,10.5-4.2,16.6-4.2c19.1,0,34.2,14.9,34.7,34.1L57.3-36.4
			L57.3-36.4z M14.3-35.4c0-12.6,6.2-23.5,15.9-29.7l13.6,23.4c-2,1.6-3.2,3.9-3.2,6.5c0,2.8,1.4,5.3,3.5,6.8L30.4-5.5
			C20.6-11.6,14.3-22.6,14.3-35.4z M43-35.1c0-3.3,2.7-6,6.1-6c3.3,0,6,2.7,6,6s-2.7,6.1-6,6.1C45.7-29.1,43-31.8,43-35.1z
			 M48.9-0.1c-6,0-11.5-1.4-16.4-4L46.2-27c0.9,0.3,1.8,0.4,2.7,0.4c4.3,0,7.8-3.2,8.3-7.4h26.3C83-15,68-0.1,48.9-0.1z"/>
	</g>
</g>
</svg>
